<?xml version="1.0" encoding="UTF-8"?>
<svg id="Layer_1" data-name="Layer 1" xmlns="http://www.w3.org/2000/svg" viewBox="0 0 795.04 796">
  <defs>
    <style>
      .cls-1 {
        fill: #fff;
      }
    </style>
  </defs>
  <g id="LUZe1p.tif">
    <path class="cls-1" d="M743.1,796H51.97c-2.41-.62-4.82-1.23-7.23-1.87-18.73-4.93-32.2-16.16-40.08-33.91C.65,751.2,0,741.59,0,731.84,.04,509.03,.03,286.22,.03,63.41c0-2.5,.02-5,.12-7.5C1.14,29.85,18.47,8.45,43.75,2.06,46.49,1.36,49.23,.69,51.97,0,282.35,0,512.72,0,743.1,0c2.57,.66,5.16,1.26,7.72,1.98,22.56,6.35,37.44,20.45,42.73,43.58,1.39,6.09,1.43,12.57,1.43,18.87,.07,222.13,.06,444.25,.05,666.38,0,2.83-.01,5.67-.12,8.5-1.04,26.43-18.5,48.06-44.11,54.67-2.57,.66-5.14,1.35-7.71,2.02ZM423.08,350.72c-.33-3.2-.69-5.09-.69-6.98-.05-12.83-.01-25.66-.04-38.49-.02-6.45-.41-6.89-6.74-6.89-32.95-.03-65.9-.03-98.85,0-6.59,0-6.96,.4-6.96,7.2-.01,121.64-.01,243.28,0,364.91,0,7.05,.25,7.29,7.38,7.29,33.78,.01,67.57,0,101.35,0q8.59,0,8.61-8.54c0-59.82-.18-119.64,.15-179.46,.07-13.27,1.22-26.64,3.23-39.76,2.51-16.42,8.64-31.56,21.65-42.82,13.36-11.56,29.47-14.65,46.56-14.57,29.94,.13,48.05,13.91,55.83,42.88,4.09,15.25,4.94,30.87,4.94,46.58-.02,62.82-.01,125.64,0,188.46,0,6.9,.31,7.22,6.94,7.22,34.62,.02,69.23,.02,103.85,0,6.93,0,7.29-.34,7.28-7.41-.1-74.15,.08-148.3-.5-222.44-.22-27.9-3.88-55.5-13.57-81.97-11.42-31.21-31.57-54.2-63-66.13-26.66-10.12-54.46-12.84-82.56-9.33-38.85,4.85-70.19,22.73-91.49,56.5-.64,1.02-1.61,1.83-3.34,3.76Zm-187.48,137.78c0-60.83,0-121.66,0-182.49,0-7.43-.22-7.66-7.5-7.66-34.12-.02-68.24-.02-102.37,0-7.42,0-7.6,.19-7.6,7.54,0,121.33,0,242.65,0,363.98,0,7.86,.03,7.89,7.7,7.89,33.79,.01,67.58,0,101.37,0q8.38,0,8.4-8.27c0-60.33,0-120.66,0-180.99ZM177.04,109.88c-37.83-.03-68.12,30.36-68.12,68.36,0,37.81,30.59,68.59,68.15,68.55,37.72-.04,68.72-31.14,68.62-68.83-.1-37.51-30.9-68.05-68.64-68.08Z"/>
  </g>
</svg>