<?xml version="1.0" encoding="UTF-8"?>
<svg id="Layer_1" data-name="Layer 1" xmlns="http://www.w3.org/2000/svg" viewBox="0 0 450.65 474.38">
  <defs>
    <style>
      .cls-1 {
        fill: #231f20;
      }

      .cls-1, .cls-2 {
        stroke-width: 25px;
      }

      .cls-1, .cls-2, .cls-3 {
        stroke: #231f20;
        stroke-miterlimit: 10;
      }

      .cls-3 {
        stroke-width: 15px;
      }
    </style>
  </defs>
  <g id="aF9Dp6.tif">
    <g>
      <g>
        <path class="cls-2" d="M192.57,456.88c-8.83-1.35-17.75-2.3-26.48-4.12-63.25-13.22-112.17-47.2-146.75-101.8-2.16-3.41-2.66-6.88-.13-10.2,2.38-3.11,5.64-3.63,9.4-2.65,18.91,4.92,38.14,7.35,57.68,6.97,97.72-1.92,181.73-73.28,199.3-169.23,9.32-50.91,.7-98.69-24.98-143.52-1.36-2.37-2.77-5.2-2.71-7.78,.12-5.58,5.53-8.31,11.94-6.47,27.26,7.78,52.43,19.88,74.87,37.25,47.9,37.09,77.1,85.65,85.99,145.5,17.16,115.52-57.13,223.86-170.94,250.32-9.82,2.28-19.96,3.22-29.94,4.81-1.45,.23-2.88,.62-4.32,.94h-32.93ZM44.97,358.74c40.19,57.48,127.18,99.62,218.51,74.97,96.33-26,162.17-117.44,152.51-219.92-4.43-47.01-23.1-87.93-55.38-122.48-21.6-23.12-47.24-40.22-77.08-51.71,34.9,82.09,30.27,160.47-23.3,231.85-53.61,71.43-127.6,97.8-215.27,87.29Z"/>
        <path class="cls-1" d="M226.04,461.88h-33.85l-.38-.06c-2.77-.42-5.55-.81-8.33-1.19-6.04-.83-12.28-1.7-18.42-2.98-64.3-13.44-114.75-48.44-149.95-104.02-4.75-7.49-1.96-13.18,.12-15.91,2.4-3.14,6.89-6.47,14.63-4.46,18.75,4.88,37.71,7.18,56.32,6.81,95.52-1.88,177.31-71.33,194.48-165.14,8.98-49.05,.77-96.19-24.4-140.14-1.71-2.99-3.45-6.56-3.37-10.37,.08-3.85,1.76-7.17,4.73-9.36,3.54-2.61,8.49-3.27,13.58-1.81,28.75,8.21,54.5,21.03,76.56,38.11,49.32,38.19,78.89,88.23,87.87,148.72,8.48,57.08-4.72,114.65-37.17,162.11-32.41,47.4-81.27,80.72-137.58,93.81-6.84,1.59-13.82,2.55-20.58,3.48-3.2,.44-6.5,.89-9.71,1.4-.81,.13-1.67,.33-2.58,.55-.48,.11-.96,.23-1.44,.33l-.53,.12Zm-33.09-10h31.99c.26-.06,.51-.12,.77-.18,1.05-.25,2.14-.51,3.32-.7,3.32-.53,6.68-.99,9.93-1.44,6.53-.9,13.28-1.82,19.67-3.31,53.86-12.52,100.59-44.38,131.59-89.71,31.02-45.37,43.64-100.42,35.54-155-8.59-57.85-36.89-105.72-84.1-142.28-21.05-16.3-45.67-28.54-73.19-36.4-2.43-.69-4.15-.3-4.9,.25-.3,.22-.65,.6-.67,1.53-.03,1.55,1.54,4.29,2.05,5.19,26.38,46.05,34.97,95.48,25.55,146.91-18.03,98.47-103.88,171.36-204.12,173.33-19.55,.39-39.39-2.01-59.04-7.13-2.93-.76-3.64,.17-4.17,.85-.57,.74-1.35,1.76,.38,4.49,33.7,53.21,82,86.71,143.55,99.58,5.8,1.21,11.87,2.05,17.74,2.86,2.7,.37,5.4,.75,8.09,1.15Zm16.52-5.97c-25.8,0-51.52-4.75-76.2-14.22-38.22-14.65-71.03-39.54-92.38-70.09l-6.4-9.16,11.1,1.33c12.13,1.45,23.94,2.18,35.39,2.18,72.79,0,131.63-29.34,175.29-87.51,25.63-34.16,40.39-70.95,43.84-109.35,3.34-37.12-3.77-76.67-21.15-117.54l-4.62-10.86,11.02,4.24c30.53,11.76,57.09,29.57,78.93,52.96,33.12,35.46,52.2,77.66,56.7,125.43,9.75,103.44-55.94,198.16-156.18,225.21-18.24,4.92-36.8,7.37-55.32,7.38ZM55.86,364.88c20.1,24.81,48.46,45.01,80.98,57.48,40.42,15.49,83.76,17.75,125.34,6.52,95.53-25.78,158.12-116.04,148.83-214.62-4.29-45.52-22.47-85.74-54.05-119.54-18.44-19.74-39.57-34.84-64.31-45.92,31.63,82.49,22.09,158.35-28.41,225.65-50.62,67.46-120.7,97.84-208.39,90.43Z"/>
      </g>
      <path class="cls-3" d="M167.43,106.68c0,5.65-.24,11.32,.13,16.94,.13,1.94,1.35,4.38,2.87,5.55,8.31,6.34,16.85,12.39,25.37,18.47,3.53,2.52,6.67,5.22,5.64,10.14-.92,4.38-4.41,5.78-8.26,6.89-9.87,2.85-19.63,6.06-29.54,8.75-3.51,.95-5.07,2.79-6.08,6.13-3.06,10.15-6.54,20.17-9.69,30.3-1.13,3.63-3,6.32-6.91,6.98-3.95,.66-6.62-1.4-8.74-4.48-6.13-8.88-12.41-17.66-18.36-26.66-1.89-2.86-4-3.85-7.34-3.78-10.46,.23-20.94,.13-31.4,.23-4.07,.04-7.73-.73-9.6-4.79-1.74-3.79-.23-6.98,2.18-10.07,6.33-8.12,12.37-16.47,18.82-24.5,2.33-2.9,2.91-5.33,1.62-8.95-3.47-9.66-6.35-19.53-9.66-29.25-1.31-3.84-2.01-7.47,1.16-10.64,3.16-3.16,6.83-2.58,10.65-1.21,9.98,3.57,20.07,6.85,29.99,10.59,3.09,1.16,5.14,.61,7.62-1.26,8.62-6.5,17.22-13.05,26.22-18.98,2.49-1.64,6.61-2.15,9.55-1.43,3.78,.92,4.44,4.88,4.39,8.6-.07,5.48-.02,10.96-.02,16.44-.21,0-.42,0-.63,0Zm-30.4,84.16c2.3-7.14,4.71-13.01,6.03-19.12,1.66-7.66,6.06-11.51,13.54-13.1,6.13-1.3,12.05-3.53,18.95-5.62-6.99-5.06-12.92-9.59-19.1-13.74-4.19-2.81-5.78-6.39-5.6-11.35,.27-7.39,.07-14.8,.07-22.7-6.16,4.46-12.4,8.73-18.35,13.39-3.97,3.11-7.83,3.57-12.48,1.75-6.86-2.7-13.89-4.96-21.9-7.78,2.53,7.83,4.44,14.81,7.07,21.51,2.08,5.3,1.26,9.45-2.3,13.73-4.59,5.54-8.76,11.43-13.67,17.9,8.36,0,15.63,.21,22.88-.07,5.2-.2,8.8,1.65,11.61,6.03,4,6.23,8.41,12.21,13.24,19.16Z"/>
    </g>
  </g>
</svg>