<svg xmlns="http://www.w3.org/2000/svg" xml:space="preserve" id="Layer_1" x="0px" y="0px" version="1.1" viewBox="0 0 1588.79 1009.05"><style>.st0{fill:#273140}.st1{fill:#fe9903}</style><path d="M1179.59 480.94c9.49 8.14 21.02 13.12 32.31 16.25 36.32 10.11 72.85 20.33 112.51 17.08 33.07 3.96 65.94-3.94 96.45-17.29 46.33-20.33 78.37-54.2 86.2-106.74 6.59-44.1-5.31-81.5-39.09-111.42-24.57-21.75-55.58-29.79-85.47-39.85-31.07-10.46-62.98-18.41-92.56-33.14-32-15.92-39.4-54.56-19.69-78.82 12.05-14.85 29.41-21.94 47.47-23.84 48.08-5.03 95.17-1.23 139.31 21.25 13.83 7.04 24.03 1.38 25.69-13.9.74-6.64.4-13.4.36-20.12-.17-21.8-10.29-34.96-30.96-41.99-23.89-8.09-47.99-14.09-73.18-17.41-44.36-5.86-87.1-3.2-127.69 16.6-42.55 20.78-72.42 51.57-78.33 101.22-5.6 47.16 11.43 84.92 47.32 114.26 31.93 26.09 72.04 33.71 110.14 45.64 22.8 7.14 46.04 13.24 66.56 26.12 25.29 15.87 29.79 46.56 15.73 71.45-10.01 17.7-27.04 25.22-45.69 30.29-44.17 12-87.17 4.98-130.27-6.57-15.63-4.2-30.17-10.65-45.09-16.39-16.27-6.29-25.03-.07-25.12 17.36-.05 7.5.57 15.06-.14 22.51-1.17 12.08 4.69 20.09 13.23 27.45" class="st0"/><path d="M1573.97 647.05c-.9-15.68-10.72-25.14-25.29-30.34-28.01-10.03-57.21-9.54-84.42-12.03-33.26 1.83-64.57 4.06-95.17 12.31-28.35 7.57-54.87 18.93-78.87 35.77-5.88 4.1-13.62 9.96-10.67 17.79 3.44 9.13 12.88 10.44 22.16 8.73 1.54-.28 3.11-.45 4.67-.71 53.04-8.78 106.48-11.62 159.83-5.38 24.01 2.8 32.81 14.3 31.93 34.66-1.23 28.77-10.6 55.67-18.5 82.67-8.33 28.46-20.4 55.89-31.55 83.47-2.8 6.93-4.72 12.67 1.85 17.77 6.97 5.43 12.95 2.35 19.07-2.49 30.62-24.17 51.17-55.96 68.39-90.21 11.81-23.55 20.26-48.39 26.71-73.94 6.47-25.62 11.35-51.52 9.86-78.07" class="st1"/><path d="M514.89 109.09c2.66 11.77 6.19 23.55 10.2 34.47 7.57 20.64 14.19 41.8 19.76 62.72 5.88 22.04 14.16 43.46 19.21 65.85 2.18 9.73 3.72 20.76 8.8 29.96 6.29 11.43 9.49 24.36 12.31 36.34 5.19 21.94 12.81 43.1 19.02 64.62 2.66 9.18 4.27 19 8.09 27.87 5.67 13.24 8.04 27.42 12.81 40.82 4.65 13.07 7.9 26.76 25.36 31.81 20.12 5.81 40.02 3.82 59.75 2.68 12.33-.71 26.85-7.19 29.44-21.16 2.73-14.73 9.46-28.13 11.12-43.17 1.52-13.73 4.84-27.94 9.32-40.56 4.98-14.07 7.23-28.84 10.65-42.82 6.81-27.8 15.85-55.36 18.74-84.14.24-2.32.93-4.74 2.02-6.78 7.95-14.75 8.97-31.67 12.33-47.35 3.25-15.09 11.22-29.58 9.54-45.78-.14-1.52 1.73-3.25 2.56-4.7 2.87.85 3.2 2.97 3.61 4.84 3.84 17.84 7.57 35.68 11.36 53.51.9 4.22 1.87 8.42 2.99 12.57 4.36 16.11 10.72 31.95 12.62 48.34 1.78 15.3 5.88 30.32 9.92 44.41 7.59 26.52 12.71 53.66 20.47 80.15 6.52 22.25 9.68 45.61 17.03 67.91 4.82 14.56 15.82 25.1 30.93 25.62 16.18.55 32.4.59 48.58-.07 11.53-.45 22.42-6.07 27.35-15.77 7.54-14.8 12.62-31 17.32-47.01 4.34-14.83 8.16-29.72 13.35-44.33 3.89-10.94 7.16-22.2 10.6-33.35 3.98-12.95 6.45-26.5 11.53-39 4.55-11.2 7.14-22.96 11.43-34.25 5.57-14.64 8.47-30.36 13.92-45.33 3.82-10.51 7.4-21.35 10.29-32.21 3.77-14.23 8.16-28.25 12.86-42.2 6.43-19.1 13.19-38.14 18.08-57.64 3.8-15.18 8.33-30.03 14.59-44.22 7.78-17.6-3.18-36.46-20.8-34.87-16.06 1.45-32.35.47-48.56.33-5.36-.05-9.39 1.92-14.02 4.7-10.94 6.57-12.69 17.53-17.29 27.82-6.48 14.52-8.04 30.17-12.48 45.02-2.94 9.8-7.85 19.83-8.14 30.34-.45 16.41-7.73 31.1-11.31 46.64-4.03 17.55-8.71 35.11-13.09 52.66-3.42 13.64-6.36 27.78-11.17 40.59-5.1 13.59-7.52 27.9-10.82 41.44-4.03 16.51-12.05 32.43-11.69 50.15.07 3.42-1.87 8.14-7.5 10.01-.64-11.67-3.68-21.99-6.38-32.47-6.03-23.32-12.36-46.8-16.63-70.38-2.82-15.75-7.71-30.98-10.41-46.75-3.99-23.29-10.58-46.18-15.82-69.29-3.06-13.5-5.24-27.59-9.84-40.89-5.95-17.25-9.18-35.18-12.36-53.04-3.04-17.17-15.75-39.71-38.02-36.79-12.81 1.68-26.02.31-39.07.31-24.84.02-38.93 13.9-39.8 39.14-.09 3.13.07 6.69-1.3 9.27-8.61 16.08-6.36 35.11-14.49 51.47-2.73 5.53-1.3 12.86-3.39 19.5-4.79 15.16-9.32 30.67-11.22 46.37-2.09 17.2-7.52 33.8-12 49.93-4.1 14.71-7.12 30.32-10.65 44.95-6.36 26.4-14.02 52.57-19.4 80.03-6.9-3.72-7.47-9.54-7.76-15.51-.71-16.96-7.64-32.71-11.34-48.94-3.82-16.65-7.85-33.64-12.43-50.31-3.94-14.28-7.64-28.75-11.36-43.01-4.27-16.37-7.92-32.97-12.24-49.34-3.87-14.61-7.92-29.3-11.65-43.91-4.08-16.06-6.88-32.57-12.17-48.41-8.97-26.9-12-45.19-48.08-41.53-13.31 1.35-26.85 0-40.28.24-16.63.28-24.76 15.73-18.1 31 5.7 13.06 10.04 26.96 13.2 40.88m-6.75-54.22c-.04 2.39.46 5.32 1.48 8.89 14.14 49.32 28.99 98.39 43.88 147.47 14.42 47.49 29.25 94.86 43.81 142.3 12.74 41.54 25.19 83.14 38.14 124.58 4.89 15.61 11.48 19.95 27.99 20.16 11.86.17 23.7-.07 35.56 0 26.21.14 32.47-5.6 38.24-31.5 8.82-39.66 18.31-79.16 27.8-118.65 14.94-62.12 31.05-123.96 44.14-186.54.95-4.6.5-11.74 7.83-11.17 6.26.5 7.31 6.67 7.8 11.77 2.04 20.95 8.73 40.87 13.43 61.2 11.01 47.65 22.94 95.1 34.37 142.66 8.94 37.19 17.46 74.48 26.64 111.61 3.72 15.02 12.05 20.87 27.28 20.95 15.02.05 30.03.12 45.05-.07 15.58-.19 22.39-4.96 27.07-19.74 18.31-57.85 36.48-115.76 54.61-173.68 17.89-57.19 35.72-114.41 53.51-171.62 7.14-22.96 14.56-45.83 20.92-69 .95-3.46 1.36-6.38 1.22-8.81.15 2.45-.26 5.39-1.22 8.9-6.36 23.18-13.78 46.04-20.92 69-17.79 57.21-35.6 114.43-53.51 171.62-18.12 57.9-36.29 115.83-54.61 173.68-4.67 14.75-11.48 19.55-27.07 19.74-15.02.19-30.03.14-45.05.07-15.23-.07-23.55-5.93-27.28-20.95-9.18-37.12-17.7-74.41-26.64-111.61-11.43-47.56-23.39-95-34.37-142.66-4.67-20.33-11.39-40.25-13.43-61.2-.5-5.1-1.57-11.27-7.8-11.77-7.31-.57-6.86 6.57-7.83 11.17-13.09 62.58-29.2 124.42-44.14 186.54-9.51 39.5-19 79.01-27.8 118.65-5.76 25.9-12.03 31.64-38.24 31.5-11.86-.07-23.7.14-35.56 0-16.51-.21-23.13-4.58-27.99-20.16-12.95-41.46-25.4-83.07-38.14-124.58-14.56-47.44-29.41-94.81-43.81-142.3-14.9-49.08-29.75-98.18-43.88-147.47-1.03-3.61-1.54-6.57-1.48-8.98" class="st0"/><path d="M1417.2 719.4c-15.51-3.82-27.07 6.24-40.02 10.75-24.38 8.49-47.92 19.52-72.47 27.47-29.79 9.63-59.87 18.43-89.95 27.18-36.96 10.77-74.27 20.19-111.91 27.14-40.42 7.47-81.22 13.38-122.09 18.72-47.44 6.19-94.95 6.67-142.37 10.03-40.09 2.85-80.25-2.02-120.41-2.68-14.42-.24-29.11-.57-43.6-2.42-35.79-4.6-71.71-8.42-107.36-13.85-20.14-3.06-40.49-6.12-60.11-11.15-17.51-4.48-35.32-7.35-52.83-11.6-24.74-5.98-49.32-12.67-73.75-19.52-21.68-6.07-43.27-13.02-64.71-20.26-20.04-6.76-39.87-14.04-59.61-21.47-21.94-8.23-43.86-16.51-65.07-26.69-19.4-9.3-39.83-16.56-58.95-26.33-30.34-15.51-59.94-32.43-89.9-48.65-5.91-3.2-11.46-3.91-17.27 1.28-9.96 8.87-11.05 18.62-.31 28.2 21.11 18.81 42.27 37.69 64.8 54.7 40.06 30.24 81.48 58.54 124.98 83.81 38.24 22.2 77.69 41.8 117.99 59.82 21.42 9.58 43.48 17.53 65.4 25.9 30.74 11.74 62.17 20.99 93.7 29.98 25.95 7.4 52.61 12.03 78.94 17.91 20.78 4.65 41.8 7.92 62.65 10.56 52.68 6.69 105.51 14.02 158.95 9.89 31.9-.4 63.95 2.35 95.74-2.44 31.45-4.77 63.36-5.91 94.55-12.38 24.95-5.19 50.03-9.77 74.96-15.09 25-5.34 49.51-12.41 73.89-19.45 26.95-7.8 53.61-17.15 79.84-27.68 22.16-8.9 44.69-17.17 66.18-27.37 29.65-14.09 58.97-29.06 86.91-46.47 22.63-14.09 45.54-27.75 65.8-45.26 7.5-6.48 10.48-14.68 7.07-24.41-3.29-9.46-9.39-15.65-19.66-18.17M800.13 950.96c6.15.16 12.38.24 18.7.23-6.32.01-12.55-.06-18.7-.23m38.03-.04c6.32-.17 12.7-.41 19.13-.73-6.44.31-12.82.56-19.13.73m19.8-.77c6.24-.31 12.52-.69 18.84-1.13-6.32.45-12.61.82-18.84 1.13m41.16-2.92c5.52-.5 11.05-1.05 16.6-1.63-5.55.59-11.08 1.13-16.6 1.63m21.49-2.15c4.71-.51 9.43-1.06 14.15-1.63-4.72.56-9.44 1.11-14.15 1.63m512.52-199.71c.01-.14.01-.29.01-.43-.01.14 0 .28-.01.43m.04-1.46c-.08-1.99-.75-4.11-2.22-6.38-5.6-8.66-13.45-13.31-25.14-10.56-16.98 4.01-32.24 12.12-48.37 18.08-24.27 8.94-48.41 18.05-73.15 25.64-21.75 6.69-43.05 15.23-65.11 20.57-25.88 6.26-51.5 13.59-77.59 19.21-32.24 6.95-64.47 14-97.02 18.81-29.89 4.41-59.87 8.54-90.04 11.43-38.05 3.65-76.1 6.74-114.22 7.52-51.59 1.04-103.09-1.28-154.64-5.88-49.77-4.46-99.27-10.11-148.35-19.12-36.22-6.64-72.25-14.59-108.02-23.34-30.81-7.54-61.32-16.49-91.63-25.88-23.98-7.42-47.68-15.85-71.09-24.91-28.18-10.91-56.15-22.37-83.83-34.63-30.81-13.64-61.06-28.35-90.95-43.81-15.61-8.07-30.65-17.2-46.07-25.62-7.02-3.82-14.68-5.48-20.57 1.45-1.67 1.96-2.43 3.72-2.55 5.31.12-1.6.87-3.36 2.55-5.33 5.91-6.9 13.57-5.27 20.57-1.45 15.42 8.42 30.48 17.55 46.07 25.62 29.89 15.47 60.13 30.17 90.95 43.81 27.68 12.26 55.65 23.72 83.83 34.63 23.41 9.06 47.11 17.48 71.09 24.91 30.32 9.39 60.82 18.34 91.63 25.88 35.77 8.75 71.8 16.68 108.02 23.34 49.05 9.01 98.56 14.66 148.35 19.12 51.55 4.63 103.02 6.93 154.64 5.88 38.12-.78 76.17-3.87 114.22-7.52 30.2-2.89 60.16-7 90.04-11.43 32.54-4.82 64.78-11.86 97.02-18.81 26.09-5.62 51.71-12.95 77.59-19.21 22.06-5.34 43.34-13.88 65.11-20.57 24.74-7.59 48.91-16.7 73.15-25.64 16.13-5.95 31.41-14.07 48.37-18.08 11.69-2.75 19.55 1.9 25.14 10.56 1.48 2.27 2.15 4.4 2.22 6.4" class="st1"/><path d="M204.88 516.38c32.95 4.13 65.4-1.09 96.64-14.45 26.09-11.15 49.2-25.69 68.01-46.82 5.57-6.26 7.76-5.24 11.43 2.02 7.47 14.71 15.96 29.01 27.92 40.68 6.86 6.71 15.21 13.97 25 8.92 17.39-8.97 34.13-19.52 48.37-33.09 7.9-7.54 7.57-16.91 1.8-26.88-8.59-14.83-17.89-30.43-19.19-47.37-2.11-27.44-3.89-55.01-3.39-82.69.74-40.28 1.12-80.63-.09-120.9-.93-30.93-5.41-61.15-19.1-90.09-15.25-32.26-40.3-52.49-71.52-65.85-25.83-11.05-54.18-12.93-81.79-14.11-30.46-1.3-60.63 2.54-90.68 10.27-24.43 6.29-47.7 14.35-70.31 25.03-12.86 6.07-18.05 16.51-13.45 27.42v11.88c1.77 1.54 2.37 3.08 1.84 4.61.52-1.54-.09-3.07-1.84-4.61-4.06 2.37-4.06 4.74 0 7.12.02 4.73.02 9.46.05 14.18 5.29 10.41 12 12.93 23.77 8.16 37.55-15.2 75.74-28.92 117.04-29.27 25.12-.21 50.34-.21 73.87 10.86 4.22 1.99 8.44 4.03 11.01 8.25.66.47 1.35.93 2.02 1.4.65.41 1.24.86 1.86 1.29-.62-.43-1.21-.88-1.86-1.29-1.19 3.58.83 5.5 3.04 8.04 12.45 13.88 18.76 30.67 19.95 49.01 1.02 15.75.07 31.6.64 47.39.31 8.14-1.97 11.08-10.67 10.86-11.34-.26-21.3-6.12-32.12-6.95-28.96-2.23-57.78-5.01-87.1-3.27-31.33 1.85-59.85 9.99-86.89 25.52-35.98 20.68-59.56 52.3-66.42 91.51-6.88 39.28-4.51 79.32 20.52 115.24 25.17 36.15 60.46 52.81 101.64 57.98m163.25-68.03c-3.63 4.13-6.97 8.59-11.03 12.29l-.3.27.3-.27c4.03-3.71 7.4-8.17 11.03-12.29 6.48-7.35 11.6-6.64 15.68 2.21.02.04.04.07.05.11-.02-.04-.04-.07-.05-.11-4.08-8.86-9.21-9.57-15.68-2.21M230.12 296.41c16.98-5.88 34.96-5.41 52.75-5.24 26.54.09 52.73 2.97 78.68 8.94 8.97 2.06 12.55 6.24 12.24 15.44-.78 22.53-.47 45.52-10.67 66.09-18.88 38.05-52.78 55.22-92.89 61.06-20.66 3.01-41.77 4.15-61.34-6.71-16.79-9.32-27.92-22.87-31.83-41.75-10.23-49.53 7.16-81.93 53.06-97.83m224.35 42.77c.2-27.07.44-54.14.43-81.21.01 27.07-.23 54.15-.43 81.21m-83.42-161.3v-.02l-.03-.15.03.15zm102.52 296.3c-9.25 7.33-19.26 13.69-29.06 20.3-14.45 9.75-25.05 8.3-36.15-5.12-.18-.21-.34-.43-.52-.64.17.21.34.43.52.64 11.1 13.43 21.7 14.87 36.15 5.12 9.79-6.62 19.81-13 29.06-20.3 2.24-1.77 4.18-3.64 5.65-5.65-1.47 2.01-3.42 3.87-5.65 5.65M421.69 83.07c.56.67 1.1 1.34 1.65 2.02-.55-.68-1.09-1.36-1.65-2.02m8.35 11.14c1.02 1.52 2 3.07 2.94 4.63-.95-1.56-1.93-3.11-2.94-4.63m-315.5-5.78c3.15-12.07 10.52-19.84 22.02-25.26-11.5 5.44-18.85 13.18-22.02 25.26M95.51 430.45c.19.49.35.99.54 1.48 19.64 50.12 59.94 73.25 111.84 77.71 8.76.75 17.37 1.02 25.82.8-8.46.22-17.07-.05-25.82-.8-51.9-4.44-92.2-27.59-111.84-77.71-.19-.49-.35-.99-.54-1.48" class="st0"/><path d="M136.64 136.96c17.01-7 34.35-12.79 51.85-18.38 16.84-5.38 34.02-10.27 51.19-11.36 31.48-1.99 63.69-4.13 92.72 13.35 2.25 1.38 5.41 1.02 7.85-.88-2.56-4.25-6.78-6.26-11.01-8.25-23.51-11.1-48.75-11.08-73.87-10.86-41.3.36-79.49 14.07-117.04 29.27-11.77 4.77-18.48 2.25-23.77-8.16-5.46 8.61-.81 13.33 6.9 15.39 4.79 1.26 10.79 1.69 15.18-.12" class="st0"/></svg>