<svg xmlns="http://www.w3.org/2000/svg" xml:space="preserve" id="Layer_1" x="0px" y="0px" version="1.1" viewBox="0 0 1198.97 1693"><style>.st1{fill:#2965f0}</style><path d="M601.01 1693h-4c-1.17-1.41-2.98-1.38-4.51-1.81-18.89-5.3-37.81-10.48-56.72-15.73-140.82-39.12-281.64-78.25-422.48-117.29-2.96-.82-4.27-1.83-4.54-5.16-1.89-23.24-4.04-46.45-6.13-69.67-2.86-31.84-5.76-63.69-8.6-95.53-2.81-31.52-5.53-63.04-8.34-94.56-2.84-31.85-5.78-63.68-8.62-95.53-2.82-31.68-5.53-63.37-8.36-95.05-3.17-35.5-6.45-70.98-9.62-106.48-2.84-31.85-5.55-63.71-8.4-95.55-3.49-39.14-7.1-78.28-10.59-117.42-2.84-31.85-5.55-63.71-8.39-95.56-3.17-35.5-6.45-70.98-9.61-106.48s-6.22-71-9.36-106.5c-3.25-36.66-6.45-73.32-9.89-109.96-.84-8.91-.9-17.92-2.85-26.71v-5c2.33-.06 4.66-.16 6.99-.16 394.96-.01 789.91-.01 1184.87-.01 1.17 0 2.35.14 3.5-.03 3.37-.5 3.84 1.14 3.53 4.04-.82 7.61-1.4 15.26-2.09 22.89-4.54 50.25-9.13 100.5-13.61 150.76-3.85 43.13-7.54 86.27-11.4 129.39-4.49 50.26-9.12 100.5-13.61 150.76-4.18 46.78-8.2 93.56-12.38 140.34-4.49 50.26-9.12 100.5-13.61 150.76-4.18 46.78-8.2 93.56-12.38 140.34-5.17 57.89-10.45 115.77-15.65 173.65-4.69 52.25-9.38 104.49-13.89 156.76-.3 3.45-1.43 4.72-4.64 5.61-54.98 15.15-109.91 30.46-164.87 45.69-95.5 26.47-191.01 52.86-286.48 79.42-11.12 3.09-22.5 5.42-33.27 9.78m-1.02-259.78c.01 13.83.02 27.66.02 41.5 0 36.16-.01 72.33.01 108.49 0 5.13.59 5.49 5.52 4.08 3.67-1.05 7.36-2 11.03-3.02 35.15-9.75 70.3-19.52 105.46-29.26 32.12-8.9 64.24-17.77 96.36-26.67 35.31-9.78 70.63-19.57 105.94-29.37 22.37-6.21 44.71-12.49 67.11-18.59 4.07-1.11 5.63-3.3 5.66-7.47.05-5.62.6-11.25 1.11-16.86 1.22-13.51 2.58-27 3.8-40.51.79-8.74 1.38-17.5 2.16-26.24 1.24-14 2.6-28 3.85-42 .78-8.74 1.39-17.5 2.19-26.23 1.22-13.34 2.59-26.66 3.8-40.01.81-8.9 1.37-17.83 2.16-26.74 1.24-14 2.59-28 3.85-42 .76-8.41 1.4-16.83 2.18-25.23 1.24-13.34 2.6-26.66 3.81-40.01.81-8.9 1.37-17.83 2.16-26.74 1.24-14 2.6-28 3.85-42 .78-8.74 1.39-17.5 2.19-26.23 1.23-13.51 2.59-27 3.81-40.5.79-8.74 1.37-17.5 2.15-26.24 1.24-14 2.59-28 3.86-42 .76-8.41 1.39-16.83 2.17-25.23 1.24-13.34 2.61-26.66 3.81-40 .81-8.9 1.36-17.83 2.15-26.74 1.24-14 2.6-28 3.86-42 .76-8.41 1.41-16.83 2.17-25.24 1.25-13.84 2.6-27.66 3.83-41.5.78-8.74 1.21-17.52 2.17-26.23 1.57-14.14 2.86-28.31 3.86-42.5.58-8.26 1.36-16.5 2.13-24.74 1.24-13.17 2.62-26.33 3.82-39.5.82-9.07 1.31-18.17 2.16-27.24 1.54-16.63 3.34-33.24 4.83-49.88 1.18-13.19 1.78-26.44 3.15-39.61 1.92-18.44 3.41-36.9 5.1-55.35.44-4.77-1.24-4.65-4.62-4.65-159.65.04-319.31.06-478.96-.07-4.79 0-5.73 1.53-5.72 5.95.14 48 .08 95.99.07 143.99-2.16.08-4.32.22-6.48.22-121.15.01-242.29.01-363.44.01-1.17 0-2.34.1-3.5-.02-2.54-.25-3.41.45-3.15 3.31 4.34 46.92 8.61 93.85 12.73 140.79.39 4.43 1.56 6.01 6.41 6 116.98-.16 233.96-.13 350.94-.11 2.16 0 4.32.19 6.47.29v153.39c-2.16.1-4.32.29-6.47.29-112.16.01-224.32.01-336.48.01-1.33 0-2.67.08-4-.01-2.22-.16-2.81.7-2.59 2.93 1.06 10.77 1.94 21.56 2.91 32.34 3.26 36.32 6.63 72.63 9.66 108.97.4 4.79 1.88 5.87 6.52 5.87 107.99-.14 215.99-.11 323.98-.1 2.16 0 4.32.16 6.48.25.01 77.28.01 154.56.03 231.84 0 2.5.13 4.99.2 7.49-1.1.48-2.17.48-3.37.15-53.73-14.59-107.47-29.17-161.23-43.66-2.77-.75-4.19-1.91-4.43-4.93-1.32-16.26-2.77-32.51-4.22-48.75-1.9-21.22-3.89-42.43-5.71-63.66-.23-2.68-.95-3.64-3.81-3.64q-71.715.135-143.43 0c-2.95-.01-3.52.82-3.25 3.7 1.56 16.24 2.88 32.5 4.31 48.75 2.44 27.69 4.89 55.38 7.37 83.07 2.85 31.83 5.81 63.65 8.48 95.5.3 3.62 1.47 5.05 4.88 5.99 81.69 22.59 163.35 45.3 245.03 67.95 19.69 5.44 39.42 10.77 59.14 16.16" style="fill:#264de3"/><path d="M682.01 0c.04 20.83-.05 41.66.24 62.49.06 4.12-2.04 3.6-4.57 3.6-32-.02-64-.04-96 .05-1.73 0-4.71-1.34-5.08 1.33-.51 3.7-1.04 7.69.41 11.29.48 1.19 2.78.5 4.24.5 32 .02 64 .08 96-.07 3.84-.02 5 .84 4.98 4.87-.15 47.67-.13 95.33-.03 143 .01 3.38-.76 4.47-4.33 4.46-57.67-.11-115.33-.12-173 .01-3.81.01-4.69-1.04-4.65-4.75.19-20.16.18-40.33.01-60.5-.03-3.56 1.01-4.37 4.44-4.36 32.17.13 64.33-.02 96.5.19 4.3.03 5.2-1.18 5.03-5.21-.33-8.02-.09-8.03-8.11-8.03-31 0-62-.09-93 .1-4.09.02-4.88-1.21-4.87-5.02.13-46.17.09-92.33.07-138.5 0-1.82-.19-3.64-.3-5.46C560.68 0 621.35 0 682.01 0m218 0c.11 21.14.15 42.29.36 63.43.04 3.98-2.69 2.59-4.46 2.6-31.49.07-62.98.02-94.46.11-2.18.01-5.74-1.33-6.35.88-.98 3.56-.63 7.62-.17 11.39.2 1.64 2.61.84 3.99.84 18.99.05 37.99.03 56.98.03 13.49 0 26.99.08 40.48-.06 2.98-.03 4.01.7 4 3.85-.09 48.31-.09 96.63 0 144.94.01 3.04-1.15 3.48-3.79 3.47-57.98-.06-115.96-.08-173.93.03-3.34.01-4.13-1.02-4.11-4.21.13-20.16.17-40.32-.02-60.48-.04-3.8.82-4.94 4.82-4.92 31.99.18 63.98.01 95.96.22 4.26.03 5.24-1.11 5.06-5.19-.34-8.04-.09-8.05-8.1-8.05-30.99 0-61.98-.03-92.96.05-2.99.01-4.8.01-4.78-4.04.15-47.48.1-94.96.11-142.44 0-.81.24-1.62.36-2.44C779.35 0 839.68 0 900.01 0m-436 0c0 23.83-.08 47.66.1 71.49.03 3.67-.77 4.66-4.57 4.64-32.16-.18-64.32-.04-96.48-.18-3.75-.02-5.05.7-5 4.8.23 22.33.19 44.66.02 66.99-.03 3.49.86 4.42 4.38 4.41 32.33-.14 64.65-.02 96.98-.17 3.64-.02 4.72.73 4.68 4.56-.21 22.33-.19 44.66-.01 66.99.03 3.61-.68 4.69-4.54 4.68-57.66-.15-115.31-.15-172.97 0-3.89.01-4.55-1.15-4.55-4.74.11-72.65.08-145.31.08-217.96 0-1.83-.08-3.66-.12-5.49C342.68 0 403.35 0 464.01 0"/><path d="M599.99 1433.22c22.73-6.39 45.44-12.83 68.19-19.15 78.19-21.7 156.38-43.38 234.6-64.97 3.03-.84 4.13-2.06 4.41-5.29 3.74-42.96 7.71-85.9 11.55-128.86 3.17-35.49 6.2-71 9.37-106.49 3.15-35.33 6.42-70.64 9.58-105.96 2.5-27.86 4.87-55.74 7.37-83.6 2.84-31.68 5.78-63.34 8.62-95.02 2.5-27.86 4.88-55.73 7.36-83.6 2.84-31.84 5.75-63.68 8.61-95.52 1.75-19.4 3.42-38.81 5.26-58.21.28-2.97-.7-3.91-3.49-3.58-1.15.14-2.33.02-3.5.02-120.65 0-241.3 0-361.95-.01-2 0-3.99-.11-5.99-.17.01-48 .06-95.99-.07-143.99-.01-4.41.93-5.95 5.72-5.95 159.65.13 319.31.11 478.96.07 3.38 0 5.06-.12 4.62 4.65-1.69 18.45-3.18 36.92-5.1 55.35-1.37 13.17-1.97 26.42-3.15 39.61-1.49 16.64-3.29 33.24-4.83 49.88-.84 9.07-1.33 18.17-2.16 27.24-1.19 13.18-2.57 26.33-3.82 39.5-.78 8.24-1.55 16.48-2.13 24.74-1 14.19-2.29 28.36-3.86 42.5-.97 8.72-1.4 17.49-2.17 26.23-1.23 13.84-2.57 27.67-3.83 41.5-.76 8.41-1.41 16.83-2.17 25.24-1.27 14-2.63 28-3.86 42-.79 8.91-1.34 17.83-2.15 26.74-1.21 13.34-2.58 26.67-3.81 40-.78 8.41-1.41 16.83-2.17 25.23-1.27 14-2.62 28-3.86 42-.78 8.74-1.36 17.5-2.15 26.24-1.22 13.51-2.58 27-3.81 40.5-.79 8.74-1.41 17.49-2.19 26.23-1.25 14-2.62 28-3.85 42-.79 8.91-1.35 17.83-2.16 26.74-1.21 13.34-2.57 26.67-3.81 40.01-.78 8.41-1.42 16.83-2.18 25.23-1.27 14-2.62 28-3.85 42-.79 8.91-1.35 17.83-2.16 26.74-1.21 13.34-2.58 26.67-3.8 40.01-.8 8.74-1.41 17.49-2.19 26.23-1.25 14-2.6 28-3.85 42-.78 8.74-1.37 17.5-2.16 26.24-1.22 13.51-2.58 27-3.8 40.51-.51 5.61-1.06 11.24-1.11 16.86-.04 4.17-1.59 6.36-5.66 7.47-22.4 6.1-44.74 12.38-67.11 18.59-35.31 9.8-70.62 19.59-105.94 29.37-32.12 8.9-64.24 17.77-96.36 26.67-35.15 9.74-70.3 19.51-105.46 29.26-3.67 1.02-7.37 1.97-11.03 3.02-4.93 1.42-5.52 1.05-5.52-4.08-.02-36.16-.01-72.33-.01-108.49.02-13.81.01-27.65.01-41.48" class="st1"/><path d="M599.98 1037.24c5.32-.07 10.65-.19 15.97-.19 54.3-.01 108.59.04 162.89-.1 4.18-.01 5.11.75 4.67 5.19-2.75 27.82-5.04 55.69-7.53 83.54-2.85 31.82-5.67 63.65-8.68 95.46-1.03 10.89-1.28 10.87-11.08 13.52-50.7 13.68-101.41 27.36-152.12 41.03-1.28.35-2.6.58-3.9.87-.07-2.5-.2-4.99-.2-7.49 0-77.27-.01-154.55-.02-231.83m0-303.93c1.66-.08 3.32-.22 4.98-.22 66.61-.01 133.22.04 199.83-.12 4.74-.01 5.78 1.25 5.35 5.81-2.73 28.66-5.2 57.34-7.76 86.01-1.73 19.39-3.52 38.78-5.13 58.18-.23 2.76-.68 4.04-3.94 4.04-63.95-.11-127.89-.09-191.84-.11-.49 0-.99-.13-1.48-.2-.01-51.13-.01-102.26-.01-153.39" class="st1"/></svg>