<svg xmlns="http://www.w3.org/2000/svg" xml:space="preserve" x="0px" y="0px" viewBox="0 0 1198.97 1693"><path d="M1195.36 332.81c-1.15.17-2.33.03-3.5.03-394.96 0-789.91 0-1184.87.01-2.33 0-4.66.1-6.99.16v5c1.95 8.79 2.01 17.8 2.85 26.71 3.44 36.64 6.64 73.3 9.89 109.96 3.14 35.5 6.2 71 9.36 106.5s6.44 70.98 9.61 106.48c2.84 31.85 5.55 63.71 8.39 95.56 3.49 39.14 7.1 78.28 10.59 117.42 2.85 31.84 5.56 63.7 8.4 95.55 3.17 35.5 6.45 70.98 9.62 106.48 2.83 31.68 5.54 63.37 8.36 95.05 2.84 31.85 5.78 63.68 8.62 95.53 2.81 31.52 5.53 63.04 8.34 94.56 2.84 31.84 5.74 63.69 8.6 95.53 2.09 23.22 4.24 46.43 6.13 69.67.27 3.33 1.58 4.34 4.54 5.16 140.84 39.04 281.66 78.17 422.48 117.29 18.91 5.25 37.83 10.43 56.72 15.73 1.53.43 3.34.4 4.51 1.81h4c10.77-4.36 22.15-6.69 33.27-9.78 95.47-26.56 190.98-52.95 286.48-79.42 54.96-15.23 109.89-30.54 164.87-45.69 3.21-.89 4.34-2.16 4.64-5.61 4.51-52.27 9.2-104.51 13.89-156.76 5.2-57.88 10.48-115.76 15.65-173.65 4.18-46.78 8.2-93.56 12.38-140.34 4.49-50.26 9.12-100.5 13.61-150.76 4.18-46.78 8.2-93.56 12.38-140.34 4.49-50.26 9.12-100.5 13.61-150.76 3.86-43.12 7.55-86.26 11.4-129.39 4.48-50.26 9.07-100.51 13.61-150.76.69-7.63 1.27-15.28 2.09-22.89.31-2.9-.16-4.54-3.53-4.04M540.85 1417.06c-81.68-22.65-163.34-45.36-245.03-67.95-3.41-.94-4.58-2.37-4.88-5.99-2.67-31.85-5.63-63.67-8.48-95.5-2.48-27.69-4.93-55.38-7.37-83.07-1.43-16.25-2.75-32.51-4.31-48.75-.27-2.88.3-3.71 3.25-3.7q71.715.135 143.43 0c2.86 0 3.58.96 3.81 3.64 1.82 21.23 3.81 42.44 5.71 63.66 1.45 16.24 2.9 32.49 4.22 48.75.24 3.02 1.66 4.18 4.43 4.93 53.76 14.49 107.5 29.07 161.23 43.66 1.2.33 2.27.33 3.37-.15v-.04c1.29-.29 2.6-.52 3.87-.86 50.71-13.67 101.42-27.35 152.12-41.03 9.8-2.65 10.05-2.63 11.08-13.52 3.01-31.81 5.83-63.64 8.68-95.46 2.49-27.85 4.78-55.72 7.53-83.54.44-4.44-.49-5.2-4.67-5.19-54.3.14-108.59.09-162.89.1-5.32 0-10.65.12-15.97.19v.02c-2.15-.09-4.31-.25-6.46-.25-107.99-.01-215.99-.04-323.98.1-4.64 0-6.12-1.08-6.52-5.87-3.03-36.34-6.4-72.65-9.66-108.97-.97-10.78-1.85-21.57-2.91-32.34-.22-2.23.37-3.09 2.59-2.93 1.33.09 2.67.01 4 .01 112.16 0 224.32 0 336.48-.01 2.15 0 4.31-.19 6.47-.29v-.01c.49.07.99.2 1.48.2 63.95.02 127.89 0 191.84.11 3.26 0 3.71-1.28 3.94-4.04 1.61-19.4 3.4-38.79 5.13-58.18 2.56-28.67 5.03-57.35 7.76-86.01.43-4.56-.61-5.82-5.35-5.81-66.61.16-133.22.11-199.83.12-1.66 0-3.32.14-4.98.22v.01c-2.15-.1-4.3-.29-6.46-.29-116.98-.02-233.96-.05-350.94.11-4.85.01-6.02-1.57-6.41-6-4.12-46.94-8.39-93.87-12.73-140.79-.26-2.86.61-3.56 3.15-3.31 1.16.12 2.33.02 3.5.02 121.15 0 242.29 0 363.44-.01 2.16 0 4.32-.14 6.48-.22v-.02c1.99.06 3.97.17 5.96.17 120.65.02 241.3.02 361.95.02 1.17 0 2.35.12 3.5-.02 2.79-.33 3.77.61 3.49 3.58-1.84 19.4-3.51 38.81-5.26 58.21-2.86 31.84-5.77 63.68-8.61 95.52-2.48 27.87-4.86 55.74-7.36 83.6-2.84 31.68-5.78 63.34-8.62 95.02-2.5 27.86-4.87 55.74-7.37 83.6-3.16 35.32-6.43 70.63-9.58 105.96-3.17 35.49-6.2 71-9.37 106.49-3.84 42.96-7.81 85.9-11.55 128.86-.28 3.23-1.38 4.45-4.41 5.29-78.22 21.59-156.41 43.27-234.6 64.97-22.75 6.32-45.46 12.76-68.19 19.15-19.72-5.4-39.45-10.72-59.14-16.17m60.08 170.65c.04.03.09.05.14.07-.05-.02-.1-.04-.14-.07M500.22 143.95c-.01 3.81.78 5.04 4.87 5.02 31-.19 62-.1 93-.1 8.02 0 7.78.01 8.11 8.03.17 4.03-.73 5.24-5.03 5.21-32.17-.21-64.33-.06-96.5-.19-3.43-.01-4.47.8-4.44 4.36.17 20.17.18 40.34-.01 60.5-.04 3.71.84 4.76 4.65 4.75 57.67-.13 115.33-.12 173-.01 3.57.01 4.34-1.08 4.33-4.46-.1-47.67-.12-95.33.03-143 .02-4.03-1.14-4.89-4.98-4.87-32 .15-64 .09-96 .07-1.46 0-3.76.69-4.24-.5-1.45-3.6-.92-7.59-.41-11.29.37-2.67 3.35-1.33 5.08-1.33 32-.09 64-.07 96-.05 2.53 0 4.63.52 4.57-3.6-.29-20.83-.2-41.66-.24-62.49-60.66 0-121.33 0-182.02-.01.11 1.82.3 3.64.3 5.46.02 46.18.06 92.34-.07 138.5m319.09 18.18c-31.98-.21-63.97-.04-95.96-.22-4-.02-4.86 1.12-4.82 4.92.19 20.16.15 40.32.02 60.48-.02 3.19.77 4.22 4.11 4.21 57.97-.11 115.95-.09 173.93-.03 2.64.01 3.8-.43 3.79-3.47-.09-48.31-.09-96.63 0-144.94.01-3.15-1.02-3.88-4-3.85-13.49.14-26.99.06-40.48.06-18.99 0-37.99.02-56.98-.03-1.38 0-3.79.8-3.99-.84-.46-3.77-.81-7.83.17-11.39.61-2.21 4.17-.87 6.35-.88 31.48-.09 62.97-.04 94.46-.11 1.77-.01 4.5 1.38 4.46-2.6-.21-21.14-.25-42.29-.36-63.43-60.33 0-120.66 0-181.01.01-.12.82-.36 1.63-.36 2.44-.01 47.48.04 94.96-.11 142.44-.02 4.05 1.79 4.05 4.78 4.04 30.98-.08 61.97-.05 92.96-.05 8.01 0 7.76.01 8.1 8.05.18 4.08-.8 5.21-5.06 5.19m-537.26 61.35c0 3.59.66 4.75 4.55 4.74 57.66-.15 115.31-.15 172.97 0 3.86.01 4.57-1.07 4.54-4.68-.18-22.33-.2-44.66.01-66.99.04-3.83-1.04-4.58-4.68-4.56-32.33.15-64.65.03-96.98.17-3.52.01-4.41-.92-4.38-4.41.17-22.33.21-44.66-.02-66.99-.05-4.1 1.25-4.82 5-4.8 32.16.14 64.32 0 96.48.18 3.8.02 4.6-.97 4.57-4.64-.18-23.83-.1-47.66-.1-71.49-60.66 0-121.33 0-182 .02.04 1.83.12 3.66.12 5.49 0 72.64.03 145.3-.08 217.96" style="fill:#fff"/></svg>