<svg xmlns="http://www.w3.org/2000/svg" xml:space="preserve" id="Layer_1" x="0px" y="0px" version="1.1" viewBox="0 0 800.29 762.34"><style>.st0{fill:#fff}</style><path d="M407.48 762.34c-106.75-1.69-195.63-31.88-271.86-95.75C66.91 609.03 22.73 536.01 6.53 447.64-12.08 346.16 9.22 252.42 68.7 168.31c58.46-82.67 138.76-133.75 236.88-157.3C339.23 2.94 373.44-.89 407.99.17 519.05 3.6 615.14 42.9 693.52 122.38c51.47 52.2 84.55 114.75 99.3 186.67 7.16 34.91 9.57 70.24 5.48 105.75-15.72 136.27-86.8 234.82-205.87 300.06-41.59 22.79-86.53 36.4-133.45 42.9-19.57 2.72-39.41 3.55-51.5 4.58m70.37-484.17v-6.8c0-54.49.01-108.98-.01-163.48-.01-11.74-6.17-17.85-17.87-17.86-29-.02-57.99-.01-86.99 0-12.26 0-18.01 5.73-18.02 18.02-.03 23.5-.01 46.99-.01 70.49v5.56h-6.69c-52.66 0-105.32.25-157.98-.17-13.7-.11-20.03 7.62-19.84 19.73.37 22.99.11 45.99.1 68.99 0 1.75-.15 3.49-.24 5.53H97.31c-13 0-18.86 5.88-18.87 18.95-.01 23.16 0 46.33 0 69.49v5.64c-5.36 0-10-.1-14.64.02-9.27.23-15.74 6.56-15.8 15.81-.26 36.66 3.6 72.81 14.32 108 15.43 50.64 43.35 92.26 88.71 120.92 41.16 26.01 86.87 36.42 134.9 37.68 45.27 1.19 89.73-4.83 133-18.3 109.59-34.12 193.2-101.25 252.28-199.4 1.27-2.1 3.85-4.36 6.13-4.76 43.5-7.7 77.96-29.6 103.63-65.42 6.49-9.06 4.53-18.45-4.98-24.33-24.79-15.32-51.75-23.34-80.95-23.27-3.87.01-5.32-1.17-6.53-4.77-8.83-26.34-24.41-47.89-46.7-64.51-9.08-6.77-17.7-5.34-23.92 3.95-20.04 29.94-26.75 62.67-20.19 98.09 1.59 8.57-2.61 16.95-10.42 18.39-5.54 1.02-11.42.2-17.34.2 0-25.07.03-49.89-.01-74.72-.02-11.35-6.34-17.65-17.63-17.66-22.83-.02-45.66-.01-68.49-.01z" class="st0"/><path d="M201.72 215.89h60.7v61.99h-60.7zm152.95-.01v62.01h-60.83v-62.01zm-92.18 94.26v61.83h-60.84v-61.83zm31.28-.04h60.83v61.74h-60.83zm92.39-188.48h60.53v62.15h-60.53zm-.01 94.39h60.64v61.83h-60.64zm-215.92 94.08v61.8h-60.64v-61.8zm276.52 61.94h-60.54v-61.92h60.54zm92.21-61.94v61.75h-60.7v-61.75zM170.87 497.86c0-17.54 13.68-31.46 30.8-31.33 16.77.13 30.44 14.21 30.43 31.34-.01 17.36-13.85 31.35-30.94 31.28-16.91-.09-30.29-13.91-30.29-31.29" class="st0"/></svg>