<svg xmlns="http://www.w3.org/2000/svg" xml:space="preserve" id="Layer_1" x="0px" y="0px" version="1.1" viewBox="0 0 305.76 479.9"><style>.st0{fill:#fff}.st1{fill:#e5e5e5}</style><path d="M153.04 21.42c6.16-.09 12.32-.23 18.48-.24 18.16-.03 36.32.13 54.47-.05 18.51-.18 35.39 4.57 50.1 16.01 13.93 10.83 23.35 24.77 27.43 42 1.21 5.1 1.6 10.43 1.93 15.69 1.19 18.88-4.53 35.63-16.17 50.39-11.19 14.19-25.88 22.95-43.32 27.21-3.24.79-6.6 1.12-9.9 1.65-4.37.09-8.74.19-13.11.28-1.65-.08-3.3-.17-4.95-.25-1.08-.02-2.16-.07-3.24-.07-20.57-.02-41.14-.03-61.71-.04-.01-9.24-.04-18.48-.04-27.72z" class="st0"/><path d="M153.04 21.42c-.01 41.62-.03 83.23-.03 124.85 0 9.24.02 18.48.04 27.72l-.01.08c-.18.01-.36.02-.54.04-12.3-.02-24.59-.07-36.89-.07-13.54 0-27.08.05-40.63.07l-2.05.36c-1-.13-2-.26-3-.38-4.36-.86-8.82-1.38-13.07-2.63-26.79-7.86-44.57-25.12-53.36-51.63C.97 112.19-.26 104.31.05 96.31c.7-18.5 6.85-35.01 19.16-48.99 11.72-13.31 26.35-21.68 43.85-24.79 4.29-.76 8.69-1.24 13.04-1.26 25.07-.12 50.15-.06 75.22-.05.58 0 1.15.13 1.72.2" class="st1"/><path d="M69.94 174.07c1 .13 2 .26 3 .38l2.05-.36c13.54-.03 27.08-.07 40.63-.07 12.3 0 24.59.04 36.89.07l.45.39c.03 1.33.07 2.66.07 4 .03 20.16.05 40.32.08 60.49l-.03 4.45c0 4.7.01 9.4.01 14.1l.03 4.48c-.03 20.26-.05 40.51-.08 60.77 0 1.24-.05 2.49-.08 3.73-.15.13-.29.26-.44.38-11.63.02-23.26.07-34.89.07-14.04 0-28.08-.05-42.12-.07l-2.48.03c-.81.05-1.62.1-2.43.14-3.64-.69-7.33-1.15-10.9-2.09-30.87-8.15-50.3-27.69-57.68-58.81-1.28-5.41-2.04-11.13-1.88-16.66.56-18.83 6.82-35.64 19.47-49.79 11.03-12.34 24.72-20.32 40.91-23.91 3.1-.69 6.27-1.15 9.42-1.72" class="st0"/><path d="M70.58 327.06c.81-.05 1.62-.1 2.43-.14l2.48-.03c14.04.03 28.08.07 42.12.07 11.63 0 23.26-.04 34.89-.07.14.08.29.11.44.11.03 8.41.08 16.83.09 25.24.01 17.16.07 34.33-.01 51.49-.17 35.55-24.45 66.08-59.47 74.08-6.51 1.49-13.41 2.36-20.05 2.01-17.72-.93-33.63-7.11-47.08-18.94-13.25-11.66-21.68-26.19-24.83-43.57-1.04-5.72-1.85-11.67-1.46-17.43 1.42-21.13 9.73-39.21 25.61-53.5 11.55-10.4 25.13-16.54 40.48-18.81 1.46-.21 2.91-.34 4.36-.51m82.5-69.54c0-4.7-.01-9.4-.01-14.1l.81-4.44c2.87-17.21 10.44-31.97 23.15-43.98 11.69-11.05 25.53-17.75 41.44-20.13 1.49-.17 2.98-.35 4.47-.52 4.37-.09 8.74-.19 13.11-.28 3.86.8 7.73 1.6 11.59 2.39 11.77 2.42 22.03 7.94 31.09 15.62 13.11 11.11 21.86 25.06 25.32 41.95 8.96 43.83-18.24 81.21-56.07 90.54-7.7 1.9-15.47 2.99-23.33 2.35-35.73-2.92-62.61-27.79-69.73-59.85-.37-1.69-.69-3.39-1.04-5.08-.26-1.48-.53-2.97-.8-4.47" class="st1"/><path d="m153.08 257.52.81 4.48h-.78zm-.14 69.48c-.16 0-.3-.04-.44-.11l.44-.38zm65.54-152.13c-.16-.26-.32-.52-.47-.77 1.65.08 3.3.17 4.95.25-1.5.17-2.99.35-4.48.52m-143.49-.77-2.05.36c.68-.12 1.36-.24 2.05-.36m78.05-.04c.01.15-.02.3-.09.43l-.45-.39c.18-.02.36-.03.54-.04m.06 64.91c.26 0 .52.01.78.01l-.81 4.44zm-77.61 87.91-2.48.03z" class="st0"/></svg>