<svg xmlns="http://www.w3.org/2000/svg" xml:space="preserve" x="0px" y="0px" viewBox="0 0 258.33 320.83"><path d="M164.45 107.21c1.98-.35 2.91-2.08 4.16-3.32a5897 5897 0 0 0 31.66-31.61c2.47-2.49 5.21-4.21 8.72-2.95 3.23 1.16 4.34 3.94 4.87 7.26 4.19 25.97 8.52 51.91 12.76 77.88 4.94 30.26 9.73 60.55 14.77 90.79 1.71 10.3 1.96 10.26-7.01 15.22-30.79 17.02-61.64 33.95-92.35 51.11-8.72 4.87-16.9 5.06-25.69.11-32.08-18.06-64.29-35.89-96.47-53.77-2.71-1.51-5.31-2.87-2.96-6.58 2.07 3.51 3.06-.04 3.89-.85 23.56-22.97 46.29-46.77 70.2-69.4 14.39-13.62 28.14-27.93 42.11-42 10.51-10.57 20.9-21.25 31.34-31.89" style="fill:#ffc80c"/><path d="M164.45 107.21c-10.44 10.63-20.83 21.31-31.33 31.89-13.97 14.07-27.72 28.38-42.11 42-23.91 22.63-46.64 46.43-70.2 69.4-.83.81-1.82 4.36-3.89.85 2.75-18.29 5.43-36.59 8.27-54.87 4.16-26.69 8.45-53.37 12.66-80.05 4.61-29.19 9.21-58.38 13.82-87.57.82-5.19 1.79-10.37 2.44-15.58.47-3.78 1.84-6.76 5.8-7.59 4.3-.9 6.65 1.68 8.53 5.17 12.03 22.38 24.12 44.72 36.2 67.06.76 1.41 1.64 2.75 2.92 4.87 4.99-9.48 9.69-18.42 14.42-27.35 1.01-1.91 1.93-3.92 3.86-5.18 3.99-2.61 7.89-1.07 10.86 4.52 9.29 17.46 18.51 34.95 27.75 52.43" style="fill:#f99e1d"/></svg>