<svg xmlns="http://www.w3.org/2000/svg" xml:space="preserve" x="0px" y="0px" viewBox="0 0 409.24 401.81"><path d="M203.33 0h13c7.49 2.8 12.94 8.26 18.44 13.77 51.65 51.75 103.35 103.46 155.12 155.1 5.33 5.32 10.25 10.74 12.44 18.13v11c-3.59 8.9-10.77 14.92-17.3 21.45-50.15 50.16-100.33 100.29-150.42 150.5-5.4 5.41-10.79 10.65-18.28 13.05h-11c-4-2.54-8.54-4.52-11.92-7.71-11.25-10.65-22.11-21.71-33.07-32.67-40.54-40.52-81.08-81.05-121.59-121.6-7.11-7.12-14.98-13.63-19.43-23.01v-14c4.95-10.07 13.64-16.95 21.31-24.65 32.1-32.23 64.31-64.37 96.48-96.53 1.27-1.27 2.6-2.48 4.19-4 14.06 14.06 27.98 27.91 41.72 41.93.9.92.85 3.32.48 4.85-3.28 13.42 1.67 26.38 13.32 33.14 2.92 1.69 3.74 3.44 3.73 6.61-.11 32-.11 63.99 0 95.99.01 3.37-.92 5.22-3.99 7.01-11.46 6.68-16.54 19.96-13.06 32.74 3.2 11.72 14.41 20.71 26.27 21.08 14 .43 25.38-7.25 29.57-19.97 4.04-12.26-.42-25.73-11.28-32.98-2.67-1.78-3.69-3.54-3.68-6.78.13-31.66.08-63.32.09-94.99 0-1.25.11-2.49.2-4.61 1.85 1.72 3.07 2.77 4.2 3.91 10.5 10.48 20.9 21.06 31.52 31.4 2.75 2.68 3.7 4.88 2.64 8.94-4.71 17.98 10.53 36.52 28.92 35.69 17.5-.79 30.3-15.71 28.32-33.05-1.88-16.55-17.76-27.97-34.74-24.7-3.22.62-5.13-.16-7.32-2.38-11.91-12.12-23.94-24.13-36.04-36.07-2.08-2.05-2.77-3.75-2.13-6.88 3.69-18.25-9.83-36.12-28.03-34.64-9.83.8-14.71-3.37-20.36-9.2-9.86-10.17-19.99-20.07-30-30.1-1.15-1.15-2.24-2.37-3.84-4.08C173.73 28.28 185.36 10.76 203.33 0" style="fill:#fff"/></svg>