<svg xmlns="http://www.w3.org/2000/svg" xml:space="preserve" id="Layer_1" x="0px" y="0px" version="1.1" viewBox="0 0 24 24"><style>.st0{fill:#fff}</style><g id="m3yZiO_00000016771823485516069350000008677767889776950185_"><path d="M14.4 17.47c.62-.14 1.23-.24 1.81-.41 2.03-.6 3.15-2 3.41-4.07.08-.67.1-1.36.04-2.03-.07-.84-.44-1.59-1-2.23-.11-.13-.13-.23-.08-.39.28-.92.19-1.82-.13-2.71-.06-.16-.15-.19-.29-.19-.56.01-1.08.18-1.58.42-.43.21-.84.47-1.27.7-.08.04-.21.07-.31.04-1.84-.45-3.69-.45-5.53 0a.56.56 0 0 1-.38-.07c-.77-.48-1.56-.92-2.47-1.07-.02 0-.04-.01-.05-.01-.48-.07-.53-.04-.67.42-.25.84-.29 1.68-.03 2.53.02.08 0 .2-.05.26-1.05 1.22-1.25 2.65-1.02 4.17.07.53.2 1.07.39 1.57.6 1.55 1.82 2.37 3.37 2.77.48.12.96.2 1.48.3-.39.42-.6.91-.7 1.46-.01.06-.1.12-.17.15-1.32.56-2.49.19-3.26-1.02-.38-.6-.87-1.04-1.59-1.18-.18-.04-.39-.01-.58.02-.21.04-.22.19-.09.33.09.1.2.2.31.27.63.38 1.03.94 1.29 1.6.44 1.08 1.28 1.56 2.38 1.64.53.04 1.07-.03 1.64-.06 0 .03.01.11.01.19.01.61.01 1.21.01 1.82 0 .56-.35.81-.88.64-1.35-.45-2.58-1.11-3.67-2.03-3-2.52-4.47-5.75-4.28-9.66.28-5.17 3.94-9.48 9-10.7 6-1.44 12.1 1.96 13.98 7.81 1.94 6.02-1.38 12.56-7.37 14.57-.58.19-.93-.05-.93-.66 0-1.03.01-2.05.01-3.08 0-.78-.17-1.51-.75-2.11" class="st0"/><path d="M9.25 19.6c-.11.05-.22.12-.33.13-.06 0-.13-.11-.2-.17.1-.06.19-.15.29-.17.07-.01.16.07.24.12zm-.89.12c-.09.05-.19.14-.27.12-.09-.01-.18-.11-.26-.18.08-.05.17-.15.25-.15.09-.01.18.07.27.11.01.03.01.06.01.1m-1.21.05-.27-.27c.06-.05.15-.15.18-.14.11.05.21.14.31.21-.06.05-.12.11-.22.2m-.52-.69c-.14.09-.22.18-.25.17A1 1 0 0 1 6.1 19c-.01-.01.1-.16.12-.15.12.05.23.13.41.23m-.64-.65c-.11.08-.2.16-.22.15a.64.64 0 0 1-.22-.24c-.01-.02.08-.11.12-.16zm-.48-.63c-.12.07-.2.14-.22.13-.08-.06-.15-.14-.21-.22-.01-.01.09-.13.09-.12.11.04.2.1.34.21" class="st0"/></g></svg>