<svg xmlns="http://www.w3.org/2000/svg" xml:space="preserve" x="0px" y="0px" viewBox="0 0 204.99 220.29"><path d="M186.87 110.68c0 7.17.09 14.33-.05 21.49-.05 2.61.56 4.17 3.19 5.33 7.51 3.31 11.69 9.11 11.81 17.51.12 8.08-3.25 14.29-10.56 17.8-7.53 3.62-14.93 3.04-21.47-2.45-1.77-1.48-2.93-1.43-4.75-.37-13.08 7.64-26.13 15.33-39.37 22.67-3.2 1.77-2.17 3.98-2.05 6.32.58 10.9-6.34 19.48-17.03 21.1-9.84 1.49-19.2-5.01-21.63-15.05-.19-.8-.56-1.71-.36-2.44 1.95-7.17-2.82-9.71-7.99-12.55-11.09-6.08-21.96-12.54-32.88-18.93-2.32-1.36-3.96-1.83-6.58.09-9.4 6.9-22.38 4.12-28.21-5.66-5.89-9.86-2.29-22.6 8.28-27.61 3.33-1.58 4.19-3.34 4.15-6.72-.16-14-.15-27.99-.01-41.99.03-3.32-.61-5.25-4.09-6.77-7.58-3.31-11.36-9.77-11.12-17.96.25-8.35 4.25-15.04 12.37-17.61 6.16-1.94 12.99-2.54 18.58 2.2 2.39 2.03 4.12 1.72 6.57.28 12.48-7.34 25.01-14.6 37.61-21.72 2.65-1.5 3.57-3.07 3.37-6.25C83.91 9.43 92.62.03 104.03 0c11.39-.04 20.18 9.4 19.48 21.31-.18 3.07.48 4.76 3.23 6.31 12.77 7.17 25.44 14.52 38.05 21.96 2.37 1.4 3.85 1.15 6.13-.39 9.15-6.19 22.65-4.4 28.39 5.65 5.8 10.16 2.01 22.9-8.84 27.8-2.99 1.35-3.76 2.99-3.68 6.02.21 7.35.08 14.69.08 22.02m-83.14 40.03c18.31 0 36.62.01 54.93 0 6.19 0 10.9-8.35 7.78-13.75-18.04-31.24-36.08-62.48-54.1-93.73-3.53-6.11-12.86-6.24-16.37-.17-17.38 30.08-34.66 60.23-52.22 90.21-2.87 4.89-4.71 8.71-.48 13.98 1.87 2.34 3.04 3.54 6.02 3.52 18.16-.12 36.3-.06 54.44-.06m-58.82 9.73c.52.59.75 1.03 1.11 1.24 13.8 8 27.63 15.94 41.38 24.01 1.95 1.15 3.15.69 4.85-.46 7.93-5.38 16.19-5.5 23.59 0 2.53 1.88 4.2 1.59 6.6.17 11.02-6.5 22.13-12.84 33.19-19.26 2.67-1.55 5.3-3.18 7.95-4.77-.1-.31-.2-.62-.29-.93zm-14.37-24.66c.35.08.71.16 1.06.25 19.58-33.93 39.17-67.86 58.75-101.8-15.19 7.64-29.54 15.96-43.94 24.22-1.38.79-1.73 1.68-1.54 3.22 1.31 10.18-2.76 17.42-12.18 21.51-1.61.7-2.21 1.58-2.2 3.33.07 16.42.05 32.85.05 49.27m88.07-102.16c-.22.27-.44.54-.66.8 19.57 33.89 39.15 67.78 58.72 101.67.98-16.92.94-33.51 1.02-50.09.01-2.38-1.75-2.48-3.15-3.17-7.6-3.73-12.69-11.2-11.54-18.7.62-4.05-.69-5.79-3.92-7.2-1.52-.66-2.9-1.62-4.34-2.45-12.04-6.95-24.08-13.9-36.13-20.86" style="fill:#fff"/></svg>