<svg xmlns="http://www.w3.org/2000/svg" xml:space="preserve" x="0px" y="0px" viewBox="0 0 159.32 225.01"><path d="M78.17 225.01c-16.02-5.4-32.53-9.1-48.73-13.89-4.93-1.46-9.9-2.76-14.96-4.17C9.65 152.74 4.84 98.75 0 44.45h159.32c-4.8 53.99-9.6 107.91-14.45 162.41-10.82 3.02-21.83 5.99-32.77 9.16-10.31 2.99-20.88 5.12-30.93 8.99zm-20.82-61.96c-.46-4.49-.97-9.57-1.5-14.79H36c.91 10.39 1.79 20.44 2.7 30.79 13.31 3.7 26.41 7.36 39.52 10.97.77.21 1.68.3 2.43.1 13.27-3.59 26.52-7.23 39.88-10.89l5.49-61.41H53.28c-.28-6.93-1.81-13.26-1.31-20.29h75.79c.62-6.85 1.19-13.19 1.79-19.82H29.61c1.84 20.24 3.63 40.03 5.47 60.27h69.06c-.81 8.78-1.58 17.03-2.31 24.93-14.83 7.4-29.52 7.59-44.48.14M115.17.01v29.95h-9.97v-14.4c-2.63 3.93-4.6 6.87-6.94 10.35-2.27-3.31-4.33-6.32-7.04-10.28v14.33H81.17V.02h11c1.44 3.8 3.74 7.04 6.49 10.82 1.5-4.28 4.89-6.78 5.51-10.82 3.67-.01 7.33-.01 11-.01m-71 0V29.8h-9.62c-1-2.83.08-6.2-.6-9.53h-8.84v9.65h-9.94V.01h10v9.72h9V.01zm33 0c-1.08 3.05.02 6.27-.75 9.83h-8.57v20H57.9V10.02h-8.5c-1.19-3.51.66-6.98-1.23-10.01zm54 0c-2.06 6.48-.02 13.1-1.06 19.73 4.89 1.33 9.57.06 14.4.92v9.13h-24.34V0c3.67.01 7.33.01 11 .01" style="fill:#fff"/></svg>