<svg xmlns="http://www.w3.org/2000/svg" xml:space="preserve" id="Layer_1" x="0px" y="0px" version="1.1" viewBox="0 0 1200 1170"><style>.st0{fill:#fff}</style><path d="M0 975V195c1.86-4.64 1.55-9.63 2.32-14.45 6.61-41.26 23.35-77.83 51.21-109.02C85.6 35.62 125.37 13.05 172.7 3.77 180.11 2.32 187.75 2.32 195 0h808c.26.76.87.84 1.56.89 29.47 1.98 57.3 9.96 83.07 24.22 58.73 32.5 95.08 81.71 108.49 147.61 1.57 7.71 2.6 15.52 3.88 23.28v779c-1.02.35-.89 1.24-.96 2.04-1.12 12.96-3.15 25.8-7.09 38.18-26.76 84.11-83.38 134.88-170.09 151.96-5.93 1.17-12.08.79-17.85 2.82h-809c-.35-1.02-1.24-.89-2.04-.96-35.27-3.26-67.89-14.35-97.28-34.09-49.44-33.21-80.13-79.14-91.93-137.64C2.26 989.89 2.3 982.25 0 975m680.54-150.38c11.5 0 22.99.01 34.49 0 6 0 12 .14 17.99-.11 5.5-.23 6.95-2.54 5.46-7.9-.31-1.12-.77-2.2-1.16-3.3-10.15-28.69-20.28-57.39-30.44-86.08-50.04-141.24-100.1-282.47-150.05-423.75-1.54-4.36-4-6.03-8.4-6.03-41.99.05-83.98.04-125.97.01-4.6 0-6.59 2.03-6.51 6.71.3 18.03-3.54 35.28-9.45 52.26C353.69 508.16 301 659.92 248.3 811.68c-.71 2.03-1.31 4.14-1.64 6.26-.59 3.76.89 6.17 4.96 6.44 1.83.12 3.66.23 5.49.23 28.83.01 57.65.01 86.48.01 8.85 0 10.57-1.27 13.28-9.66 11.8-36.56 23.66-73.1 35.31-109.7 1.24-3.9 2.81-5.38 7.16-5.37 58.49.17 116.97.17 175.46.01 4.04-.01 5.72 1.18 7.01 4.96 12.58 37 25.37 73.93 38.1 110.89 2.75 7.97 3.95 8.88 12.15 8.88 16.15-.01 32.31-.01 48.48-.01M906 627.08V436.67c0-8.25-1.38-9.66-9.46-9.66-30.65-.01-61.31 0-91.96 0-9.77 0-10.58.8-10.58 10.44v377.83c0 1.5-.07 3.01.05 4.5.36 4.46 2.66 7.19 7.29 7.2 32.65.05 65.3.03 97.95.04 4.05 0 6.15-2.16 6.58-6.01.2-1.81.12-3.66.12-5.49.01-62.83.01-125.64.01-188.44m-53.48-367.52c-34.79-1.33-62.92 24.55-64.04 59.35-1.25 38.81 23.48 63.53 56.44 66.01 46.08 3.47 66.86-30.7 68-57.88 1.71-40.71-21.02-65.97-60.4-67.48" class="st0"/><path d="m486.13 390.4-1.1-.09c-1.54 6.62-2.87 13.29-4.65 19.84-16.77 61.78-36.45 122.68-55.84 183.67-1.28 4.03-.78 4.9 3.48 4.88 29.31-.16 58.63-.09 87.95-.09 10.16 0 20.32-.07 30.48.04 2.71.03 3.59-.55 2.61-3.38-1.74-5.02-3.11-10.17-4.76-15.23-15.85-48.51-31.07-97.22-45.87-146.06-4.37-14.44-8.22-29.05-12.3-43.58" class="st0"/><path d="M486.13 390.4c4.09 14.54 7.93 29.15 12.31 43.59 14.8 48.84 30.02 97.55 45.87 146.06 1.65 5.06 3.02 10.2 4.76 15.23.98 2.83.1 3.41-2.61 3.38-10.16-.11-20.32-.04-30.48-.04-29.32 0-58.63-.08-87.95.09-4.27.02-4.76-.85-3.48-4.88 19.39-60.99 39.06-121.89 55.84-183.67 1.78-6.55 3.11-13.23 4.65-19.84.35.02.72.05 1.09.08" class="st0"/></svg>