<svg xmlns="http://www.w3.org/2000/svg" xml:space="preserve" id="Layer_1" x="0px" y="0px" version="1.1" viewBox="0 0 449.97 504.23"><style>.st0{fill:#3fb34a}.st2{fill:#249547}.st3{fill:#2ba049}</style><g id="Tce6EO.tif"><path d="M230.98 503.94h-3c-.38-2.86-2.1-5.15-3.45-7.57-15.55-27.84-31.19-55.64-46.73-83.49-23.4-41.93-46.72-83.9-70.14-125.83-7.45-13.34-15.08-26.59-22.63-39.87-1.73-3.36-3.37-6.77-5.21-10.07-22.29-40-44.6-79.99-66.91-119.99.86-1.57 2.56-2.01 3.97-2.81 13.51-7.7 27.05-15.35 40.57-23.03C108.5 62.31 159.56 33.33 210.61 4.35c6.36-3.61 12.99-5.66 20.34-3.18.81 1.62 1.46 3.33 2.46 4.83 6.05 9.11 7.67 19.1 7.66 29.88-.16 151.03-.11 302.06-.1 453.09 0 2.76-.41 5.59 1.03 8.19-2.47 4.16-7.5 4.28-11.02 6.78" class="st0"/><path d="M85.04 247.18c7.55 13.29 15.18 26.53 22.63 39.87 23.41 41.92 46.73 83.9 70.14 125.83 15.54 27.85 31.18 55.65 46.73 83.49 1.35 2.42 3.07 4.71 3.45 7.57h-9c-2.27-1.15-4.6-2.21-6.81-3.47-66.62-37.75-133.22-75.52-199.82-113.29-3.05-1.73-5.88-3.7-7.24-7.11 1.13-1.61 2.36-3.17 3.36-4.85 12.66-21.34 25.35-42.67 37.89-64.08 8.62-14.73 17.97-29.06 25.7-44.29 1.43-.71 1.89-2.15 2.71-3.33 3.7-5.28 5.74-11.56 10.26-16.34m358.55-124.95c2.77 3.14 5.02 6.53 5.32 10.84-.01 76.98-.03 153.96-.03 230.94 0 1.76-.42 3.64 1 5.15v2.95c-3.61 9.86-11.71 15.02-20.52 19.83-19.94 10.89-39.64 22.2-59.44 33.34-.39-3.07-1.07-6.08-1.06-9.24.07-55.88-.06-170.27.13-171.55.41-2.64 1.68-4.16 4.3-2.01 1.29 1.06 2.15 1.55 3.05-.18 5.12-9.89 11.73-19.02 15.57-29.55 1.26-.64 1.85-1.82 2.49-2.98 12.32-22.26 24.6-44.55 36.99-66.77 3.92-7 8.13-13.85 12.2-20.77" style="fill:#1a8c44"/><path d="M85.04 247.18c-4.51 4.78-6.56 11.06-10.26 16.34-.83 1.18-1.29 2.63-2.71 3.33-3.17-3.12-7.47-4.18-11.33-6.04-18.23-8.83-36.39-17.79-54.77-26.31-3.85-1.78-4.98-3.81-4.96-7.75.13-29.35.07-58.7.04-88.05 0-1.92.54-3.97-.96-5.66v-.98c3.48-5.65 6.12-11.99 12.84-14.94 22.31 39.99 44.63 79.98 66.91 119.99 1.83 3.3 3.46 6.71 5.2 10.07" class="st2"/><path d="M.08 133.05c1.5 1.69.96 3.74.96 5.66.03 29.35.1 58.7-.04 88.05-.02 3.94 1.11 5.96 4.96 7.75 18.38 8.52 36.55 17.47 54.77 26.31 3.85 1.87 8.16 2.93 11.33 6.04-7.74 15.23-17.08 29.56-25.7 44.29-12.54 21.41-25.23 42.74-37.89 64.08-1 1.69-2.24 3.24-3.36 4.85-2.72-2.02-2.42-5.88-5.03-7.96v-3.94c1.52-1.68 1-3.73 1-5.65.01-33.93-.02-67.87-.06-101.8 0-1.93.46-3.97-.94-5.69z" class="st3"/><path d="M449.89 369.16c-1.42-1.51-1-3.39-1-5.15q0-115.47.03-230.94c.33-.01.65-.01.98-.02-.01 78.7-.01 157.41-.01 236.11" class="st2"/><path d="M.08 255.04c1.4 1.72.93 3.76.94 5.69.05 33.93.07 67.87.06 101.8 0 1.92.52 3.97-1 5.65z" class="st0"/><path d="M314.08 457.04c-23.07 13.21-46.13 26.42-69.23 39.58-.79.45-1.89.38-2.84.56-1.44-2.59-1.03-5.43-1.03-8.19-.01-151.03-.06-302.06.1-453.09.01-10.78-1.61-20.77-7.66-29.88-.99-1.5-1.65-3.21-2.46-4.83 3.33.05 5.93 1.95 8.62 3.48 65.36 37.04 130.7 74.12 196.02 111.23 2.97 1.69 6.31 3.03 7.99 6.34-4.07 6.92-8.28 13.77-12.18 20.77-12.39 22.22-24.68 44.5-36.99 66.77-.64 1.16-1.23 2.33-2.49 2.98-2.05-.23-3.06-1.69-4.17-3.18-15.15-20.3-30.32-40.6-45.54-60.85-27.58-36.69-55.17-73.37-82.84-109.98-5.5-7.28-10.27-15.18-17.4-21.25-1 1.26-.13 2.08.32 2.85 4.4 7.49 8.89 14.94 13.29 22.43 15.58 26.48 31.14 52.98 46.72 79.46 5.77 9.8 10.82 19.5 10.79 31.56-.28 98.36-.16 196.72-.15 295.08 0 2.75-.33 5.58 1.13 8.16" class="st3"/><path d="M314.08 457.04c-1.46-2.58-1.13-5.41-1.13-8.18-.01-98.36-.13-196.72.15-295.08.03-12.06-5.02-21.76-10.79-31.56-15.59-26.48-31.14-52.98-46.72-79.46-4.41-7.49-8.89-14.94-13.29-22.43-.45-.77-1.33-1.6-.32-2.85 7.13 6.07 11.9 13.98 17.4 21.25 27.67 36.62 55.26 73.3 82.84 109.98 15.22 20.25 30.39 40.54 45.54 60.85 1.11 1.49 2.12 2.95 4.17 3.18-3.84 10.54-10.45 19.67-15.57 29.55-.9 1.73-7.43 4.81-7.43 6.12 0 55.88.02 111.75-.05 167.63 0 3.15.68 6.16 1.06 9.24-18.28 11.18-37.22 21.22-55.86 31.76" class="st3"/></g></svg>