<svg xmlns="http://www.w3.org/2000/svg" xml:space="preserve" x="0px" y="0px" viewBox="0 0 437.08 318.92"><path d="M340.07 318.73c-15.83.06-31.65.15-47.48.16-45.65.02-91.3.01-136.95 0-2.5 0-4.99-.14-7.49-.21-13.95-4.83-17.73-10.24-17.07-24.42 1.64-4.15 2.81-8.56 4.99-12.4 30.77-54.11 61.68-108.13 92.51-162.2.8-1.4 1.12-3.07 1.66-4.62 4.7-8.06 9.4-16.11 14.09-24.17.21-.04.42-.05.63-.01 4.63 8.04 9.26 16.09 13.89 24.13 2.61 5.3 4.97 10.74 7.85 15.88 30.72 54.72 61.53 109.38 92.31 164.07-.07 11.69-4.98 18.64-15.81 22.44-1.06.38-2.08.89-3.13 1.35m-95.63-178.19c-29.63 51.86-58.57 102.51-87.78 153.63h175.58c-29.27-51.22-58.16-101.78-87.8-153.63" style="fill:#314a5f"/><path d="M131.08 294.26c-.66 14.18 3.12 19.59 17.07 24.42-13.99.07-27.99.19-41.98.21-25.33.03-50.66.06-76-.05-3.28-.01-6.66-.45-9.81-1.34-12.02-3.39-17.66-14.82-13.69-27.68.97-3.13 2.4-6.18 4.01-9.04 49.75-88.34 99.54-176.66 149.34-264.98.98-1.73 1.97-3.47 3.1-5.1 9.63-13.96 26.07-14.38 36.07-.59 3.97 5.48 6.99 11.66 10.29 17.6 11.66 21.04 23.25 42.11 34.86 63.18-4.7 8.06-9.4 16.11-14.09 24.17-16.15-28.97-32.3-57.95-48.79-87.54-50.07 88.9-99.85 177.28-150.07 266.45h6.29c23.15 0 46.3-.03 69.45.01 7.99 0 15.97.18 23.95.28" style="fill:#02c58e"/><path d="M258.86 114.99c-4.63-8.04-9.26-16.09-13.89-24.13 5.56-9.06 11-18.19 16.7-27.16 10.51-16.56 28.08-16.53 38.18.51 10.83 18.28 20.89 37.01 31.26 55.57 29.96 53.63 59.94 107.26 89.83 160.92 3.62 6.5 7.42 13.06 5.48 21.08-2.43 10.06-11 16.87-22.9 17.01-21.15.25-42.3-.02-63.45-.07 1.05-.45 2.07-.97 3.14-1.35 10.83-3.8 15.74-10.75 15.81-22.44h42.85c-40.72-72.66-80.86-144.31-121.32-216.5-7.5 12.65-14.6 24.61-21.69 36.56" style="fill:#128876"/></svg>