<svg xmlns="http://www.w3.org/2000/svg" xml:space="preserve" id="Layer_1" x="0px" y="0px" version="1.1" viewBox="0 0 1199.99 1170"><style>.st0{fill:#0c4496}</style><path d="M0 974.99v-780c.78-4.82 1.56-9.63 2.33-14.45 6.59-41.26 23.34-77.83 51.2-109.02C85.6 35.61 125.34 12.94 172.72 3.87 180.12 2.45 187.57 1.28 195 0h809c.69.31 1.36.83 2.06.88 29.23 2.4 56.9 10.37 82.45 24.68 58.38 32.69 94.5 81.89 107.69 147.64 1.52 7.55 2.54 15.2 3.79 22.8v779c-.32.68-.81 1.33-.94 2.05-2.38 12.72-3.41 25.86-7.26 38.12-26.45 84.19-83.19 134.94-169.91 151.92-6.25 1.22-12.59 1.95-18.89 2.91h-807c-.7-.31-1.38-.83-2.1-.89-31.81-2.7-61.65-11.91-88.94-28.39-54.59-32.96-88.49-80.77-101.1-143.44-1.48-7.4-2.57-14.86-3.85-22.29M378.57 659.6c2.63 0 4.43-.02 6.24 0 17.49.2 34.98.73 52.46.55 32.8-.34 65.17-4.22 96.22-15.31 47.73-17.04 83.2-47.74 102.05-95.49 12.22-30.95 14.84-63.44 10.96-96.33-3.51-29.75-13.32-57.3-31.45-81.5-24.71-32.99-58.35-52.38-97.3-63.53-29.08-8.33-58.94-10.79-88.99-10.43-50.48.6-100.95 1.83-151.42 2.82-6.27.12-7.34 1.3-7.34 7.86-.01 169.96-.01 339.93 0 509.89 0 7.7 1.19 8.84 9.07 8.85 29.99 0 59.99.01 89.98 0 7.99 0 9.52-1.57 9.52-9.75zm322.85 103.08c0 13.83.12 27.67-.06 41.5-.07 5.76 2.31 9.62 7.54 11.67 8.05 3.15 16.01 6.65 24.28 9.1 30.73 9.11 62.27 12.63 94.23 12.51 25.26-.1 50.27-2.53 74.39-10.52 50.25-16.65 83.2-48.83 89.51-103.25 4.02-34.71-4.95-65.69-30.75-90.71-14.22-13.79-31.15-23.49-48.78-31.75-20.91-9.8-42.58-17.98-63.71-27.32-11.99-5.3-24.27-10.31-33.8-19.9-13.25-13.33-8.47-33.52 9.55-38.77 7.3-2.13 15-3.85 22.55-3.99 38.92-.75 76.67 4.89 111.99 22.42 8.56 4.25 13.2 1.38 13.21-8.02.02-24.83.01-49.67-.01-74.5 0-1.83-.24-3.65-.35-5.48-.24-4.33-2.49-7.16-6.54-8.51-7.25-2.42-14.4-5.33-21.82-7.06-35-8.15-70.54-9.9-106.27-7.63-25.53 1.62-49.74 8.16-72.45 20.47-68.76 37.28-84.66 132.81-24.55 185.96 18.04 15.96 38.98 27.27 60.81 36.94 17.64 7.81 35.87 14.28 53.39 22.34 8.32 3.83 16.51 9 23.1 15.3 12.05 11.51 8.48 29.64-6.94 36.01-8.16 3.37-17.23 5.66-26.02 6.21-47.16 2.96-91.66-6.84-133.15-29.68-7.34-4.04-9.29-2.92-9.32 5.66-.05 13.67-.02 27.34-.03 41" class="st0"/><path d="M379.19 565.96c16.64 0 32.78.13 48.92-.03 20.47-.21 40.52-3.47 59.62-10.81 24.61-9.45 43.21-25.3 48.66-52.41 2.08-10.33 3.04-21.25 2.25-31.73-2.35-31.27-17.76-53.79-47.5-65.5-16.29-6.42-33.27-9.37-50.74-9.45-16.99-.07-33.98.08-50.96.24-3.42.03-6.83.51-10.25.78z" style="fill:#31a7fe"/><path d="M379.19 565.96V397.05c3.42-.27 6.83-.75 10.25-.78 16.99-.16 33.98-.31 50.96-.24 17.46.07 34.45 3.03 50.74 9.45 29.74 11.71 45.15 34.23 47.5 65.5.79 10.48-.17 21.4-2.25 31.73-5.44 27.11-24.05 42.96-48.66 52.41-19.1 7.33-39.15 10.6-59.62 10.81-16.14.16-32.28.03-48.92.03" class="st0"/></svg>