<svg xmlns="http://www.w3.org/2000/svg" xml:space="preserve" id="Layer_1" x="0px" y="0px" version="1.1" viewBox="0 0 2248.02 2041.97"><style>.st0{fill:#fff}</style><path d="M634.41 15.47h84c1.84.65 3.64 1.51 5.53 1.92 11.05 2.44 22.22 4.42 33.18 7.21 54.79 13.93 105 38.4 153.06 67.56 65.81 39.92 125.55 87.79 182.02 139.89 10.48 9.67 20.89 19.42 31.67 29.44 2.66-2.3 4.93-4.17 7.11-6.15 22.96-20.81 45.45-42.16 68.95-62.34 56.28-48.35 116.19-91.57 182.21-125.86 40.09-20.82 81.79-37.34 126.12-46.78 6.76-1.44 13.44-3.26 20.15-4.9h84c2.16.75 4.27 1.73 6.48 2.21 17.64 3.81 34.84 8.91 51.2 16.66 51.52 24.4 86.37 64.7 109.93 115.61 23.16 50.05 32.8 103.38 35.96 157.89 3.66 63.33-.79 126.38-10.17 189.08-6.6 44.13-15.74 87.76-26.12 131.14-.82 3.41-1.14 6.94-1.75 10.78 4.4 1.46 7.81 2.71 11.29 3.72 61.2 17.74 121.17 38.9 179.17 65.37 53.81 24.56 105.38 53 152.11 89.59 35.41 27.72 66.83 59.14 90.9 97.47 21.53 34.26 34.39 71.41 36.37 111.86 1.76 35.95-6.07 70.2-21.46 102.67-21.55 45.47-54.13 82.13-92.4 114.06-50.82 42.41-108.05 74.31-168.04 101.57-57.14 25.96-116.23 46.61-176.41 64.24-3.75 1.1-7.45 2.33-11.8 3.7.7 4.07 1.11 7.32 1.83 10.48 2.6 11.36 5.4 22.68 7.96 34.05 14.36 63.78 24.81 128.2 28.4 193.5 2.71 49.24 1.95 98.53-5.77 147.42-6.69 42.38-18.13 83.36-39.02 121.15-33.2 60.07-81.97 99.85-150.15 113.95-1.57.32-3.03 1.2-4.54 1.82h-96c-3.35-1.2-6.65-2.61-10.07-3.55-16.68-4.6-33.66-8.27-50.05-13.72-53.48-17.78-102.54-44.57-149.49-75.38-55.87-36.66-107.4-78.81-156.42-124.12-9.99-9.23-19.93-18.51-30.35-28.18-2.73 2.3-5.01 4.12-7.17 6.07-22.46 20.35-44.49 41.21-67.43 61.01-52.85 45.6-109.03 86.61-170.43 120.11-46.46 25.34-94.95 45.32-147.16 55.43-2.53.49-4.96 1.54-7.43 2.33h-94c-2.14-.76-4.23-1.74-6.42-2.25-20.56-4.75-40.29-11.7-58.75-22.02-48-26.83-79.79-67.64-101.08-117.45-23.42-54.79-31.47-112.66-33.36-171.58-1.32-41.23.21-82.42 5.6-123.39 2.38-18.09 4.11-36.31 7.52-54.21 7.85-41.19 16.55-82.22 24.89-123.32.51-2.53.89-5.08 1.41-8.07-3.69-1.26-6.77-2.45-9.92-3.35-57.68-16.62-114.28-36.32-169.2-60.61-67.33-29.78-131.29-65.2-186.96-114.09-28.47-25-53.36-53.07-72.42-86.02-18.13-31.34-29.34-64.83-31.35-101.16-2.68-48.61 10.84-92.83 36.49-133.7 23.49-37.44 54.19-68.26 88.75-95.39 55.47-43.55 117.31-75.97 182-103.27 48.23-20.35 97.62-37.49 147.88-52.12 4.98-1.45 9.89-3.15 14.82-4.72-.37-2.58-.44-3.91-.75-5.18-11.4-46.53-21.37-93.35-28.13-140.81-2.3-16.12-5.25-32.19-6.72-48.38-1.93-21.21-3.14-42.5-3.83-63.79-1.25-38.66.04-77.22 5.23-115.64 5.47-40.52 15.09-79.86 32.63-116.92C500.97 79.82 552 34.25 627.03 17.98c2.54-.54 4.93-1.66 7.38-2.51m822.23 1341.66c66.3-8.2 132.07-19.4 197.1-34.04-1.09-19.12-60.16-178.32-70.35-189.53-2.49 4.55-4.82 8.89-7.23 13.19-25.74 45.88-51.2 91.93-77.36 137.57-13.74 23.96-28.71 47.22-43.13 70.79.31.68.64 1.35.97 2.02m-206.28-797.71c4.9-.55 3.52-2.35.88-4.41-37.72-51.45-116.84-144.72-128-150.9-17.51 15.3-98.18 111.57-126.83 151.37-1.38 1.31-2.98 2.62.11 3.79 13.98-.52 27.95-1.33 41.94-1.53 70.65-.99 141.29-1.72 211.9 1.68m-126.28 94.15c0 .44-.01.89-.01 1.33-11.66 0-23.31-.02-34.97 0-53.66.13-107.22 2.62-160.75 6.3-6.34.44-10.35 2.37-13.77 7.73-13.46 21.05-27.56 41.7-40.99 62.77-56.68 88.87-108.06 180.7-154.31 275.42-3.07 6.29-3.32 11.5-.05 17.78 11.72 22.44 22.81 45.22 34.47 67.69 47.64 91.78 100.64 180.36 158.03 266.38 5.48 8.21 11.55 11.83 20.86 12.21 45.92 1.9 91.83 5.02 137.77 5.75 48.29.77 96.62-.22 144.92-1.3 33.96-.76 67.88-3.03 101.82-4.5 7.49-.32 12.68-2.96 17.17-9.64 72.14-107.14 136.41-218.8 193.46-334.67 3.73-7.58 4.02-13.49.19-21.27-43.83-89.2-91.95-176.01-144.94-260.08-16.34-25.93-33.5-51.34-50.21-77.04-2.66-4.09-5.44-6.89-10.98-7.14-17.96-.83-35.87-2.77-53.84-3.4-47.96-1.67-95.92-2.9-143.87-4.32m-68.42-321.72c-9.79-9.21-18.67-17.67-27.68-26.01-45.79-42.43-93.92-81.93-146.25-116.09-42.84-27.96-87.54-52.26-136.82-67.16-25.34-7.66-51.14-12.41-77.76-11.09-31.9 1.59-59.75 12.63-82.01 36.13-20.21 21.33-32.08 47.24-40.53 74.92-10.08 33.04-14.41 67.07-15.82 101.41-1.54 37.6-.3 75.19 3.97 112.61 1.76 15.46 3.25 31 6.12 46.27 7.51 39.91 15.7 79.69 23.7 119.5.76 3.8 2.06 7.49 3.19 11.51 3.58-.34 6.22-.39 8.78-.87 46.44-8.61 92.83-17.48 139.32-25.78 15.36-2.74 30.99-4.02 46.5-5.96 31.67-3.96 63.31-8.18 95.04-11.68 6.93-.77 11.47-2.98 15.54-8.71 49.83-70.15 102.93-137.71 160.36-201.84 7.77-8.66 15.54-17.32 24.35-27.16m695.07 400.63c-2.78 8.52-5.04 15.39-7.28 22.28-27.78 85.65-60.71 169.29-98.26 251.11-3.19 6.95-3.37 12.69-.15 19.78 12 26.38 23.67 52.91 34.81 79.66 24.97 59.99 47.49 120.9 67.09 182.88 1.05 3.33 2.61 6.51 4.03 10.02 4.97-1.22 8.87-2.01 12.67-3.13 60.14-17.76 119.13-38.63 175.89-65.46 47.44-22.43 92.85-48.25 133.09-82.3 23.78-20.12 45.19-42.44 60.44-69.97 21.21-38.29 23.08-77.14 3.22-116.63-9.83-19.55-22.98-36.67-38.11-52.31-28.26-29.21-61.05-52.52-95.93-73.05-53.33-31.4-109.91-55.65-168.3-75.79-27.03-9.33-54.4-17.75-83.21-27.09m-695 968.19c-2.98-3.51-5.03-6-7.16-8.42-16.94-19.28-34.13-38.33-50.79-57.85-45.25-53.01-87.8-108.14-128.09-165.01-2.69-3.79-5.56-5.79-10.44-6.33-32.43-3.55-64.85-7.29-97.22-11.36-58.15-7.32-115.85-17.33-173.14-29.71-7.41-1.6-14.86-3.03-23.07-4.69-1.14 4.21-2.23 7.64-3.01 11.14-5.22 23.71-10.59 47.38-15.47 71.16-3.93 19.16-8.2 38.34-10.59 57.72-3.17 25.75-4.93 51.68-6.82 77.57-3.73 51.08-2.1 101.91 8.9 152.11 6.54 29.83 16.67 58.3 34.76 83.38 18.35 25.44 42.64 41.56 73.65 47.59 29.54 5.75 58.4 1.86 86.96-5.63 48.55-12.73 92.57-35.53 134.79-62.02 62.65-39.31 119.24-86.32 172.83-137.09 4.32-4.13 8.86-8.02 13.91-12.56M1193.04 332.5c2.5 2.86 4.67 5.33 6.82 7.82 26.3 30.54 53.53 60.33 78.66 91.8 33.44 41.9 65.37 85.01 97.6 127.85 4.62 6.14 9.38 9.37 17.2 9.63 10.57.35 21.12 1.78 31.63 3.11 21.69 2.76 43.35 5.79 65.03 8.67 18.13 2.41 36.39 4.07 54.36 7.3 42.91 7.7 85.68 16.16 128.51 24.24 2.83.53 5.77.49 8.91.73 1.04-3.18 2.06-5.62 2.64-8.16 4.7-20.75 9.54-41.46 13.9-62.28 9.14-43.65 15.08-87.77 18.67-132.22 4.04-49.96 3.88-99.78-4.65-149.32-5.12-29.7-13.42-58.43-28.27-84.89-18.56-33.06-45.32-55.47-83.25-62.88-24.95-4.87-49.74-2.79-74.35 2.57-46.77 10.2-89.42 30.43-130.29 54.62-72.67 43-137.07 96.65-197.73 155.01-1.86 1.81-3.36 3.98-5.39 6.4m-.58 1367.17c2.64 2.79 4.76 5.26 7.12 7.49 6.77 6.42 13.6 12.78 20.45 19.11 41.88 38.76 85.77 75.04 133.01 107.14 40.36 27.43 82.4 51.79 128.38 68.66 34.98 12.83 70.71 21.61 108.47 17.53 26.73-2.88 50.09-13.09 69.46-31.95 21.64-21.08 34.07-47.42 42.99-75.69 14.1-44.68 17.54-90.85 17.23-137.25-.21-32.28-2.72-64.5-6.7-96.62-6.48-52.31-16.81-103.84-29.23-155-.45-1.84-1.64-3.49-2.67-5.61-6.48 1.37-12.61 2.84-18.79 3.95-51.44 9.23-102.78 19.15-154.39 27.33-38.38 6.08-77.08 10.27-115.74 14.34-7.64.8-11.86 3.43-16.01 9.25-49.96 70.05-103.11 137.59-160.52 201.72-7.52 8.39-15.09 16.74-23.06 25.6m-695.23-966c-2.89.64-5.15 1.02-7.34 1.65-57.71 16.57-114.28 36.33-168.97 61.21-47.43 21.58-93.08 46.32-134.19 78.7-26.32 20.73-50.29 43.76-67.98 72.58-26.78 43.63-28.29 87.77-2.33 132.37 13.56 23.3 31.31 43.06 51.39 60.82 32.4 28.65 68.65 51.62 106.78 71.74 68.08 35.92 140.06 61.9 213.74 83.48 2.76.81 5.66 1.1 8.82 1.7 1.18-2.87 2.21-4.93 2.89-7.1 28.38-90.4 63.06-178.36 102.39-264.51 3.34-7.31 3.54-13.16.14-20.55-39.33-85.43-73.39-172.92-101.95-262.54-.98-3.13-2.18-6.17-3.39-9.55m294.33-57.49c-34.12 2.36-67.23 7.79-100.27 13.49-32.92 5.68-65.85 11.41-98.76 19.92 20.57 65.08 43.72 127.7 70.71 191.45 40.51-77.81 83.24-151.71 128.32-224.86m-128.35 454.71c-26.96 63.75-50.25 126.63-70.64 191.78 66.25 15.05 132.25 26.01 201.33 34.76-47.11-74.53-90.16-148.62-130.69-226.54m794.17-455.83c-.39.86-.78 1.72-1.17 2.57 14.86 24.37 29.95 48.6 44.5 73.15 14.43 24.33 28.54 48.85 42.38 73.52 13.87 24.71 27.23 49.7 41.25 75.36 16.49-30.05 69.54-177.15 68.87-191-64.64-14.32-129.95-25.7-195.83-33.6m-205.02 800.36c-.41-.75-.82-1.49-1.22-2.24-3.29 0-6.58-.06-9.87.01-32.61.7-65.22 2.07-97.83 1.99-45.59-.11-91.18-1.32-136.78-1.99-3.4-.05-7.19-1.34-11 2.48 40.25 53.08 82.36 104.21 128.27 153.72 46.14-49.9 88.33-101.06 128.43-153.97" class="st0"/><path d="m1250.36 559.42.87-4.41c2.65 2.06 4.03 3.86-.87 4.41m-253.95-3.94c.04 1.27.07 2.53.11 3.8-3.08-1.18-1.48-2.5-.11-3.8m459.25 799.64c.32.67.65 1.34.97 2.01-.32-.67-.65-1.34-.97-2.01m-332.91-139.17c-109.14.71-199.67-90.91-199.14-201.19.5-104.43 85.49-199.45 201.5-199.15 110.7.28 200.2 90.99 199.06 202.51-1.18 114.92-96.65 199.97-201.42 197.83" class="st0"/></svg>