<svg xmlns="http://www.w3.org/2000/svg" xml:space="preserve" x="0px" y="0px" viewBox="0 0 1200 1200"><path d="M1 1097V105c1.34-.68.9-2.01 1.09-3.09 7.15-42.57 30.26-73 69.42-91.19C83.4 5.2 96.15 2.88 109 1h984c1.46.29 2.92.69 4.39.86 49.99 5.97 89.73 41.95 100.88 91.21.97 4.3.85 8.83 2.73 12.93v987c-.32 1.76-.74 3.51-.95 5.28-5.65 48.23-42.33 88.97-89.65 99.72-4.79 1.09-9.81 1.01-14.41 3h-991c-.67-1.34-2-.93-3.08-1.09-49.7-7.65-87.52-43-98.46-91.98-.8-3.64-.53-7.54-2.45-10.93m743.35-137.12c-.2 1.31-.34 1.79-.34 2.26-.01 35.49.02 70.99-.1 106.48-.01 2.87 1.15 4.08 3.49 5.21 17.34 8.36 35.55 14.12 54.31 18.14 48.51 10.39 97.42 12.09 146.57 5.83 31.3-3.99 61.4-12.07 88.59-28.77 22.43-13.78 39.68-32 49.72-56.87 11.01-27.26 15.68-55.36 13.2-84.55-2.8-32.99-14.65-61.74-39.22-85.01-16.52-15.64-35.02-27.99-54.91-38.7-25.98-14-53.52-24.53-80.24-36.89-17.02-7.87-33.14-17.22-46.44-30.67-21.63-21.88-18.71-51 6.5-68.55 10.78-7.51 22.92-11.54 35.59-13.69 45.79-7.77 89.41.59 131.56 18.72 8.82 3.79 16.94 8.92 25.34 14.51.18-1.51.35-2.3.35-3.09.02-34.33-.03-68.65.1-102.98.01-3.23-1.53-4.25-4.1-5.17-24.93-8.84-50.62-14.04-76.94-16.36-45.9-4.04-91.52-3.29-136.46 8.33-29.86 7.72-56.93 20.99-78.98 42.83-24.72 24.49-38.2 54.39-40.62 89.32-3.21 46.37 9.62 86.54 44.49 118.52 23.53 21.57 51.47 36.01 80.22 48.96 19.41 8.74 39.33 16.43 58.06 26.58 16.46 8.92 32.16 19.01 42.85 35.11 14.38 21.68 8.88 49.32-12.79 63.62-11.9 7.85-25.24 11.99-39.19 13.98-44.5 6.38-86.85-1.3-127.35-20.25-15.22-7.17-29.39-16.13-43.26-26.85m-197.3-78.55c0-69.66.05-139.33-.11-208.99-.01-4.6 1.21-5.79 5.76-5.77 46.33.16 92.66.03 138.99.21 4.5.02 5.48-1.26 5.45-5.58-.2-28.5-.19-57 0-85.49.03-4.17-1.08-5.24-5.24-5.24-136.33.11-272.65.12-408.98-.01-4.62 0-5.43 1.51-5.41 5.69.17 28.16.2 56.33-.02 84.49-.04 4.76 1.12 6.16 6.03 6.14 45.16-.2 90.33-.12 135.49-.11 8.59 0 8.59 0 8.59 8.34 0 138.16.02 276.32-.1 414.48 0 4.69 1 6.22 5.97 6.19 36-.22 72-.21 107.99 0 4.73.03 5.68-1.43 5.67-5.86-.12-69.5-.08-138.99-.08-208.49" style="fill:#3178c5"/></svg>