<svg xmlns="http://www.w3.org/2000/svg" xml:space="preserve" id="Layer_1" x="0px" y="0px" version="1.1" viewBox="0 0 72 72"><style>.st1{fill:#854cc6}.st2{fill:#6c34ae}</style><path d="M52.09 72.26c-.43-.25-.85-.5-1.28-.75.68-.11 1.42.26 2.05-.27 1.31-.49 1.52-1.58 1.52-2.78 0-5.65 0-11.29.01-16.94 0-10.05 0-20.09.01-30.14 0-5.5-.05-11.01.04-16.51.03-2.22-.55-3.49-3.4-3.65 1.3-.81 2.67-.75 3.98-.13 4.93 2.33 9.82 4.73 14.74 7.08 1.17.56 1.82 1.57 2.52 2.57v51.32c-.67 1.14-1.47 2.17-2.71 2.74-5.34 2.43-10.49 5.26-15.93 7.47-.53-.01-1.04-.01-1.55-.01" style="fill:#b079f0"/><path d="M52.85 71.24c-.62.53-1.37.16-2.05.27-2.22-1.68-3.85-3.94-5.71-5.97-6.11-6.68-12.15-13.42-18.22-20.12-.3-.33-.51-.82-1.09-.77-.05-.24-.03-.57-.17-.72-2.4-2.39-4.4-5.16-6.95-7.41-.67-1.2-1.72-2.08-2.62-3.07-2.16-2.37-4.19-4.87-6.54-7.07-1.5-2.12-3.37-3.9-5.1-5.82-1.72-1.9-1.68-1.95-3.76-.97.24-.99.91-1.6 1.81-1.98 1.71-.72 3.43-1.41 5.14-2.15 1.32-.57 2.44-.3 3.51.59 4.97 4.11 9.95 8.19 14.93 12.29 1.9 1.61 3.76 3.28 5.73 4.8 1.39 1.07 2.53 2.5 4.24 3.15.08.48.5.66.82.92 1.66 1.39 3.33 2.75 5 4.12 3.7 3.06 7.4 6.13 11.1 9.19-.46.35-.31.85-.31 1.3-.01 2.25-.02 4.51 0 6.76.02 2.88-.09 5.74-.44 8.62-.17 1.29-.69 2.89.68 4.04" class="st1"/><path d="M36 36.27c-1.71-.65-2.85-2.07-4.24-3.15-1.97-1.52-3.83-3.19-5.73-4.8 7.78-8.58 15.56-17.17 23.34-25.75.48-.54.96-1.08 1.66-1.36 2.84.17 3.43 1.43 3.4 3.65-.08 5.5-.03 11.01-.04 16.51-1.66 1.08-3.12 2.41-4.64 3.65-4.6 3.74-9.17 7.5-13.75 11.25m-17.34.24c2.55 2.25 4.55 5.02 6.95 7.41.15.15.12.47.17.72-4.27 3.51-8.6 6.94-12.78 10.54-3.95 3.4-3.63 2.89-7.94 1.14-.94-.38-1.88-.76-2.8-1.19-1.08-.51-1.75-1.36-1.75-2.59 0-10.8.02-21.6.03-32.39.18-.16.22-.34.1-.56v-.03c2.09-.98 2.04-.93 3.76.97 1.73 1.91 3.61 3.7 5.1 5.82v20.27c3.21-3.53 6.19-6.82 9.16-10.11" class="st2"/><path d="M.64 19.6c.12.21.09.4-.1.56.03-.19.06-.37.1-.56" class="st1"/><path d="M52.91 50.5c.39.47.95.72 1.46 1.01 0 5.65 0 11.29-.01 16.94 0 1.2-.21 2.29-1.52 2.78-1.38-1.15-.85-2.74-.69-4.06.34-2.87.45-5.74.44-8.62-.01-2.25-.01-4.51 0-6.76.02-.43-.14-.94.32-1.29" class="st2"/></svg>