<svg xmlns="http://www.w3.org/2000/svg" xml:space="preserve" x="0px" y="0px" viewBox="0 0 1179.5 1024.8"><path d="M1179.5.94c-8.11 12.17-14.94 25.1-22.24 37.74-125.56 217.39-251.06 434.8-376.57 652.21-63 109.14-125.98 218.29-188.97 327.44-1.24 2.14-2.5 4.27-3.79 6.46-2.16-.83-2.57-2.78-3.42-4.26-114.71-198.66-229.39-397.33-344.07-596C159.54 284.4 78.63 144.27-2.29 4.15-2.93 3.02-3.76 2-4.5.94-3.39-1.15-1.46 0 0 0c77.5-.07 155-.06 232.5-.06.21.63 90.33 1.31 90.65 1.87 13.53 23.51 27.06 47.02 40.64 70.5 35.31 61.09 70.67 122.14 105.95 183.25 30.7 53.18 1.28 106.43 31.97 159.62 33.02 57.22 36.12 114.39 69.19 171.59 5.38 9.31 10.76 18.61 16.27 28.15.75-.71 1.18-.97 1.4-1.36 12.59-21.75-14.83-43.5-2.27-65.26 20.71-35.89 41.38-71.8 62.09-107.69 19.3-33.44 38.63-66.86 57.93-100.3 19.38-33.58 38.74-67.18 58.12-100.76 19.3-33.44 38.62-66.86 57.92-100.3 19.38-33.58 38.77-67.16 58.12-100.76 7.38-12.82 24.68-25.7 32.01-38.55 77.5 0 185-.01 262.5.06 1.47 0 3.4-1.15 4.51.94" style="fill:#fff"/><path d="M947.89-.06c-7.44 12.85-14.84 25.73-22.33 38.55-19.63 33.6-39.3 67.18-58.97 100.76-19.58 33.44-39.19 66.86-58.77 100.3-19.66 33.58-39.31 67.18-58.97 100.76-19.58 33.44-39.2 66.86-58.78 100.3-21.01 35.89-42 71.8-63 107.69-12.74 21.77-25.51 43.52-38.28 65.26-.22.38-.67.65-1.42 1.36l-16.51-28.15c-33.55-57.19-67.13-114.37-100.64-171.59-31.15-53.18-62.17-106.44-93.32-159.62-35.81-61.1-71.68-122.16-107.51-183.25-13.77-23.48-27.5-46.99-41.23-70.5-.32-.56-.45-1.25-.66-1.87h222.2c-.39 1.89 1.11 3.05 1.91 4.42 44.46 76.01 88.95 151.99 133.47 227.96.72 1.22 1.09 2.78 2.89 3.64.78-1.25 1.58-2.45 2.31-3.7 44.66-76.24 89.34-152.48 133.97-228.74.64-1.09 1.84-2.05 1.42-3.58z" style="fill:#ededed"/></svg>