<svg xmlns="http://www.w3.org/2000/svg" xml:space="preserve" x="0px" y="0px" viewBox="0 0 1179.5 1024.8"><path d="M1179.5.94c-8.11 12.17-14.94 25.1-22.24 37.74-125.56 217.39-251.06 434.8-376.57 652.21-63 109.14-125.98 218.29-188.97 327.44-1.24 2.14-2.5 4.27-3.79 6.46-2.16-.83-2.57-2.78-3.42-4.26-114.71-198.66-229.39-397.33-344.07-596C159.54 284.4 78.63 144.27-2.29 4.15-2.93 3.02-3.76 2-4.5.94-3.39-1.15-1.46 0 0 0c77.5-.07 155-.06 232.5-.06.21.63.33 1.31.65 1.87 13.53 23.51 27.06 47.02 40.64 70.5 35.31 61.09 70.67 122.14 105.95 183.25 30.7 53.18 61.28 106.43 91.97 159.62 33.02 57.22 66.12 114.39 99.19 171.59 5.38 9.31 10.76 18.61 16.27 28.15.75-.71 1.18-.97 1.4-1.36 12.59-21.75 25.17-43.5 37.73-65.26 20.71-35.89 41.38-71.8 62.09-107.69 19.3-33.44 38.63-66.86 57.93-100.3 19.38-33.58 38.74-67.18 58.12-100.76 19.3-33.44 38.62-66.86 57.92-100.3 19.38-33.58 38.77-67.16 58.12-100.76 7.38-12.82 14.68-25.7 22.01-38.55 77.5 0 155-.01 232.5.06 1.47 0 3.4-1.15 4.51.94" style="fill:#41b783"/><path d="M942.5-.06c-7.33 12.85-14.63 25.73-22.01 38.55-19.35 33.6-38.73 67.18-58.12 100.76-19.3 33.44-38.62 66.86-57.92 100.3-19.38 33.58-38.74 67.18-58.12 100.76-19.3 33.44-38.63 66.86-57.93 100.3-20.71 35.89-41.39 71.8-62.09 107.69-12.56 21.77-25.14 43.52-37.73 65.26-.22.38-.66.65-1.4 1.36-5.51-9.53-10.89-18.84-16.27-28.15-33.07-57.19-66.16-114.37-99.19-171.59-30.7-53.18-61.27-106.44-91.97-159.62-35.29-61.1-70.65-122.16-105.96-183.25-13.57-23.48-27.1-46.99-40.64-70.5-.32-.56-.44-1.25-.65-1.87h219c-.38 1.89 1.09 3.05 1.88 4.42 43.82 76.01 87.67 151.99 131.55 227.96.71 1.22 1.07 2.78 2.85 3.64.77-1.25 1.56-2.45 2.28-3.7C634.08 156.02 678.11 79.78 722.1 3.52c.63-1.09 1.81-2.05 1.4-3.58z" style="fill:#34495e"/></svg>