<svg xmlns="http://www.w3.org/2000/svg" xml:space="preserve" id="Layer_1" x="0px" y="0px" version="1.1" viewBox="0 0 1024 1024"><style>.st1{fill:#21759b}.st2{fill:#22759b}</style><path d="M486 1h54c1.21.32 2.4.8 3.63.94 18.68 2.13 37.53 3.29 56.03 6.48 91.42 15.8 173.09 53.31 243.47 113.74 106.6 91.54 166.83 207.58 180.03 347.73.51 5.38 1.23 10.74 1.85 16.1v55c-.33 1.21-.79 2.4-.96 3.64-3.14 23.74-4.89 47.76-9.59 71.19-15.66 77.97-47.88 148.76-97.4 211.01-92.59 116.39-213.06 182.22-361.43 196.32-5.55.53-11.08 1.23-16.62 1.85h-53c-1.22-.32-2.42-.78-3.65-.95-23.91-3.12-48.11-4.83-71.7-9.54-76.42-15.28-146.06-46.48-207.52-94.46C84.36 827.34 17.23 705.84 2.84 555.56 2.37 550.69 1.62 545.85 1 541v-56c.33-1.2.81-2.39.98-3.61 3.15-23.74 4.82-47.79 9.62-71.19 20.25-98.78 65.86-184.5 136.87-256.08C237.22 64.63 344.74 14.19 470.42 2.83c5.2-.47 10.39-1.21 15.58-1.83m515.49 511.86c-.3-269.54-219.16-488.37-488.48-488.4-269.24-.04-488.21 218.9-488.49 488.4-.28 269.21 220.3 489.77 488.74 488.68 270.22-1.09 488.53-219.6 488.23-488.68" style="fill:#23769b"/><path d="M244.03 307.43c16.7-1.5 32.95-2.88 49.19-4.46 12.89-1.25 20.2-12.24 16.33-24.26-2.46-7.64-8.65-12.26-17.08-11.87-14.14.65-28.26 2.12-42.4 2.56-33.63 1.04-67.28 1.69-100.92 2.48-.62.01-1.25-.15-3.25-.42 66.96-97.45 156.37-161.11 271.12-186.98 151.43-34.15 296.76 15.54 391.18 103.78-6.67.73-13.48.84-19.98 2.32-30.21 6.85-53.61 33.95-57.33 65.21-2.69 22.56 2.81 43.44 13.05 63.07 8.53 16.36 18.27 32.09 27.66 47.99 15.74 26.67 28.66 54.42 34.44 85.14 6.3 33.45 3.68 66.43-5.66 98.84-12.89 44.74-26.5 89.28-39.82 133.9-9.23 30.91-18.5 61.81-28.77 92.98-52.66-156.64-105.32-313.27-158.16-470.44 9.02-.74 17.57-1.4 26.1-2.14 7.8-.68 15.6-1.35 23.38-2.17 11.16-1.17 17.75-9.06 16.94-20.08-.75-10.24-8.38-16.55-19.64-16.03-38.11 1.74-76.21 4.8-114.32 4.95-35.61.15-71.23-2.75-106.84-4.33-4.16-.18-8.32-.66-12.48-.66-9.9.02-17.05 7.12-17.68 17.3-.6 9.73 5.29 17.42 14.96 18.6 11.4 1.4 22.85 2.51 34.31 3.27 13.05.87 13.06.65 17.51 12.84 20.85 57.18 41.74 114.35 62.44 171.59.91 2.52.93 5.9.09 8.45-30.74 92.67-61.64 185.28-92.52 277.9-.51 1.53-1.15 3.01-2.17 5.66-53.47-159.07-106.57-317.02-159.68-474.99" class="st1"/><path d="M388.97 934.26c43.93-127.65 87.62-254.62 131.74-382.83 45.99 125.94 91.58 250.79 137.35 376.15-43.13 15.12-87.69 23.31-133.56 24.45-45.91 1.15-90.9-4.67-135.53-17.77" class="st1"/><path d="M319.9 907.1c-12.7-6.88-25.85-13.04-38.02-20.75C187.77 826.79 124 743.85 91.7 637.13c-15.76-52.06-20.57-105.39-16.56-159.56 3.47-46.97 18.36-105.18 36.6-142.68.82 1.85 1.5 3.19 2.01 4.59 68.46 187.58 136.9 375.17 205.34 562.76.51 1.4.94 2.84 1.41 4.26zm414.94-16.26c5.09-15.12 10.06-30.27 15.27-45.34 38.9-112.52 77.69-225.09 116.91-337.5 9.26-26.54 19.13-52.83 25.25-80.36 8.72-39.2 11.36-78.7 6.88-118.64-.14-1.26-.02-2.56 1.01-4.27 5.62 11.94 11.6 23.73 16.79 35.86 28.3 66.16 40.38 135.34 33.68 206.88-13.99 149.34-85.99 263.36-212.99 342.85-.7.44-1.49.73-2.23 1.09z" class="st2"/><path d="m735.42 891.41-1.15.09.56-.65c.2.18.39.37.59.56m-414.91 15.1c0 .41-.01.82-.01 1.23-.2-.21-.4-.43-.59-.64.19-.2.39-.4.6-.59" class="st2"/></svg>