<?xml version="1.0" encoding="utf-8"?>
<!-- Generator: Adobe Illustrator 26.5.0, SVG Export Plug-In . SVG Version: 6.00 Build 0)  -->
<svg version="1.1" id="Layer_1" xmlns="http://www.w3.org/2000/svg" xmlns:xlink="http://www.w3.org/1999/xlink" x="0px" y="0px"
	 viewBox="0 0 1024 1024" style="enable-background:new 0 0 1024 1024;" xml:space="preserve">
<style type="text/css">
	.st0{fill:#23769B;}
	.st1{fill:#21759B;}
	.st2{fill:#22759B;}
</style>
<g>
	<g>
		<path class="st0" d="M486,1c18,0,36,0,54,0c1.21,0.32,2.4,0.8,3.63,0.94c18.68,2.13,37.53,3.29,56.03,6.48
			c91.42,15.8,173.09,53.31,243.47,113.74c106.6,91.54,166.83,207.58,180.03,347.73c0.51,5.38,1.23,10.74,1.85,16.1
			c0,18.33,0,36.67,0,55c-0.33,1.21-0.79,2.4-0.96,3.64c-3.14,23.74-4.89,47.76-9.59,71.19c-15.66,77.97-47.88,148.76-97.4,211.01
			c-92.59,116.39-213.06,182.22-361.43,196.32c-5.55,0.53-11.08,1.23-16.62,1.85c-17.67,0-35.33,0-53,0
			c-1.22-0.32-2.42-0.78-3.65-0.95c-23.91-3.12-48.11-4.83-71.7-9.54c-76.42-15.28-146.06-46.48-207.52-94.46
			C84.36,827.34,17.23,705.84,2.84,555.56C2.37,550.69,1.62,545.85,1,541c0-18.67,0-37.33,0-56c0.33-1.2,0.81-2.39,0.98-3.61
			c3.15-23.74,4.82-47.79,9.62-71.19c20.25-98.78,65.86-184.5,136.87-256.08C237.22,64.63,344.74,14.19,470.42,2.83
			C475.62,2.36,480.81,1.62,486,1z M1001.49,512.86c-0.3-269.54-219.16-488.37-488.48-488.4C243.77,24.42,24.8,243.36,24.52,512.86
			c-0.28,269.21,220.3,489.77,488.74,488.68C783.48,1000.45,1001.79,781.94,1001.49,512.86z"/>
		<path class="st1" d="M244.03,307.43c16.7-1.5,32.95-2.88,49.19-4.46c12.89-1.25,20.2-12.24,16.33-24.26
			c-2.46-7.64-8.65-12.26-17.08-11.87c-14.14,0.65-28.26,2.12-42.4,2.56c-33.63,1.04-67.28,1.69-100.92,2.48
			c-0.62,0.01-1.25-0.15-3.25-0.42c66.96-97.45,156.37-161.11,271.12-186.98c151.43-34.15,296.76,15.54,391.18,103.78
			c-6.67,0.73-13.48,0.84-19.98,2.32c-30.21,6.85-53.61,33.95-57.33,65.21c-2.69,22.56,2.81,43.44,13.05,63.07
			c8.53,16.36,18.27,32.09,27.66,47.99c15.74,26.67,28.66,54.42,34.44,85.14c6.3,33.45,3.68,66.43-5.66,98.84
			c-12.89,44.74-26.5,89.28-39.82,133.9c-9.23,30.91-18.5,61.81-28.77,92.98c-52.66-156.64-105.32-313.27-158.16-470.44
			c9.02-0.74,17.57-1.4,26.1-2.14c7.8-0.68,15.6-1.35,23.38-2.17c11.16-1.17,17.75-9.06,16.94-20.08
			c-0.75-10.24-8.38-16.55-19.64-16.03c-38.11,1.74-76.21,4.8-114.32,4.95c-35.61,0.15-71.23-2.75-106.84-4.33
			c-4.16-0.18-8.32-0.66-12.48-0.66c-9.9,0.02-17.05,7.12-17.68,17.3c-0.6,9.73,5.29,17.42,14.96,18.6
			c11.4,1.4,22.85,2.51,34.31,3.27c13.05,0.87,13.06,0.65,17.51,12.84c20.85,57.18,41.74,114.35,62.44,171.59
			c0.91,2.52,0.93,5.9,0.09,8.45c-30.74,92.67-61.64,185.28-92.52,277.9c-0.51,1.53-1.15,3.01-2.17,5.66
			C350.24,623.35,297.14,465.4,244.03,307.43z"/>
		<path class="st1" d="M388.97,934.26c43.93-127.65,87.62-254.62,131.74-382.83c45.99,125.94,91.58,250.79,137.35,376.15
			c-43.13,15.12-87.69,23.31-133.56,24.45C478.59,953.18,433.6,947.36,388.97,934.26z"/>
		<path class="st2" d="M319.9,907.1c-12.7-6.88-25.85-13.04-38.02-20.75C187.77,826.79,124,743.85,91.7,637.13
			c-15.76-52.06-20.57-105.39-16.56-159.56c3.47-46.97,18.36-105.18,36.6-142.68c0.82,1.85,1.5,3.19,2.01,4.59
			c68.46,187.58,136.9,375.17,205.34,562.76c0.51,1.4,0.94,2.84,1.41,4.26C320.3,906.7,320.1,906.9,319.9,907.1z"/>
		<path class="st2" d="M734.84,890.84c5.09-15.12,10.06-30.27,15.27-45.34c38.9-112.52,77.69-225.09,116.91-337.5
			c9.26-26.54,19.13-52.83,25.25-80.36c8.72-39.2,11.36-78.7,6.88-118.64c-0.14-1.26-0.02-2.56,1.01-4.27
			c5.62,11.94,11.6,23.73,16.79,35.86c28.3,66.16,40.38,135.34,33.68,206.88c-13.99,149.34-85.99,263.36-212.99,342.85
			c-0.7,0.44-1.49,0.73-2.23,1.09C735.22,891.22,735.03,891.03,734.84,890.84z"/>
		<path class="st2" d="M735.42,891.41c-0.38,0.03-0.76,0.06-1.15,0.09c0.19-0.22,0.38-0.44,0.56-0.65
			C735.03,891.03,735.22,891.22,735.42,891.41z"/>
		<path class="st2" d="M320.51,906.51c0,0.41-0.01,0.82-0.01,1.23c-0.2-0.21-0.4-0.43-0.59-0.64
			C320.1,906.9,320.3,906.7,320.51,906.51z"/>
	</g>
</g>
</svg>
