<?xml version="1.0" encoding="UTF-8"?>
<svg data-name="Layer 1" viewBox="0 0 302.73 303.26" xmlns="http://www.w3.org/2000/svg">
<defs>
<style>.cls-1 {
        fill: #fefefe;
      }

      .cls-2 {
        fill: #de2228;
      }

      .cls-3 {
        fill: #27377a;
      }</style>
</defs>
<path class="cls-3" d="M142.92,65.88c.26-3.56,.52-7.12,.81-11.05h-49.81c11.66-8.27,22.22-15.75,32.78-23.24,4.6-3.26,9.36-6.33,13.72-9.88,1.52-1.24,2.79-3.6,2.95-5.55,.41-4.93,.14-9.92,.14-16.16,11.36,.93,22.35,1.07,33.05,2.86,31.22,5.24,58.33,19.09,80.95,41.27,13.55,13.28,24.14,28.74,32.22,45.98,2.66,5.68-.79,10.12-1.47,15.35-4.12,.33-8.08,.64-12.66,1,1,1.16,1.53,2.16,2.36,2.66,6.8,4.06,8.33,9.53,4.8,16.58-.54,1.09-.58,2.43-.99,4.33,3.67-3.08,6.84-5.74,9.92-8.32,9.85,3.6,10.44,12.03,10.84,20.37,1.85,38.56-8.55,73.34-32.59,103.75-4.51,5.7-9.66,10.9-15.16,17.05-1.49-5.5-2.83-9.88-3.78-14.35-.19-.91,.84-2.33,1.67-3.15,3.08-3.04,6.31-5.93,10.52-9.83-4.58,0-8.11-.13-11.63,.04-3.08,.15-4.86-.56-5.47-4.09-.72-4.18-2.28-8.22-3.75-13.25-1.82,6.15-3.37,11.37-5.01,16.88-4.84,.24-9.58,.49-13.91,.7,2.66,2.97,5.61,5.84,8,9.11,1.16,1.59,2,4.05,1.71,5.92-.64,4.19-2.08,8.26-3.48,13.45,4.68-3.91,8.63-7.22,12.75-10.66,3.6,3.06,7.28,6.17,12.05,10.23-9.31,6.45-18.01,13.24-27.41,18.87-27.96,16.75-58.64,22.97-90.76,19.63-65.3-6.8-116.47-52-132.16-116.02-5.37-21.9-5.44-44.1-.41-66.17,.45-1.98,2.29-3.64,3.49-5.44l1.49,.77v47.11h8.81c4.59,.34,9.18,.91,13.77,.95,3.15,.02,6.31-.7,9.46-1.09h6.95c0-13.71-.02-26.84,0-39.97,.01-5.35,.91-5.95,5.67-3.82,1.04,.46,1.95,1.22,2.89,1.87,19.33,13.33,38.66,26.66,58.01,39.97,1.19,.82,2.56,1.98,3.85,1.98,8.27,.02,16.55-.23,24.82-.4,.04-3.78,.09-7.56,.13-11.35,1.36-3.82,.04-6.25-3.31-8.6-14.42-10.14-28.64-20.57-42.92-30.9,.07-.43,.14-.86,.22-1.29h46.66c-.26-4.74-.46-8.5-.66-12.26-.04-10.62-.08-21.23-.12-31.85Zm99.29,4.77c3.78,3.17,7.35,6.18,11.66,9.8-1.03-4.24-1.43-7.57-2.66-10.56-1.6-3.88-.51-6.45,2.53-8.9,2.47-1.99,4.65-4.34,7.83-7.35h-14.66c-1.54-5.12-3.05-10.11-4.81-15.93-1.32,4.72-2.41,8.52-3.43,12.33-.65,2.43-1.56,4.06-4.69,3.69-3.29-.39-6.67-.09-10-.09-.33,.39-.67,.77-1,1.16,11.68,5.54,12.59,14.05,7.81,24.15-.07,.14,.25,.47,.51,.91,3.58-3.02,7.12-6.01,10.92-9.21Zm-76.09,53.43c.62,.8,1.06,1.85,1.85,2.34,8.45,5.23,9.59,12.31,5.49,20.82-.17,.35-.31,.7-.46,1.06,.3,.33,.59,.66,.89,.99,3.47-2.8,6.95-5.6,10.53-8.49,3.53,2.96,7.13,5.98,11.6,9.74-1.17-4.65-1.84-8.2-2.99-11.58-1.07-3.14-.3-5.3,2.16-7.36,2.65-2.22,5.04-4.74,8.55-8.08h-14.79c-1.57-5.21-3.03-10.07-4.83-16.06-.37,1.94-.43,2.6-.62,3.23-1.26,4.08-1.37,9.7-4.14,11.82-2.95,2.25-8.44,1.17-13.23,1.58Z"/>
<path class="cls-2" d="m40.72 162.49c-3.15 0.39-6.31 1.12-9.46 1.09-4.59-0.03-9.18-0.61-13.77-0.95v-64.56c-2.5-0.18-4.6-0.34-7.2-0.53 6.96-18.05 16.81-33.83 30.42-48.58v16.92h102.21c0.04 10.62 0.08 21.23 0.12 31.85h-102.32v64.76z"/>
<path class="cls-2" d="M51.09,54.12c14.21-10.18,28.13-20.15,42.07-30.11,7.14-5.1,14.6-9.81,21.35-15.38,6.32-5.21,13.52-6.48,21.17-7,1.73-.12,3.46-.2,6.3-.37-9.41,6.75-17.95,12.92-26.53,19.03-13.35,9.5-26.72,18.96-40.1,28.42-9.34,6.61-11.58,7.11-24.26,5.41Z"/>
<path class="cls-3" d="M48.34,49.25c-1.32-5.43,.34-8.73,3.87-11.66,14.89-12.34,31.18-22.16,49.53-28.45,.75-.26,1.52-.45,2.28-.67,.22,.36,.43,.71,.65,1.07-18.65,13.15-37.3,26.3-56.33,39.72Z"/>
<path class="cls-2" d="M229.54,237.77h9.39c1.11-3.79,2.12-7.22,3.51-11.96,1.21,8.21,3.13,14.7,13.4,11.94-6.45,4.95-9.69,10.21-5.04,17.77-.42,.16-.85,.32-1.27,.48-2.33-1.85-4.65-3.69-7.22-5.73-2.27,1.83-4.53,3.65-6.8,5.48,2.43-7.55,.63-13.34-7.31-17.09,.45-.3,.9-.6,1.35-.89Z"/>
<path class="cls-2" d="M281.26,108.59q7.42-.94,11.4-10.23c2.33,8.79,4.45,16.75,6.92,26.04-3.2-2.57-5.22-4.19-7.46-5.99-2.07,1.72-4.07,3.38-6.82,5.67,.82-3.55,2.44-6.56,1.8-8.96-.63-2.36-3.55-4.12-5.83-6.53Z"/>
<path class="cls-1" d="M40.72,162.49V97.73c34.29,0,68.3,0,102.32,0,.2,3.76,.41,7.52,.66,12.26h-46.66c-.07,.43-.14,.86-.22,1.29,14.29,10.33,28.5,20.76,42.92,30.9,3.35,2.36,4.67,4.78,3.31,8.6-18.57-13.06-37.14-26.13-55.74-39.16-1.17-.82-2.52-1.84-3.83-1.9-4.92-.22-9.86-.09-16.17-.09,25.94,18.01,50.77,35.25,75.6,52.49-8.27,.16-16.55,.42-24.82,.4-1.29,0-2.66-1.16-3.85-1.98-19.35-13.3-38.68-26.64-58.01-39.97-.95-.65-1.86-1.41-2.89-1.87-4.75-2.13-5.65-1.53-5.67,3.82-.03,13.13,0,26.26,0,39.97h-6.95Z"/>
<path class="cls-2" d="M142.93,162.12c-24.83-17.24-49.66-34.48-75.6-52.49,6.31,0,11.25-.13,16.17,.09,1.31,.06,2.66,1.08,3.83,1.9,18.6,13.03,37.16,26.1,55.74,39.16-.04,3.78-.09,7.56-.13,11.35Z"/>
<path class="cls-1" d="M242.21,70.65c-3.8,3.2-7.33,6.19-10.92,9.21-.25-.43-.57-.76-.51-.91,4.78-10.1,3.87-18.61-7.81-24.15,.33-.39,.67-.77,1-1.16,3.34,0,6.71-.3,10,.09,3.13,.37,4.04-1.26,4.69-3.69,1.02-3.81,2.11-7.6,3.43-12.33,1.76,5.82,3.26,10.81,4.81,15.93h14.66c-3.18,3.01-5.36,5.36-7.83,7.35-3.04,2.45-4.13,5.02-2.53,8.9,1.23,2.99,1.63,6.33,2.66,10.56-4.31-3.62-7.88-6.62-11.66-9.8Zm-7.19,2.77c2.35-1.99,4.71-3.99,7.16-6.07,2.57,2.17,4.84,4.08,7.11,6-2.89-7.07-1.77-12.67,6.22-17.09-4.59-.36-7.49-.58-10.3-.8-1.01-3.32-1.95-6.38-3.07-10.06-1.14,3.76-2.08,6.87-3.06,10.09-3,.16-5.87,.32-8.73,.48,6.32,4.74,7.91,10.06,4.66,17.44Z"/>
<path class="cls-1" d="M166.12,124.08c4.8-.41,10.28,.67,13.23-1.58,2.77-2.11,2.88-7.73,4.14-11.82,.19-.62,.25-1.28,.62-3.23,1.8,5.99,3.26,10.85,4.83,16.06h14.79c-3.5,3.34-5.9,5.86-8.55,8.08-2.46,2.06-3.23,4.22-2.16,7.36,1.15,3.38,1.82,6.93,2.99,11.58-4.48-3.76-8.08-6.78-11.6-9.74-3.58,2.89-7.05,5.69-10.53,8.49-.3-.33-.59-.66-.89-.99,.15-.35,.29-.71,.46-1.06,4.1-8.5,2.96-15.59-5.49-20.82-.79-.49-1.24-1.54-1.85-2.34Zm29.82,2.17c-2.92-.24-5.83-.49-8.58-.72-1.06-3.41-2-6.42-3.12-10.06-1.15,3.86-2.07,6.96-2.99,10.04-3.07,.23-5.89,.45-8.71,.66-.35,.34-.7,.67-1.04,1.01,8.43,3.61,8.14,9.54,4.11,17.36,3.89-3.1,6.32-5.03,8.86-7.06,2.4,2.06,4.63,3.98,6.87,5.9-2.28-6.83-2.4-12.77,4.6-17.14Z"/>
<path class="cls-2" d="M235.02,73.42c3.25-7.37,1.66-12.69-4.66-17.44,2.87-.16,5.73-.31,8.73-.48,.98-3.22,1.92-6.33,3.06-10.09,1.12,3.68,2.06,6.74,3.07,10.06,2.81,.22,5.7,.44,10.3,.8-8,4.42-9.11,10.01-6.22,17.09-2.27-1.91-4.54-3.83-7.11-6-2.46,2.08-4.81,4.07-7.16,6.07Z"/>
<path class="cls-2" d="M195.94,126.25c-7,4.37-6.88,10.31-4.6,17.14-2.23-1.92-4.47-3.84-6.87-5.9-2.54,2.03-4.97,3.96-8.86,7.06,4.03-7.82,4.31-13.76-4.11-17.36,.35-.34,.7-.67,1.04-1.01,2.82-.21,5.63-.43,8.71-.66,.92-3.08,1.84-6.18,2.99-10.04,1.13,3.63,2.06,6.65,3.12,10.06,2.75,.23,5.66,.47,8.58,.72Z"/>
</svg>
