<svg xmlns="http://www.w3.org/2000/svg" id="Layer_1" data-name="Layer 1" viewBox="0 0 519.34 518.95"><defs><style>.cls-1{fill:#c1c1c1;stroke:#c1c1c1;stroke-miterlimit:10;stroke-width:5px}</style></defs><g id="niBs3V.tif"><path d="M3.26 254.76c4.06-10.39 11.85-14.18 22.74-13.89 15.14.41 30.3 0 45.45.14 12.29.12 20.54 9.24 18.85 20.51-1.24 8.3-8.3 14.74-17.45 14.89-17.31.28-34.63.24-51.95.02-9.1-.12-14.59-5.5-17.65-13.69v-7.99h.01Z" class="cls-1"/><path d="M47.43 276.98c-8.42 0-17.22-.06-26.53-.18-8.53-.11-14.58-4.8-18-13.93l-.02-.13v-8.9l.25.25c3.94-9.58 11.24-13.91 22.89-13.6 9.06.25 18.27.2 27.19.15 5.98-.03 12.17-.06 18.26 0 6.29.06 11.74 2.42 15.34 6.65 3.3 3.87 4.68 8.95 3.88 14.29-1.29 8.67-8.79 15.06-17.81 15.21-8.13.13-16.56.2-25.43.2Zm-43.8-14.31c3.3 8.77 9.11 13.28 17.28 13.38 19.11.24 36.1.24 51.94-.02 8.66-.14 15.84-6.27 17.08-14.57.77-5.13-.55-9.99-3.71-13.7-3.46-4.06-8.71-6.32-14.77-6.38-6.08-.06-12.26-.02-18.25 0-8.92.05-18.14.1-27.21-.15-11.5-.32-18.6 4.02-22.36 13.61v7.82Z" class="cls-1"/><path d="M47.41 276.98c-8.41 0-17.2-.06-26.51-.18-8.53-.11-14.58-4.8-18-13.93l-.02-.13v-8.9l.25.25c3.94-9.58 11.24-13.91 22.89-13.6 9.06.25 18.27.2 27.19.15 5.98-.03 12.17-.06 18.26 0 6.29.06 11.74 2.42 15.34 6.65 3.3 3.87 4.68 8.95 3.88 14.3-1.29 8.67-8.79 15.06-17.81 15.21-8.14.13-16.58.2-25.45.2ZM3.63 262.67c3.3 8.77 9.11 13.28 17.28 13.38 19.12.24 36.11.24 51.94-.02 8.66-.14 15.84-6.27 17.08-14.57.77-5.13-.55-9.99-3.71-13.7-3.46-4.06-8.71-6.32-14.77-6.38-6.08-.06-12.27-.02-18.25 0-8.92.05-18.14.1-27.21-.15-11.49-.32-18.6 4.02-22.36 13.61v7.82Z" class="cls-1"/><path d="M47.41 277.36c-8.36 0-17.28-.06-26.51-.18-8.7-.11-14.87-4.88-18.34-14.18l-.04-.19v-9.87l.49.49c4.06-9.39 11.41-13.61 23.03-13.31 9.04.25 18.25.2 27.15.15 5.65-.03 12.03-.07 18.29 0 6.4.06 11.95 2.47 15.62 6.78 3.38 3.96 4.78 9.14 3.97 14.59-1.32 8.85-8.97 15.38-18.18 15.53-8.19.13-16.52.2-25.46.2Zm42.95-21.17c.23 1.72.22 3.51-.06 5.33-1.27 8.48-8.61 14.75-17.45 14.89-6.39.1-12.95.17-19.76.19 6.82-.02 13.33-.08 19.76-.19 8.84-.14 16.18-6.41 17.45-14.89.27-1.82.29-3.61.06-5.33Zm-87.1 6.55.02.06c3.33 8.91 9.27 13.52 17.63 13.63.77 0 1.55.02 2.32.03-.77 0-1.54-.02-2.32-.03-8.34-.11-14.27-4.69-17.63-13.63zm.75-.14c3.24 8.57 8.93 12.97 16.91 13.08 19.08.24 36.06.24 51.93-.02 8.48-.14 15.51-6.13 16.72-14.25.75-5.02-.53-9.78-3.62-13.4-3.39-3.97-8.54-6.19-14.49-6.25-6.16-.06-12.58-.02-18.24 0-8.94.05-18.16.1-27.22-.15-11.28-.3-18.27 3.92-21.98 13.31v7.68Zm-.75-7.85v.03l.03-.07q1.23-3.135 2.94-5.55c-1.06 1.48-1.97 3.17-2.75 5.07l-.21.52Zm22.56-13.89h.19c9.05.25 18.26.2 27.17.15 5.7-.03 12.12-.07 18.28 0 .2 0 .39 0 .59.01-.19 0-.39-.01-.59-.01-6.26-.06-12.63-.02-18.25 0-8.94.05-18.15.1-27.2-.15zm489.44 21.88c-4.06 10.38-11.84 14.18-22.73 13.89-15.13-.41-30.29 0-45.43-.14-12.29-.11-20.55-9.2-18.89-20.46 1.22-8.31 8.25-14.78 17.39-14.93 17.3-.29 34.62-.26 51.92-.02 9.07.13 14.43 5.74 17.74 13.68v7.99Z" class="cls-1"/><path d="M493.68 277.02c-.38 0-.76 0-1.15-.02-9.05-.25-18.27-.2-27.19-.15-5.98.03-12.16.06-18.24 0-6.29-.06-11.75-2.41-15.35-6.63-3.3-3.86-4.69-8.93-3.9-14.26 1.28-8.69 8.74-15.1 17.75-15.25 16.27-.27 33.25-.28 51.93-.02 8.31.12 14.23 4.67 18.08 13.91l.03.14v7.99h-.35l.32.13c-3.77 9.63-10.75 14.14-21.94 14.14Zm-17.34-.95c5.4 0 10.83.04 16.21.19 11.48.3 18.58-4.01 22.34-13.59v-7.83c-3.72-8.89-9.41-13.27-17.37-13.38-18.67-.26-35.65-.25-51.91.02-8.64.14-15.8 6.29-17.03 14.61-.75 5.12.57 9.97 3.73 13.67 3.46 4.05 8.72 6.31 14.79 6.37s12.25.02 18.23 0c3.63-.02 7.3-.04 11-.04Z" class="cls-1"/><path d="M493.68 277.02c-.38 0-.76 0-1.15-.02-9.05-.25-18.27-.2-27.18-.15-5.98.03-12.16.07-18.25 0-6.29-.06-11.75-2.41-15.35-6.63-3.3-3.86-4.69-8.93-3.9-14.26 1.28-8.69 8.74-15.1 17.75-15.25 16.25-.27 33.24-.28 51.93-.02 8.32.12 14.23 4.67 18.08 13.91l.03.14v7.99h-.35l.32.13c-3.77 9.63-10.75 14.14-21.94 14.14Zm-17.35-.95c5.4 0 10.83.04 16.22.19 11.48.3 18.58-4.01 22.35-13.59v-7.83c-3.72-8.89-9.41-13.27-17.37-13.38-18.68-.26-35.66-.25-51.91.02-8.64.14-15.8 6.29-17.02 14.61-.75 5.12.57 9.97 3.73 13.67 3.47 4.05 8.72 6.31 14.79 6.37 6.08.06 12.26.02 18.23 0 3.62-.02 7.3-.04 10.99-.04Z" class="cls-1"/><path d="M493.68 277.4c-.38 0-.77 0-1.16-.02-9-.24-18.18-.19-27.05-.15h-.49c-5.86.03-11.93.07-17.89 0-6.4-.06-11.96-2.46-15.64-6.76-3.37-3.94-4.79-9.12-3.99-14.56 1.3-8.87 8.92-15.42 18.12-15.57 16.27-.27 33.26-.28 51.94-.02 8.48.12 14.51 4.75 18.42 14.14l.05.21v7.95l.09.03-.09.22v.24h-.1c-3.85 9.74-10.92 14.27-22.24 14.27Zm-17.34-.95c5.39 0 10.82.04 16.2.19 11.52.3 18.72-3.97 22.59-13.54-3.86 9.54-11.05 13.84-22.59 13.54-4.73-.13-9.88-.19-16.21-.19-3.69 0-7.36.02-10.98.04h.12c3.59-.02 7.22-.04 10.87-.04Zm-36.96-1.35c2.35.89 4.95 1.37 7.73 1.39-2.77-.03-5.38-.5-7.73-1.39Zm25.96 1.38h-.36c-1.36 0-2.73.02-4.1.02 1.38 0 2.75-.01 4.1-.02h.35Zm10.99-.79c6.34 0 11.49.06 16.23.19 11.18.3 18.15-3.86 21.87-13.06l-1.12-.44h1.21v-7.46c-3.66-8.69-9.22-12.97-17-13.08-18.67-.26-35.64-.25-51.9.02-8.46.14-15.46 6.15-16.66 14.29-.74 5.01.56 9.76 3.64 13.37 3.39 3.97 8.55 6.18 14.51 6.23 5.95.06 12.01.02 17.86 0h.37c3.62-.02 7.3-.04 10.99-.04Zm-36.96-.6Zm0 0Zm0 0Zm-5.12-2.94Zm0 0Zm0 0Zm0 0Zm0 0Zm0 0Zm-2.56-2.59c.12.16.25.31.38.46-.13-.15-.26-.31-.38-.46Zm83.62-7.15Zm-83.24-14.88a17.14 17.14 0 0 0-3.81 8.53q-.09.66-.15 1.32c.04-.44.08-.88.15-1.32a17.23 17.23 0 0 1 3.81-8.53Zm64.24-6.44c.42 0 .84.01 1.26.02 8.13.12 13.92 4.57 17.71 13.61l.03.07-.02-.07c-3.77-9.02-9.57-13.49-17.72-13.61-.42 0-.84-.01-1.26-.02Zm-49.19.01c-.49 0-.98.02-1.47.02-.52 0-1.04.04-1.55.09.51-.05 1.03-.08 1.55-.09.49 0 .98-.02 1.47-.02ZM255.26 514.28c-10.4-4.05-14.21-11.82-13.91-22.69.41-15.11 0-30.23.14-45.35.12-12.27 9.22-20.51 20.5-18.86 8.32 1.22 14.8 8.24 14.96 17.36.29 17.27.26 34.55.02 51.83-.13 9.06-5.75 14.41-13.71 17.7h-8Z" class="cls-1"/><path d="m255.64 514.82-.51-.19c-9.98-3.89-14.48-11.21-14.15-23.05.25-9.04.2-18.24.15-27.13-.03-5.97-.06-12.14 0-18.21.06-6.27 2.41-11.71 6.62-15.31 3.87-3.31 8.95-4.7 14.31-3.92 8.7 1.28 15.12 8.73 15.28 17.72.27 16.24.28 33.2.02 51.84-.12 8.31-4.68 14.21-13.94 18.04l-.14.03h-7.62v.17Zm-.33-.92h7.88c8.91-3.7 13.3-9.37 13.41-17.33.26-18.63.25-35.58-.02-51.82-.15-8.63-6.31-15.77-14.64-17-5.14-.75-10.01.58-13.71 3.75-4.04 3.46-6.3 8.7-6.36 14.75-.06 6.07-.02 12.23 0 18.2.05 8.9.1 18.11-.15 27.16-.32 11.44 4 18.53 13.58 22.29Z" class="cls-1"/><path d="m255.64 514.82-.51-.19c-9.98-3.89-14.48-11.21-14.15-23.05.25-9.04.2-18.23.15-27.12-.03-5.97-.06-12.14 0-18.22.06-6.27 2.41-11.7 6.62-15.31 3.87-3.31 8.95-4.71 14.31-3.92 8.7 1.28 15.12 8.73 15.28 17.72.27 16.23.28 33.18.02 51.84-.12 8.31-4.68 14.21-13.94 18.04l-.14.03h-7.62v.17Zm-.33-.92h7.88c8.91-3.7 13.29-9.37 13.41-17.33.26-18.65.25-35.6-.02-51.82-.15-8.62-6.31-15.77-14.64-17-5.14-.75-10.01.58-13.71 3.75-4.04 3.46-6.3 8.69-6.36 14.74-.06 6.07-.02 12.24 0 18.21.05 8.9.1 18.1-.15 27.15-.32 11.44 4 18.53 13.58 22.3Z" class="cls-1"/><path d="m256.01 515.36-1.02-.38c-10.15-3.95-14.72-11.39-14.39-23.41.25-9.02.2-18.2.15-27.08-.03-5.98-.07-12.14 0-18.25.06-6.38 2.46-11.91 6.75-15.59 3.95-3.38 9.14-4.81 14.61-4.01 8.88 1.3 15.44 8.91 15.6 18.09.27 16.25.28 33.21.02 51.85-.12 8.48-4.76 14.49-14.17 18.38l-.21.05h-7.32v.34Zm-4.52-2.86c1.15.66 2.41 1.26 3.77 1.78s8 0 8 0l-8.09-.03c-1.32-.52-2.55-1.1-3.68-1.75Zm25.65-34.23c-.03 5.93-.08 12.02-.17 18.3-.12 8.12-4.58 13.91-13.64 17.67l-.07.03.07-.02c9.04-3.74 13.52-9.53 13.64-17.68.09-6.28.14-12.37.17-18.3Zm-21.76 35.25h7.73c8.71-3.64 13-9.19 13.11-16.96.26-18.63.25-35.58-.02-51.81-.15-8.44-6.17-15.43-14.32-16.63-5.03-.74-9.79.56-13.42 3.66-3.96 3.39-6.17 8.52-6.23 14.46-.06 6.11-.02 12.25 0 18.2.05 8.92.1 18.12-.15 27.16-.31 11.24 3.91 18.21 13.28 21.91Zm-3.89-1.03Zm-9.91-68.11q-.075.915-.09 1.86c-.06 6.11-.02 12.26 0 18.21.05 8.92.1 18.11-.15 27.14-.04 1.28-.01 2.51.07 3.69-.08-1.18-.1-2.4-.07-3.69.25-9.03.2-18.22.15-27.11-.03-5.98-.07-12.13 0-18.24 0-.63.04-1.25.09-1.86Zm35.56 33.88Zm-.42-36.1c.13.84.21 1.7.22 2.58.13 7.78.2 15.73.21 23.94 0-8.22-.08-16.16-.21-23.94-.02-.88-.09-1.74-.22-2.58Zm-35.15 2.21Zm10.37-15.68a16.3 16.3 0 0 0-3.97 2.53c-1.68 1.43-3.05 3.17-4.1 5.13 1.05-1.96 2.42-3.7 4.1-5.13 1.21-1.04 2.55-1.88 3.97-2.53Zm8.7-1.46c.44.04.89.08 1.34.15 3.75.55 7.07 2.28 9.63 4.79a17.24 17.24 0 0 0-9.62-4.79c-.45-.07-.89-.12-1.34-.15Zm-8.7 1.46ZM388.1 258.14c-.52 68.32-54.46 128.92-128.46 129.02-70.5.09-128.49-56-129-127.87-.49-68.31 54.28-128.82 128.29-128.98 68.35-.15 128.07 54.24 129.17 127.83ZM259.35 165.7c-52.32-.08-93.13 40.52-93.31 92.83-.18 52.2 40.43 92.98 92.87 93.26s93.59-40.65 93.56-93.08c-.03-52.26-40.75-92.94-93.12-93.02Z" class="cls-1"/><path d="M259.47 387.54c-34.29 0-66.54-13.16-90.84-37.06-24.49-24.1-38.12-56.48-38.37-91.18-.24-33.86 13.41-67.2 37.45-91.47 24.13-24.35 56.52-37.81 91.21-37.88 33.71-.03 65.68 12.84 90.06 36.37 24.93 24.05 38.96 56.67 39.48 91.83-.26 33.88-13.32 65.97-36.78 90.36-24.17 25.13-56.86 39-92.05 39.04h-.17Zm-.25-256.85h-.29c-34.49.07-66.69 13.45-90.68 37.66-23.9 24.13-37.48 57.27-37.23 90.94.24 34.5 13.79 66.7 38.14 90.66 24.15 23.76 56.22 36.84 90.31 36.84h.17c34.98-.05 67.49-13.83 91.52-38.81 23.33-24.25 36.31-56.15 36.57-89.83-.52-34.96-14.46-67.39-39.25-91.3-24.18-23.32-55.87-36.16-89.26-36.16Zm.23 221.48h-.54c-25.46-.14-49.05-9.82-66.43-27.27s-26.9-41.02-26.81-66.37c.18-52.22 41.14-93.08 93.31-93.2s.38 0 .38 0c25.43.04 49.03 9.65 66.45 27.05 17.42 17.41 27.03 40.97 27.04 66.34.01 25.45-9.65 49.09-27.2 66.56-17.44 17.36-40.93 26.9-66.2 26.9Zm-.25-186.09c-25.15 0-48.5 9.46-65.79 26.66-17.32 17.23-26.91 40.6-26.99 65.8-.09 25.15 9.36 48.53 26.59 65.83 17.24 17.31 40.64 26.92 65.9 27.05h.53c25.07 0 48.37-9.46 65.67-26.68 17.41-17.33 26.99-40.78 26.98-66.03-.01-25.18-9.54-48.55-26.82-65.81-17.2-17.18-40.48-26.71-65.57-26.83h-.5Z" class="cls-1"/><path d="M259.47 387.53c-34.29 0-66.54-13.16-90.84-37.06-24.49-24.1-38.12-56.48-38.37-91.18-.24-33.86 13.41-67.2 37.45-91.47 24.13-24.36 56.52-37.81 91.21-37.88h.29c33.59 0 65.46 12.91 89.78 36.37 24.93 24.05 38.96 56.67 39.48 91.83-.26 33.88-13.32 65.97-36.78 90.36-24.17 25.13-56.87 38.99-92.06 39.04h-.17Zm-.25-256.85h-.29c-34.49.07-66.69 13.45-90.68 37.66-23.9 24.13-37.48 57.27-37.23 90.94.25 34.5 13.79 66.7 38.14 90.66 24.15 23.76 56.22 36.84 90.31 36.84h.17c34.98-.05 67.48-13.83 91.52-38.81 23.33-24.25 36.31-56.15 36.57-89.83-.52-34.96-14.46-67.39-39.25-91.3-24.18-23.32-55.87-36.16-89.26-36.16Zm.23 221.48h-.54c-25.46-.14-49.05-9.82-66.43-27.27s-26.9-41.02-26.81-66.37c.18-52.22 41.14-93.08 93.31-93.2s.38 0 .38 0c25.43.04 49.03 9.65 66.45 27.05 17.42 17.41 27.03 40.97 27.04 66.34.01 25.45-9.64 49.09-27.2 66.56-17.44 17.36-40.93 26.9-66.2 26.9Zm-.25-186.09c-25.15 0-48.5 9.46-65.79 26.66-17.32 17.23-26.91 40.6-26.99 65.8-.09 25.15 9.36 48.53 26.59 65.83 17.24 17.31 40.64 26.91 65.9 27.05h.53c25.07 0 48.37-9.46 65.67-26.68 17.41-17.33 26.99-40.78 26.98-66.03-.01-25.18-9.54-48.55-26.82-65.81-17.2-17.18-40.48-26.71-65.57-26.83h-.5Z" class="cls-1"/><path d="M259.64 387.91h-.17c-34.39 0-66.74-13.2-91.1-37.17-24.57-24.17-38.23-56.65-38.48-91.45-.24-33.96 13.45-67.4 37.56-91.74 24.2-24.43 56.69-37.92 91.48-38h.29c33.68 0 65.66 12.95 90.04 36.47 25.01 24.12 39.07 56.83 39.6 92.1-.26 33.99-13.36 66.17-36.88 90.62-24.24 25.2-57.03 39.11-92.33 39.16Zm-.17-.75Zm-112.91-66.35c5.91 10.71 13.4 20.61 22.33 29.4 23.93 23.55 55.63 36.64 89.37 36.94-33.74-.3-65.43-13.4-89.37-36.94a127.8 127.8 0 0 1-22.33-29.4Zm112.66-189.75h-.29c-34.39.08-66.5 13.41-90.42 37.55-23.83 24.06-37.37 57.11-37.13 90.67.24 34.4 13.75 66.51 38.03 90.39 24.08 23.69 56.06 36.74 90.05 36.74h.17c34.88-.05 67.29-13.79 91.25-38.7 23.26-24.18 36.21-55.99 36.47-89.57-.52-34.85-14.42-67.18-39.14-91.03-24.1-23.25-55.71-36.05-89-36.05ZM388.1 258.14c-.26 33.79-13.28 65.78-36.68 90.1-10.24 10.65-22.02 19.27-34.87 25.66 12.85-6.4 24.63-15.02 34.87-25.66 23.39-24.32 36.42-56.32 36.67-90.09Zm-257.46-.63v1.78zm257.45-.04Zm-59.46-106.82c7.14 4.58 13.87 9.9 20.1 15.92 24.7 23.83 38.66 56.08 39.35 90.88-.69-34.8-14.65-67.05-39.35-90.88a130.3 130.3 0 0 0-20.11-15.92Zm-194.79 79.6Zm.01-.05v.03zm22.27-48.3Zm103.1-51.6h-.29c-23.81.05-46.53 6.42-66.22 18.31 19.7-11.88 42.42-18.25 66.23-18.31h.29Zm.23 222.23h-.54c-25.56-.14-49.25-9.86-66.69-27.38-17.45-17.52-27.01-41.19-26.92-66.63.18-52.23 41.14-93.26 93.31-93.58s.38-.01.38-.01h.38c25.53.04 49.22 9.69 66.72 27.16 17.5 17.48 27.14 41.13 27.15 66.61.01 25.55-9.68 49.28-27.31 66.82-17.5 17.42-41.1 27.01-66.47 27.01Zm0-.75Zm-.91 0Zm-61.47-23.09c16.71 14.73 38.3 22.88 61.46 23.09-23.17-.21-44.75-8.36-61.46-23.09Zm62.63-162.26h-.5c-25.04 0-48.31 9.44-65.52 26.56-17.25 17.16-26.8 40.43-26.88 65.53-.09 25.05 9.32 48.33 26.48 65.57 17.17 17.24 40.48 26.8 65.64 26.94h.53c24.96 0 48.19-9.44 65.41-26.57 17.34-17.26 26.88-40.61 26.87-65.76-.01-25.08-9.5-48.35-26.71-65.55-17.12-17.11-40.32-26.6-65.31-26.72Zm-93.66 91.87v.22c-.08 24.36 8.74 47.07 24.91 64.25-16.17-17.18-24.99-39.89-24.91-64.25zm186.18 7.44c-1.39 19.66-8.65 37.95-20.91 52.75 12.26-14.8 19.52-33.09 20.91-52.75Zm0-.04v.02zm0-.04v.02zm0-.04v.01zm0-.04v.02zm.24-7.12Zm0-.04Zm0-.04Zm0-.04v.03zm-.3-7.31c.19 2.41.29 4.85.3 7.3 0-2.45-.11-4.89-.3-7.3Zm-186.13 7.21Zm0-.03Zm0-.03Zm186.13-7.19v.02zm0-.04Zm0-.04v.02zm-92.43-85.27c21.88.12 42.39 7.36 58.72 20.57-16.33-13.21-36.83-20.45-58.72-20.57Zm-.43 0h-.33c-.45.01-.91.02-1.36.02.53 0 1.05-.01 1.58-.01h.5-.38ZM241.45 46.53c0-7.98-.08-15.96.02-23.93.13-11.31 7.61-19.36 17.81-19.35 10.2 0 17.69 8.07 17.75 19.4.1 16.12.1 32.25 0 48.37-.07 11.29-7.65 19.4-17.81 19.38s-17.64-8.13-17.76-19.43c-.09-8.14-.02-16.29-.02-24.43Z" class="cls-1"/><path d="M259.26 90.77h-.04c-10.39-.02-18.01-8.35-18.13-19.8-.06-5.67-.05-11.43-.03-17 0-2.48.01-4.95.01-7.43v-7.38c-.02-5.43-.03-11.05.04-16.57.13-11.43 7.77-19.72 18.17-19.72h.02c10.44 0 18.06 8.33 18.12 19.77.1 16.05.1 32.32 0 48.37-.07 11.45-7.7 19.75-18.15 19.75Zm-17.44-44.08c0 2.42 0 4.85-.01 7.28-.01 5.57-.03 11.33.03 16.99.12 11.02 7.43 19.04 17.39 19.06h.04c10.01 0 17.33-7.99 17.4-19.01.1-16.05.1-32.32 0-48.37-.06-11.02-7.37-19.02-17.38-19.03h-.02c-9.97 0-17.29 7.98-17.42 18.98-.07 5.52-.05 11.13-.04 16.56 0 2.46.02 4.91.02 7.37v.17Z" class="cls-1"/><path d="M259.26 90.77h-.04c-10.39-.02-18.01-8.35-18.13-19.8-.06-5.66-.05-11.43-.03-17 0-2.48.01-4.96.01-7.43v-7.38c-.02-5.43-.03-11.05.04-16.57.13-11.43 7.77-19.72 18.17-19.72h.02c10.44 0 18.06 8.33 18.12 19.77.1 16.05.1 32.32 0 48.37-.07 11.45-7.7 19.75-18.15 19.75Zm-17.44-44.08c0 2.43 0 4.85-.01 7.28-.01 5.57-.03 11.33.03 16.99.12 11.02 7.43 19.04 17.39 19.06h.04c10.01 0 17.33-7.99 17.4-19.01.1-16.05.1-32.32 0-48.37-.06-11.02-7.37-19.02-17.38-19.03h-.02c-9.97 0-17.29 7.98-17.42 18.98-.07 5.52-.05 11.13-.04 16.56 0 2.46.02 4.91.02 7.37v.17Z" class="cls-1"/><path d="M259.26 91.15h-.04c-10.6-.02-18.39-8.5-18.51-20.17-.06-5.67-.05-11.43-.03-17 0-2.48.01-4.96.01-7.43v-7.38c-.02-5.48-.03-11.08.04-16.58.13-11.64 7.93-20.09 18.54-20.09 10.68 0 18.46 8.48 18.52 20.15.1 16.05.1 32.33 0 48.38-.07 11.66-7.86 20.12-18.52 20.12Zm-17.84-34.49c-.01 4.72-.01 9.55.04 14.3.12 11.24 7.59 19.41 17.76 19.43l.04.38v-.38c-10.21-.02-17.68-8.19-17.8-19.43-.05-4.76-.05-9.58-.04-14.3Zm.77-9.96c0 2.42 0 4.85-.01 7.27-.01 5.57-.03 11.33.03 16.99.11 10.81 7.27 18.67 17.01 18.69 9.83 0 16.99-7.84 17.06-18.63.1-16.04.1-32.32 0-48.36-.06-10.8-7.21-18.65-17-18.65-9.77 0-16.94 7.83-17.06 18.61-.07 5.49-.05 11.07-.04 16.48v.51c0 2.31.02 4.62.02 6.94v.18Zm34.83-24.28v.23zm-35.59 19.27v4.87c-.01.85-.01 1.7-.01 2.55v-7.42Zm.88-25.17a23.2 23.2 0 0 0-.85 6.07c-.07 5.49-.05 11.08-.04 16.49v.23-.15c-.02-5.48-.03-11.07.03-16.56.02-2.15.32-4.18.85-6.07Zm16.94-13.28c7.96 0 14.24 4.94 16.67 12.4-2.43-7.46-8.71-12.39-16.66-12.4zM426.5 72.99c8.7.38 14.02 3.3 17.29 9.36 3.18 5.9 2.81 11.82-.8 17.46-.89 1.39-2 2.66-3.16 3.83-11.74 11.77-23.43 23.59-35.31 35.22-8.7 8.51-20.16 8.02-26.93-.87-4.81-6.31-5.1-15.39.42-21.11 13.03-13.52 26.37-26.75 39.92-39.75 2.55-2.44 6.65-3.26 8.57-4.15Z" class="cls-1"/><path d="M390.9 145.33c-.4 0-.79-.01-1.19-.04-4.8-.35-9.21-2.86-12.42-7.08-5.13-6.73-4.94-16.02.45-21.6 12.49-12.96 25.55-25.96 39.93-39.76 1.91-1.82 4.56-2.74 6.7-3.48.78-.27 1.46-.5 1.98-.74l.53-.25v.24c8.6.45 13.93 3.4 17.25 9.54 3.22 5.97 2.94 11.97-.81 17.84-.8 1.24-1.85 2.52-3.21 3.89l-7.36 7.39c-9.12 9.16-18.56 18.64-27.95 27.83-4.12 4.03-9.01 6.21-13.88 6.21Zm35.65-71.97c-.53.24-1.19.46-1.94.72-2.07.71-4.64 1.6-6.42 3.31-14.38 13.79-27.43 26.79-39.91 39.74-5.13 5.32-5.3 14.18-.39 20.62 3.08 4.04 7.29 6.45 11.88 6.78 5.05.37 10.19-1.75 14.49-5.95 9.39-9.2 18.82-18.67 27.94-27.83l7.36-7.39c1.32-1.34 2.34-2.57 3.11-3.77 3.6-5.62 3.86-11.37.79-17.08-3.21-5.95-8.43-8.78-16.91-9.16Z" class="cls-1"/><path d="M390.9 145.33c-.4 0-.79-.01-1.19-.04-4.8-.35-9.21-2.86-12.42-7.08-5.13-6.73-4.94-16.02.45-21.6 12.49-12.96 25.55-25.96 39.93-39.76 1.91-1.82 4.56-2.74 6.7-3.48.78-.27 1.46-.5 1.98-.74l.53-.25v.24c8.6.45 13.93 3.4 17.25 9.54 3.22 5.97 2.94 11.97-.81 17.84-.8 1.25-1.85 2.52-3.21 3.89l-7.34 7.37c-9.13 9.17-18.57 18.65-27.97 27.86-4.12 4.03-9.01 6.21-13.88 6.21Zm35.66-71.97c-.53.24-1.19.46-1.94.72-2.07.71-4.64 1.6-6.42 3.31-14.38 13.79-27.43 26.79-39.91 39.74-5.13 5.32-5.3 14.18-.39 20.62 3.08 4.04 7.29 6.45 11.88 6.78 5.04.37 10.19-1.75 14.49-5.95 9.4-9.2 18.84-18.68 27.97-27.85l7.34-7.37c1.32-1.33 2.34-2.57 3.11-3.77 3.6-5.62 3.86-11.37.79-17.08-3.21-5.95-8.43-8.78-16.91-9.16Z" class="cls-1"/><path d="M390.9 145.71c-.4 0-.81-.01-1.21-.04-4.91-.36-9.42-2.92-12.69-7.22-5.24-6.88-5.04-16.37.48-22.08 12.48-12.95 25.54-25.96 39.94-39.77 1.96-1.88 4.66-2.81 6.83-3.56.78-.27 1.45-.5 1.94-.73l1.06-.49v.47c8.54.52 13.86 3.52 17.2 9.72 3.29 6.1 3.01 12.23-.83 18.22-.81 1.27-1.88 2.56-3.26 3.95l-7.34 7.37c-9.11 9.15-18.54 18.62-27.98 27.86-4.16 4.07-9.19 6.31-14.15 6.31Zm-2.33-.92c.39.06.78.1 1.17.13.66.05 1.33.06 1.99.02-.67.03-1.33.03-1.99-.02-.39-.03-.78-.07-1.17-.13Zm38.05-71.04c-.53.23-1.16.45-1.88.7-2.04.7-4.56 1.58-6.29 3.23-14.37 13.79-27.42 26.79-39.9 39.73-5 5.19-5.16 13.84-.36 20.13 3.01 3.95 7.13 6.31 11.61 6.64 4.93.35 9.98-1.72 14.2-5.85 9.36-9.16 18.75-18.59 27.84-27.72l7.47-7.5c1.3-1.31 2.3-2.53 3.06-3.71 3.52-5.5 3.78-11.12.77-16.7-3.13-5.8-8.22-8.57-16.51-8.96Zm3.17 39.97c-8.28 8.32-16.79 16.84-25.27 25.14-.34.33-.68.65-1.02.95.35-.3.69-.62 1.02-.95 8.51-8.33 17-16.84 25.27-25.14Zm-55.16 18.44c.6 2.05 1.58 4.03 2.95 5.83.21.27.42.53.63.79-.21-.25-.42-.52-.63-.79-1.37-1.8-2.36-3.79-2.95-5.83Zm66.9-30.37c-.5.6-1.07 1.22-1.7 1.86l-5.67 5.69 5.67-5.69c.63-.64 1.2-1.26 1.7-1.86ZM426.48 73h.09c8.63.4 13.94 3.28 17.22 9.36 1.58 2.93 2.3 5.86 2.16 8.78.14-2.92-.58-5.86-2.16-8.78-3.25-6.02-8.47-8.9-16.93-9.34l-.36-.03c-.4.19-.89.37-1.45.56.52-.18.97-.35 1.35-.52l.08-.04ZM144.49 392.4c-1.03 1.96-2.31 6.5-5.19 9.52-12.17 12.73-24.69 25.14-37.34 37.41-7.19 6.97-17.37 6.71-24.18-.02-6.61-6.53-7.25-16.74-.51-23.77 12.53-13.07 25.41-25.83 38.47-38.38 5.34-5.12 12.1-6.19 18.94-2.81 6.35 3.13 9.55 8.49 9.81 18.05Z" class="cls-1"/><path d="M89.84 444.84c-4.39 0-8.77-1.75-12.32-5.27-6.97-6.89-7.19-17.33-.52-24.3 11.56-12.06 24.15-24.62 38.48-38.39 5.52-5.3 12.4-6.32 19.37-2.88 6.67 3.29 9.76 8.96 10.02 18.38v.1l-.04.09c-.27.51-.56 1.21-.89 2.02-.93 2.25-2.2 5.32-4.36 7.58-10.69 11.18-22.56 23.07-37.35 37.42-3.61 3.5-8 5.24-12.38 5.24Zm37.02-72.07c-3.92 0-7.63 1.57-10.85 4.66-14.32 13.76-26.9 26.31-38.46 38.37-6.39 6.66-6.17 16.65.5 23.24 6.79 6.71 16.74 6.72 23.66.02 14.78-14.34 26.65-26.22 37.33-37.4 2.06-2.16 3.3-5.16 4.21-7.35.32-.79.61-1.47.88-2-.27-9.05-3.23-14.49-9.6-17.63-2.59-1.28-5.17-1.91-7.66-1.91Z" class="cls-1"/><path d="M89.84 444.84c-4.39 0-8.77-1.75-12.32-5.26-6.97-6.89-7.19-17.33-.52-24.3 11.58-12.08 24.17-24.64 38.48-38.39 5.52-5.3 12.4-6.32 19.37-2.88 6.67 3.29 9.76 8.96 10.02 18.38v.1l-.04.09c-.27.51-.56 1.21-.89 2.02-.93 2.25-2.2 5.32-4.36 7.58-10.7 11.19-22.56 23.08-37.35 37.42-3.61 3.49-8 5.24-12.38 5.24Zm37.01-72.07c-3.92 0-7.63 1.57-10.85 4.66-14.3 13.74-26.88 26.29-38.46 38.37-6.38 6.66-6.17 16.65.5 23.24 6.79 6.71 16.74 6.72 23.66.02 14.78-14.33 26.64-26.22 37.33-37.4 2.06-2.16 3.3-5.16 4.21-7.35.32-.78.61-1.47.88-2-.27-9.05-3.23-14.49-9.6-17.63-2.59-1.28-5.17-1.92-7.66-1.92Z" class="cls-1"/><path d="M89.84 445.22c-4.61 0-9.08-1.91-12.58-5.37-7.12-7.03-7.35-17.71-.52-24.82 11.6-12.09 24.19-24.66 38.49-38.4 5.65-5.41 12.68-6.46 19.79-2.94 6.81 3.36 9.97 9.13 10.23 18.7v.2l-.09.17c-.26.5-.55 1.19-.88 1.99-.94 2.27-2.23 5.38-4.43 7.7-10.7 11.19-22.57 23.09-37.36 37.43-3.56 3.45-8.05 5.35-12.65 5.35Zm-3.65-1.17c2.33.54 4.78.56 7.12.04-2.36.51-4.77.5-7.12-.04Zm40.66-70.9c-3.88 0-7.44 1.53-10.59 4.55-14.3 13.74-26.87 26.28-38.45 38.36-6.24 6.51-6.03 16.27.5 22.72 6.64 6.56 16.37 6.57 23.13.01 14.78-14.33 26.64-26.21 37.32-37.39 2.01-2.11 3.24-5.07 4.13-7.23.32-.76.58-1.41.85-1.94-.28-8.84-3.18-14.15-9.39-17.21-2.52-1.25-5.04-1.88-7.5-1.88Zm6.94 34.49c-9.26 9.54-19.54 19.77-31.83 31.7-.24.23-.48.46-.73.68.25-.22.49-.44.73-.68 12.29-11.93 22.57-22.16 31.83-31.7Zm-61.27 19c-.12 4.22 1.4 8.49 4.56 11.96-3.16-3.47-4.69-7.73-4.56-11.96Zm54.32-54.24c-4.01 0-7.8 1.6-11.1 4.77-14.3 13.74-26.88 26.29-38.47 38.38-.25.26-.48.52-.71.78.23-.27.46-.53.71-.78 11.58-12.08 24.17-24.63 38.47-38.38 5.02-4.81 11.43-6.02 17.77-3.35-2.25-.95-4.49-1.42-6.67-1.42Zm17.33 20.66c-.18.41-.38.87-.59 1.38-.67 1.62-1.52 3.67-2.74 5.52 1.22-1.85 2.07-3.89 2.74-5.5.21-.52.41-.99.59-1.4Zm.31-.66-.02.05s.02-.03.02-.05Zm0-.3Zm-.07-1.43c.03.47.06.94.07 1.43-.02-.49-.04-.96-.07-1.43Zm0-.01v.01zm0 0Zm0-.01Zm.99-263.4c-1.2 7.62-4.55 12.84-10.93 15.92-6.46 3.12-12.82 2.34-18.13-2.33-5.86-5.14-11.24-10.84-16.78-16.34-7.31-7.26-14.71-14.44-21.82-21.9-5.61-5.89-6.61-13.12-3.33-19.75 3.1-6.26 9.77-10.47 16.65-9.53 3.44.47 7.43 1.77 9.84 4.08 13.33 12.75 26.41 25.77 39.17 39.08 2.65 2.76 3.6 7.14 5.33 10.77Z" class="cls-1"/><path d="M126.85 145.4c-3.85 0-7.52-1.44-10.75-4.28-4.36-3.83-8.52-8.03-12.55-12.09-1.41-1.43-2.83-2.85-4.25-4.27-1.68-1.67-3.36-3.33-5.05-5-5.55-5.49-11.3-11.16-16.78-16.91-5.59-5.87-6.83-13.23-3.39-20.18 3.29-6.65 10.3-10.65 17.04-9.73 1.99.27 6.97 1.23 10.05 4.18 13.63 13.04 26.81 26.19 39.18 39.09 1.87 1.94 2.92 4.67 3.93 7.32.46 1.19.93 2.42 1.47 3.55l.05.1-.02.11c-1.26 7.99-4.8 13.14-11.14 16.2-2.62 1.27-5.24 1.89-7.79 1.89ZM89.17 73.57c-5.83 0-11.57 3.69-14.42 9.45-3.29 6.65-2.1 13.69 3.27 19.32 5.47 5.74 11.21 11.41 16.76 16.9 1.69 1.67 3.37 3.33 5.05 5 1.43 1.42 2.84 2.84 4.25 4.27 4.01 4.05 8.16 8.24 12.51 12.05 5.2 4.57 11.33 5.36 17.72 2.27 6.07-2.93 9.47-7.87 10.7-15.53-.53-1.13-.99-2.33-1.44-3.5-.99-2.57-2.01-5.23-3.77-7.06-12.36-12.9-25.54-26.04-39.16-39.07-2.03-1.94-5.63-3.43-9.63-3.98-.61-.08-1.23-.12-1.84-.12Z" class="cls-1"/><path d="M126.85 145.4c-3.85 0-7.52-1.44-10.75-4.28-4.36-3.83-8.52-8.03-12.55-12.09-1.41-1.43-2.82-2.85-4.25-4.26-1.69-1.67-3.37-3.34-5.06-5.01-5.55-5.48-11.29-11.15-16.76-16.9-5.59-5.87-6.83-13.23-3.39-20.18 3.29-6.65 10.3-10.65 17.04-9.73 1.99.27 6.96 1.22 10.05 4.18 13.62 13.03 26.81 26.18 39.18 39.09 1.87 1.94 2.92 4.67 3.93 7.32.46 1.19.93 2.42 1.47 3.55l.05.1-.02.12c-1.26 7.99-4.8 13.14-11.14 16.2-2.62 1.27-5.24 1.89-7.79 1.89ZM89.17 73.57c-5.83 0-11.57 3.69-14.43 9.45-3.29 6.65-2.1 13.69 3.27 19.32 5.47 5.74 11.2 11.4 16.75 16.88l5.07 5.01c1.42 1.41 2.84 2.84 4.25 4.27 4.02 4.05 8.17 8.24 12.51 12.06 5.2 4.57 11.33 5.36 17.72 2.27 6.07-2.93 9.47-7.87 10.7-15.53-.53-1.13-.99-2.33-1.44-3.5-.99-2.57-2.01-5.23-3.77-7.06-12.37-12.9-25.54-26.05-39.16-39.07-2.03-1.95-5.63-3.43-9.63-3.98-.61-.08-1.23-.12-1.84-.12Z" class="cls-1"/><path d="M126.85 145.78c-3.94 0-7.75-1.51-11-4.37-4.37-3.83-8.53-8.03-12.55-12.1l-.1-.1c-1.38-1.4-2.77-2.79-4.16-4.18-1.69-1.67-3.37-3.34-5.06-5.01-5.55-5.48-11.29-11.15-16.77-16.9-5.71-5.99-6.97-13.5-3.46-20.6 3.36-6.79 10.52-10.88 17.42-9.94 2.03.28 7.09 1.25 10.26 4.28 13.63 13.03 26.81 26.19 39.19 39.1 1.92 2 2.98 4.77 4.01 7.44.45 1.18.92 2.41 1.46 3.53l.1.21-.04.23c-1.28 8.12-4.88 13.36-11.35 16.48-2.65 1.28-5.33 1.93-7.95 1.93ZM89.17 73.95c-5.78 0-11.31 3.63-14.09 9.24-3.21 6.5-2.05 13.39 3.2 18.9 5.45 5.72 11.17 11.37 16.71 16.84 1.72 1.7 3.41 3.37 5.1 5.05 1.4 1.39 2.78 2.79 4.17 4.18l.09.09c4.01 4.05 8.16 8.24 12.49 12.04 5.08 4.47 11.06 5.23 17.31 2.22 5.92-2.86 9.25-7.67 10.48-15.13-.52-1.11-.97-2.28-1.4-3.42-.97-2.54-1.98-5.16-3.69-6.94-12.36-12.9-25.54-26.04-39.15-39.06-1.97-1.89-5.5-3.34-9.42-3.88-.59-.08-1.19-.12-1.79-.12Zm48.9 67.03a20.7 20.7 0 0 1-3.6 2.2c-.16.08-.32.15-.48.22.16-.07.32-.15.48-.22a20.7 20.7 0 0 0 3.6-2.2Zm6.1-8.7Zm1.21-5.06.02.04-.02.11c-.29 1.78-.69 3.41-1.21 4.91.53-1.53.94-3.2 1.23-5.02 0-.01-.01-.03-.02-.04Zm-49.24-6.09 2.95 2.92c-.98-.98-1.97-1.95-2.95-2.92Zm45.07-3.2c1.05 1.56 1.8 3.42 2.51 5.26-.71-1.84-1.46-3.7-2.51-5.26ZM75.25 99.48c.69 1.08 1.52 2.13 2.48 3.14 5.11 5.36 10.45 10.66 15.65 15.79-5.22-5.16-10.55-10.44-15.65-15.79-.96-1-1.78-2.05-2.48-3.14Zm35.5-12.53c6.77 6.6 13.4 13.22 19.84 19.79-6.45-6.57-13.08-13.19-19.84-19.79ZM93.9 73.9c2.8.73 5.24 1.92 6.83 3.37-1.96-1.8-4.66-2.81-6.83-3.37Zm-3.03-.58c.06 0 .12.01.17.02.05 0 .11.01.16.02-.05 0-.11-.02-.16-.02-.06 0-.12-.02-.17-.02Zm354.57 351.4c-.63 9.75-4.02 15.18-10.69 18.14-6.94 3.08-13.48 1.74-18.87-3.46-9.33-9.01-18.42-18.26-27.6-27.42-3.41-3.41-6.94-6.71-10.18-10.28-6.66-7.35-6.35-17.49.55-24.15 6.89-6.64 17.18-6.71 24.19.17 12.34 12.12 24.7 24.23 36.63 36.74 3.12 3.27 4.69 8 5.96 10.28v-.02Z" class="cls-1"/><path d="M427.49 444.88c-4.26 0-8.28-1.75-11.87-5.21-6.79-6.55-13.56-13.35-20.11-19.92-2.5-2.5-4.99-5.01-7.5-7.51-1-1-2-1.98-3-2.97-2.4-2.36-4.89-4.79-7.19-7.33-6.76-7.46-6.52-17.83.57-24.67 7.06-6.8 17.68-6.73 24.71.17l1.26 1.24c11.73 11.52 23.85 23.42 35.38 35.51 2.32 2.43 3.81 5.69 4.91 8.07.28.6.53 1.15.77 1.63l.52-1.08-.12 1.93c-.63 9.69-3.99 15.39-10.91 18.46-2.53 1.12-5.01 1.68-7.41 1.68Zm-36.85-71.98c-4.17 0-8.33 1.64-11.73 4.92-6.78 6.55-7.01 16.48-.53 23.63 2.29 2.52 4.76 4.95 7.16 7.29 1.01.99 2.01 1.97 3.01 2.97 2.5 2.5 5 5 7.5 7.51 6.55 6.57 13.31 13.36 20.1 19.91 5.38 5.19 11.76 6.36 18.46 3.39 6.6-2.93 9.83-8.38 10.46-17.68-.34-.62-.69-1.38-1.09-2.26-1.13-2.46-2.54-5.53-4.77-7.86-11.52-12.08-23.64-23.98-35.36-35.49l-1.26-1.24c-3.45-3.39-7.7-5.09-11.94-5.09Z" class="cls-1"/><path d="M427.49 444.88c-4.26 0-8.28-1.75-11.87-5.21-6.78-6.55-13.55-13.34-20.09-19.9-2.5-2.51-5-5.02-7.51-7.52-1-1-2-1.98-3.01-2.97-2.4-2.35-4.88-4.79-7.19-7.33-6.76-7.46-6.52-17.83.57-24.67 7.06-6.8 17.68-6.73 24.71.17l1.26 1.24c11.73 11.52 23.85 23.42 35.38 35.51 2.32 2.43 3.82 5.69 4.91 8.07.28.61.53 1.16.77 1.65l.5-1-.11 1.83c-.63 9.69-3.99 15.39-10.91 18.46-2.53 1.12-5.01 1.68-7.41 1.68Zm-36.85-71.98c-4.17 0-8.33 1.64-11.73 4.92-6.78 6.55-7.01 16.48-.53 23.63 2.29 2.52 4.76 4.95 7.15 7.29 1.01.99 2.02 1.98 3.01 2.97 2.51 2.5 5.01 5.01 7.51 7.52 6.54 6.56 13.3 13.35 20.08 19.89 5.38 5.19 11.76 6.36 18.46 3.39 6.6-2.93 9.83-8.38 10.46-17.68-.34-.62-.69-1.38-1.09-2.25-1.13-2.46-2.54-5.53-4.77-7.87-11.52-12.08-23.64-23.98-35.36-35.5l-1.26-1.24c-3.45-3.39-7.7-5.09-11.94-5.09Z" class="cls-1"/><path d="M427.49 445.26c-4.39 0-8.47-1.79-12.13-5.32-6.73-6.49-13.44-13.22-19.93-19.73l-.64-.64c-2.35-2.35-4.69-4.71-7.04-7.05-.95-.95-1.91-1.89-2.86-2.83l-.14-.14c-2.39-2.35-4.87-4.77-7.2-7.34-6.9-7.61-6.65-18.21.58-25.19 7.21-6.95 18.06-6.87 25.24.17l1.26 1.24c11.73 11.52 23.85 23.42 35.39 35.52 2.36 2.47 6.18 10.83 6.18 10.83-.64 9.85-4.07 15.64-11.13 18.78-2.56 1.14-5.1 1.71-7.57 1.71Zm-16.46-10.58c1.61 1.58 3.23 3.16 4.85 4.72 5.49 5.29 12.03 6.5 18.87 3.46-6.85 3.04-13.37 1.84-18.87-3.46-1.62-1.57-3.24-3.14-4.85-4.72Zm-20.39-61.4c-4.18 0-8.25 1.71-11.47 4.81-6.63 6.4-6.85 16.12-.51 23.11 2.27 2.51 4.74 4.93 7.13 7.27l.14.14c.96.95 1.93 1.89 2.88 2.85 2.51 2.5 5.01 5.01 7.51 7.52 6.52 6.54 13.26 13.3 20.08 19.89 5.26 5.07 11.5 6.22 18.04 3.31 6.43-2.86 9.59-8.18 10.23-17.25-.33-.62-.68-1.38-1.05-2.18-1.12-2.44-2.51-5.47-4.7-7.76-11.52-12.08-23.64-23.98-35.35-35.49l-1.26-1.24c-3.27-3.21-7.42-4.98-11.67-4.98Zm54.79 51.46v-.02l-.01.02ZM392 415.7c1.11 1.11 2.21 2.22 3.32 3.33l.64.64q1.755 1.77 3.54 3.54c-1.24-1.25-2.48-2.49-3.71-3.72-1.26-1.27-2.53-2.53-3.79-3.8Zm51.79 5.6c.18.38.35.75.52 1.12.1.22.2.44.3.65-.09-.21-.19-.42-.29-.64-.16-.36-.34-.73-.52-1.12Zm-11.02-13.79c2.25 2.31 4.49 4.62 6.7 6.95.08.08.16.17.24.26-.08-.09-.16-.17-.24-.26-2.21-2.32-4.45-4.64-6.7-6.95Zm-46.25 2.72c.55.54 1.09 1.08 1.64 1.62-.54-.54-1.09-1.08-1.64-1.62Zm-9.43-9.75c.32.41.66.82 1.02 1.21 1.83 2.02 3.76 3.96 5.67 5.84-1.92-1.9-3.86-3.84-5.67-5.84-.36-.4-.7-.8-1.02-1.21Zm1.73-23.09c-.05.05-.11.1-.16.15-.17.16-.33.33-.49.49.16-.17.32-.33.49-.49.05-.05.11-.1.16-.15Z" class="cls-1"/></g></svg>