<svg xmlns="http://www.w3.org/2000/svg" id="Layer_1" version="1.1" viewBox="0 0 1199 600"><defs><style>.st1{fill:#232d65}.st3{fill:#242e65}.st4{fill:#c82230}</style></defs><g id="JOiWsG"><path d="M660 0v240h540v120H660v240H540V360H0V240h540V0z" style="fill:#c8222f"/><path d="m135 0 365 183V0h40v240H0v-40l265-.5L0 67V45l310.5 155H399L1 0zm1065 360v40l-265 .5L1200 533v22L889.5 400H801l398 200h-134L700 417v183h-40V360zM700 0v183L1065 0h45L712 200h88.5L1199 0h1v67L935 199.5l265 .5v40H660V0z" style="fill:#fefefe"/><path d="M0 360h540v240h-40V417L135 600H90l398-200h-88.5L1 600H0v-67l265-132.5L0 400z" style="fill:#fefdfe"/><path d="M500 0v183L135 0zm565 0L700 183V0zM500 600H135l365-183zm565 0H700V417z" class="st1"/><path d="M1199 0 800.5 200H712L1110 0zM1 600l398.5-200H488L90 600z" class="st4"/><path d="m0 67 265 132.5L0 200z" class="st1"/><path d="m1200 200-265-.5L1200 67z" class="st3"/><path d="m0 400 265 .5L0 533z" class="st1"/><path d="M1200 400v133L935 400.5z" class="st3"/><path d="m1 0 398 200h-88.5L0 45V0zm1199 555v45h-1L801 400h88.5z" class="st4"/></g></svg>