<?xml version="1.0" encoding="utf-8"?>
<!-- Generator: Adobe Illustrator 26.5.0, SVG Export Plug-In . SVG Version: 6.00 Build 0)  -->
<svg version="1.1" id="Layer_1" xmlns="http://www.w3.org/2000/svg" xmlns:xlink="http://www.w3.org/1999/xlink" x="0px" y="0px"
	 viewBox="0 0 1198.97 1693" style="enable-background:new 0 0 1198.97 1693;" xml:space="preserve">
<style type="text/css">
	.st0{fill:#264DE3;}
	.st1{fill:#2965F0;}
</style>
<g>
	<g>
		<path class="st0" d="M601.01,1693c-1.33,0-2.67,0-4,0c-1.17-1.41-2.98-1.38-4.51-1.81c-18.89-5.3-37.81-10.48-56.72-15.73
			c-140.82-39.12-281.64-78.25-422.48-117.29c-2.96-0.82-4.27-1.83-4.54-5.16c-1.89-23.24-4.04-46.45-6.13-69.67
			c-2.86-31.84-5.76-63.69-8.6-95.53c-2.81-31.52-5.53-63.04-8.34-94.56c-2.84-31.85-5.78-63.68-8.62-95.53
			c-2.82-31.68-5.53-63.37-8.36-95.05c-3.17-35.5-6.45-70.98-9.62-106.48c-2.84-31.85-5.55-63.71-8.4-95.55
			c-3.49-39.14-7.1-78.28-10.59-117.42c-2.84-31.85-5.55-63.71-8.39-95.56c-3.17-35.5-6.45-70.98-9.61-106.48
			c-3.16-35.5-6.22-71-9.36-106.5c-3.25-36.66-6.45-73.32-9.89-109.96c-0.84-8.91-0.9-17.92-2.85-26.71c0-1.67,0-3.33,0-5
			c2.33-0.06,4.66-0.16,6.99-0.16c394.96-0.01,789.91-0.01,1184.87-0.01c1.17,0,2.35,0.14,3.5-0.03c3.37-0.5,3.84,1.14,3.53,4.04
			c-0.82,7.61-1.4,15.26-2.09,22.89c-4.54,50.25-9.13,100.5-13.61,150.76c-3.85,43.13-7.54,86.27-11.4,129.39
			c-4.49,50.26-9.12,100.5-13.61,150.76c-4.18,46.78-8.2,93.56-12.38,140.34c-4.49,50.26-9.12,100.5-13.61,150.76
			c-4.18,46.78-8.2,93.56-12.38,140.34c-5.17,57.89-10.45,115.77-15.65,173.65c-4.69,52.25-9.38,104.49-13.89,156.76
			c-0.3,3.45-1.43,4.72-4.64,5.61c-54.98,15.15-109.91,30.46-164.87,45.69c-95.5,26.47-191.01,52.86-286.48,79.42
			C623.16,1686.31,611.78,1688.64,601.01,1693z M599.99,1433.22c0.01,13.83,0.02,27.66,0.02,41.5c0,36.16-0.01,72.33,0.01,108.49
			c0,5.13,0.59,5.49,5.52,4.08c3.67-1.05,7.36-2,11.03-3.02c35.15-9.75,70.3-19.52,105.46-29.26c32.12-8.9,64.24-17.77,96.36-26.67
			c35.31-9.78,70.63-19.57,105.94-29.37c22.37-6.21,44.71-12.49,67.11-18.59c4.07-1.11,5.63-3.3,5.66-7.47
			c0.05-5.62,0.6-11.25,1.11-16.86c1.22-13.51,2.58-27,3.8-40.51c0.79-8.74,1.38-17.5,2.16-26.24c1.24-14,2.6-28,3.85-42
			c0.78-8.74,1.39-17.5,2.19-26.23c1.22-13.34,2.59-26.66,3.8-40.01c0.81-8.9,1.37-17.83,2.16-26.74c1.24-14,2.59-28,3.85-42
			c0.76-8.41,1.4-16.83,2.18-25.23c1.24-13.34,2.6-26.66,3.81-40.01c0.81-8.9,1.37-17.83,2.16-26.74c1.24-14,2.6-28,3.85-42
			c0.78-8.74,1.39-17.5,2.19-26.23c1.23-13.51,2.59-27,3.81-40.5c0.79-8.74,1.37-17.5,2.15-26.24c1.24-14,2.59-28,3.86-42
			c0.76-8.41,1.39-16.83,2.17-25.23c1.24-13.34,2.61-26.66,3.81-40c0.81-8.9,1.36-17.83,2.15-26.74c1.24-14,2.6-28,3.86-42
			c0.76-8.41,1.41-16.83,2.17-25.24c1.25-13.84,2.6-27.66,3.83-41.5c0.78-8.74,1.21-17.52,2.17-26.23
			c1.57-14.14,2.86-28.31,3.86-42.5c0.58-8.26,1.36-16.5,2.13-24.74c1.24-13.17,2.62-26.33,3.82-39.5
			c0.82-9.07,1.31-18.17,2.16-27.24c1.54-16.63,3.34-33.24,4.83-49.88c1.18-13.19,1.78-26.44,3.15-39.61
			c1.92-18.44,3.41-36.9,5.1-55.35c0.44-4.77-1.24-4.65-4.62-4.65c-159.65,0.04-319.31,0.06-478.96-0.07
			c-4.79,0-5.73,1.53-5.72,5.95c0.14,48,0.08,95.99,0.07,143.99c-2.16,0.08-4.32,0.22-6.48,0.22
			c-121.15,0.01-242.29,0.01-363.44,0.01c-1.17,0-2.34,0.1-3.5-0.02c-2.54-0.25-3.41,0.45-3.15,3.31
			c4.34,46.92,8.61,93.85,12.73,140.79c0.39,4.43,1.56,6.01,6.41,6c116.98-0.16,233.96-0.13,350.94-0.11c2.16,0,4.32,0.19,6.47,0.29
			c0,51.13,0,102.26,0,153.39c-2.16,0.1-4.32,0.29-6.47,0.29c-112.16,0.01-224.32,0.01-336.48,0.01c-1.33,0-2.67,0.08-4-0.01
			c-2.22-0.16-2.81,0.7-2.59,2.93c1.06,10.77,1.94,21.56,2.91,32.34c3.26,36.32,6.63,72.63,9.66,108.97
			c0.4,4.79,1.88,5.87,6.52,5.87c107.99-0.14,215.99-0.11,323.98-0.1c2.16,0,4.32,0.16,6.48,0.25
			c0.01,77.28,0.01,154.56,0.03,231.84c0,2.5,0.13,4.99,0.2,7.49c-1.1,0.48-2.17,0.48-3.37,0.15
			c-53.73-14.59-107.47-29.17-161.23-43.66c-2.77-0.75-4.19-1.91-4.43-4.93c-1.32-16.26-2.77-32.51-4.22-48.75
			c-1.9-21.22-3.89-42.43-5.71-63.66c-0.23-2.68-0.95-3.64-3.81-3.64c-47.81,0.09-95.62,0.09-143.43,0
			c-2.95-0.01-3.52,0.82-3.25,3.7c1.56,16.24,2.88,32.5,4.31,48.75c2.44,27.69,4.89,55.38,7.37,83.07
			c2.85,31.83,5.81,63.65,8.48,95.5c0.3,3.62,1.47,5.05,4.88,5.99c81.69,22.59,163.35,45.3,245.03,67.95
			C560.54,1422.5,580.27,1427.83,599.99,1433.22z"/>
		<path d="M682.01,0c0.04,20.83-0.05,41.66,0.24,62.49c0.06,4.12-2.04,3.6-4.57,3.6c-32-0.02-64-0.04-96,0.05
			c-1.73,0-4.71-1.34-5.08,1.33c-0.51,3.7-1.04,7.69,0.41,11.29c0.48,1.19,2.78,0.5,4.24,0.5c32,0.02,64,0.08,96-0.07
			c3.84-0.02,5,0.84,4.98,4.87c-0.15,47.67-0.13,95.33-0.03,143c0.01,3.38-0.76,4.47-4.33,4.46c-57.67-0.11-115.33-0.12-173,0.01
			c-3.81,0.01-4.69-1.04-4.65-4.75c0.19-20.16,0.18-40.33,0.01-60.5c-0.03-3.56,1.01-4.37,4.44-4.36
			c32.17,0.13,64.33-0.02,96.5,0.19c4.3,0.03,5.2-1.18,5.03-5.21c-0.33-8.02-0.09-8.03-8.11-8.03c-31,0-62-0.09-93,0.1
			c-4.09,0.02-4.88-1.21-4.87-5.02c0.13-46.17,0.09-92.33,0.07-138.5c0-1.82-0.19-3.64-0.3-5.46C560.68,0,621.35,0,682.01,0z"/>
		<path d="M900.01,0c0.11,21.14,0.15,42.29,0.36,63.43c0.04,3.98-2.69,2.59-4.46,2.6c-31.49,0.07-62.98,0.02-94.46,0.11
			c-2.18,0.01-5.74-1.33-6.35,0.88c-0.98,3.56-0.63,7.62-0.17,11.39c0.2,1.64,2.61,0.84,3.99,0.84c18.99,0.05,37.99,0.03,56.98,0.03
			c13.49,0,26.99,0.08,40.48-0.06c2.98-0.03,4.01,0.7,4,3.85c-0.09,48.31-0.09,96.63,0,144.94c0.01,3.04-1.15,3.48-3.79,3.47
			c-57.98-0.06-115.96-0.08-173.93,0.03c-3.34,0.01-4.13-1.02-4.11-4.21c0.13-20.16,0.17-40.32-0.02-60.48
			c-0.04-3.8,0.82-4.94,4.82-4.92c31.99,0.18,63.98,0.01,95.96,0.22c4.26,0.03,5.24-1.11,5.06-5.19c-0.34-8.04-0.09-8.05-8.1-8.05
			c-30.99,0-61.98-0.03-92.96,0.05c-2.99,0.01-4.8,0.01-4.78-4.04c0.15-47.48,0.1-94.96,0.11-142.44c0-0.81,0.24-1.62,0.36-2.44
			C779.35,0,839.68,0,900.01,0z"/>
		<path d="M464.01,0c0,23.83-0.08,47.66,0.1,71.49c0.03,3.67-0.77,4.66-4.57,4.64c-32.16-0.18-64.32-0.04-96.48-0.18
			c-3.75-0.02-5.05,0.7-5,4.8c0.23,22.33,0.19,44.66,0.02,66.99c-0.03,3.49,0.86,4.42,4.38,4.41c32.33-0.14,64.65-0.02,96.98-0.17
			c3.64-0.02,4.72,0.73,4.68,4.56c-0.21,22.33-0.19,44.66-0.01,66.99c0.03,3.61-0.68,4.69-4.54,4.68
			c-57.66-0.15-115.31-0.15-172.97,0c-3.89,0.01-4.55-1.15-4.55-4.74c0.11-72.65,0.08-145.31,0.08-217.96
			c0-1.83-0.08-3.66-0.12-5.49C342.68,0,403.35,0,464.01,0z"/>
		<path class="st1" d="M599.99,1433.22c22.73-6.39,45.44-12.83,68.19-19.15c78.19-21.7,156.38-43.38,234.6-64.97
			c3.03-0.84,4.13-2.06,4.41-5.29c3.74-42.96,7.71-85.9,11.55-128.86c3.17-35.49,6.2-71,9.37-106.49
			c3.15-35.33,6.42-70.64,9.58-105.96c2.5-27.86,4.87-55.74,7.37-83.6c2.84-31.68,5.78-63.34,8.62-95.02
			c2.5-27.86,4.88-55.73,7.36-83.6c2.84-31.84,5.75-63.68,8.61-95.52c1.75-19.4,3.42-38.81,5.26-58.21c0.28-2.97-0.7-3.91-3.49-3.58
			c-1.15,0.14-2.33,0.02-3.5,0.02c-120.65,0-241.3,0-361.95-0.01c-2,0-3.99-0.11-5.99-0.17c0.01-48,0.06-95.99-0.07-143.99
			c-0.01-4.41,0.93-5.95,5.72-5.95c159.65,0.13,319.31,0.11,478.96,0.07c3.38,0,5.06-0.12,4.62,4.65
			c-1.69,18.45-3.18,36.92-5.1,55.35c-1.37,13.17-1.97,26.42-3.15,39.61c-1.49,16.64-3.29,33.24-4.83,49.88
			c-0.84,9.07-1.33,18.17-2.16,27.24c-1.19,13.18-2.57,26.33-3.82,39.5c-0.78,8.24-1.55,16.48-2.13,24.74
			c-1,14.19-2.29,28.36-3.86,42.5c-0.97,8.72-1.4,17.49-2.17,26.23c-1.23,13.84-2.57,27.67-3.83,41.5
			c-0.76,8.41-1.41,16.83-2.17,25.24c-1.27,14-2.63,28-3.86,42c-0.79,8.91-1.34,17.83-2.15,26.74c-1.21,13.34-2.58,26.67-3.81,40
			c-0.78,8.41-1.41,16.83-2.17,25.23c-1.27,14-2.62,28-3.86,42c-0.78,8.74-1.36,17.5-2.15,26.24c-1.22,13.51-2.58,27-3.81,40.5
			c-0.79,8.74-1.41,17.49-2.19,26.23c-1.25,14-2.62,28-3.85,42c-0.79,8.91-1.35,17.83-2.16,26.74c-1.21,13.34-2.57,26.67-3.81,40.01
			c-0.78,8.41-1.42,16.83-2.18,25.23c-1.27,14-2.62,28-3.85,42c-0.79,8.91-1.35,17.83-2.16,26.74c-1.21,13.34-2.58,26.67-3.8,40.01
			c-0.8,8.74-1.41,17.49-2.19,26.23c-1.25,14-2.6,28-3.85,42c-0.78,8.74-1.37,17.5-2.16,26.24c-1.22,13.51-2.58,27-3.8,40.51
			c-0.51,5.61-1.06,11.24-1.11,16.86c-0.04,4.17-1.59,6.36-5.66,7.47c-22.4,6.1-44.74,12.38-67.11,18.59
			c-35.31,9.8-70.62,19.59-105.94,29.37c-32.12,8.9-64.24,17.77-96.36,26.67c-35.15,9.74-70.3,19.51-105.46,29.26
			c-3.67,1.02-7.37,1.97-11.03,3.02c-4.93,1.42-5.52,1.05-5.52-4.08c-0.02-36.16-0.01-72.33-0.01-108.49
			C600,1460.89,599.99,1447.05,599.99,1433.22z"/>
		<path class="st1" d="M599.98,1037.24c5.32-0.07,10.65-0.19,15.97-0.19c54.3-0.01,108.59,0.04,162.89-0.1
			c4.18-0.01,5.11,0.75,4.67,5.19c-2.75,27.82-5.04,55.69-7.53,83.54c-2.85,31.82-5.67,63.65-8.68,95.46
			c-1.03,10.89-1.28,10.87-11.08,13.52c-50.7,13.68-101.41,27.36-152.12,41.03c-1.28,0.35-2.6,0.58-3.9,0.87
			c-0.07-2.5-0.2-4.99-0.2-7.49C600,1191.8,599.99,1114.52,599.98,1037.24z"/>
		<path class="st1" d="M599.98,733.31c1.66-0.08,3.32-0.22,4.98-0.22c66.61-0.01,133.22,0.04,199.83-0.12
			c4.74-0.01,5.78,1.25,5.35,5.81c-2.73,28.66-5.2,57.34-7.76,86.01c-1.73,19.39-3.52,38.78-5.13,58.18
			c-0.23,2.76-0.68,4.04-3.94,4.04c-63.95-0.11-127.89-0.09-191.84-0.11c-0.49,0-0.99-0.13-1.48-0.2
			C599.98,835.57,599.98,784.44,599.98,733.31z"/>
	</g>
</g>
</svg>
