<?xml version="1.0" encoding="utf-8"?>
<!-- Generator: Adobe Illustrator 26.5.0, SVG Export Plug-In . SVG Version: 6.00 Build 0)  -->
<svg version="1.1" id="Layer_1" xmlns="http://www.w3.org/2000/svg" xmlns:xlink="http://www.w3.org/1999/xlink" x="0px" y="0px"
	 viewBox="0 0 1198.97 1693" style="enable-background:new 0 0 1198.97 1693;" xml:space="preserve">
<style type="text/css">
	.st0{fill:#FFFFFF;}
</style>
<g>
	<path class="st0" d="M1195.36,332.81c-1.15,0.17-2.33,0.03-3.5,0.03c-394.96,0-789.91,0-1184.87,0.01c-2.33,0-4.66,0.1-6.99,0.16
		c0,1.67,0,3.33,0,5c1.95,8.79,2.01,17.8,2.85,26.71c3.44,36.64,6.64,73.3,9.89,109.96c3.14,35.5,6.2,71,9.36,106.5
		c3.16,35.5,6.44,70.98,9.61,106.48c2.84,31.85,5.55,63.71,8.39,95.56c3.49,39.14,7.1,78.28,10.59,117.42
		c2.85,31.84,5.56,63.7,8.4,95.55c3.17,35.5,6.45,70.98,9.62,106.48c2.83,31.68,5.54,63.37,8.36,95.05
		c2.84,31.85,5.78,63.68,8.62,95.53c2.81,31.52,5.53,63.04,8.34,94.56c2.84,31.84,5.74,63.69,8.6,95.53
		c2.09,23.22,4.24,46.43,6.13,69.67c0.27,3.33,1.58,4.34,4.54,5.16c140.84,39.04,281.66,78.17,422.48,117.29
		c18.91,5.25,37.83,10.43,56.72,15.73c1.53,0.43,3.34,0.4,4.51,1.81c1.33,0,2.67,0,4,0c10.77-4.36,22.15-6.69,33.27-9.78
		c95.47-26.56,190.98-52.95,286.48-79.42c54.96-15.23,109.89-30.54,164.87-45.69c3.21-0.89,4.34-2.16,4.64-5.61
		c4.51-52.27,9.2-104.51,13.89-156.76c5.2-57.88,10.48-115.76,15.65-173.65c4.18-46.78,8.2-93.56,12.38-140.34
		c4.49-50.26,9.12-100.5,13.61-150.76c4.18-46.78,8.2-93.56,12.38-140.34c4.49-50.26,9.12-100.5,13.61-150.76
		c3.86-43.12,7.55-86.26,11.4-129.39c4.48-50.26,9.07-100.51,13.61-150.76c0.69-7.63,1.27-15.28,2.09-22.89
		C1199.2,333.95,1198.73,332.31,1195.36,332.81z M540.85,1417.06c-81.68-22.65-163.34-45.36-245.03-67.95
		c-3.41-0.94-4.58-2.37-4.88-5.99c-2.67-31.85-5.63-63.67-8.48-95.5c-2.48-27.69-4.93-55.38-7.37-83.07
		c-1.43-16.25-2.75-32.51-4.31-48.75c-0.27-2.88,0.3-3.71,3.25-3.7c47.81,0.09,95.62,0.09,143.43,0c2.86,0,3.58,0.96,3.81,3.64
		c1.82,21.23,3.81,42.44,5.71,63.66c1.45,16.24,2.9,32.49,4.22,48.75c0.24,3.02,1.66,4.18,4.43,4.93
		c53.76,14.49,107.5,29.07,161.23,43.66c1.2,0.33,2.27,0.33,3.37-0.15c0-0.01,0-0.02,0-0.04c1.29-0.29,2.6-0.52,3.87-0.86
		c50.71-13.67,101.42-27.35,152.12-41.03c9.8-2.65,10.05-2.63,11.08-13.52c3.01-31.81,5.83-63.64,8.68-95.46
		c2.49-27.85,4.78-55.72,7.53-83.54c0.44-4.44-0.49-5.2-4.67-5.19c-54.3,0.14-108.59,0.09-162.89,0.1c-5.32,0-10.65,0.12-15.97,0.19
		c0,0.01,0,0.01,0,0.02c-2.15-0.09-4.31-0.25-6.46-0.25c-107.99-0.01-215.99-0.04-323.98,0.1c-4.64,0-6.12-1.08-6.52-5.87
		c-3.03-36.34-6.4-72.65-9.66-108.97c-0.97-10.78-1.85-21.57-2.91-32.34c-0.22-2.23,0.37-3.09,2.59-2.93c1.33,0.09,2.67,0.01,4,0.01
		c112.16,0,224.32,0,336.48-0.01c2.15,0,4.31-0.19,6.47-0.29c0,0,0-0.01,0-0.01c0.49,0.07,0.99,0.2,1.48,0.2
		c63.95,0.02,127.89,0,191.84,0.11c3.26,0,3.71-1.28,3.94-4.04c1.61-19.4,3.4-38.79,5.13-58.18c2.56-28.67,5.03-57.35,7.76-86.01
		c0.43-4.56-0.61-5.82-5.35-5.81c-66.61,0.16-133.22,0.11-199.83,0.12c-1.66,0-3.32,0.14-4.98,0.22c0,0,0,0.01,0,0.01
		c-2.15-0.1-4.3-0.29-6.46-0.29c-116.98-0.02-233.96-0.05-350.94,0.11c-4.85,0.01-6.02-1.57-6.41-6
		c-4.12-46.94-8.39-93.87-12.73-140.79c-0.26-2.86,0.61-3.56,3.15-3.31c1.16,0.12,2.33,0.02,3.5,0.02c121.15,0,242.29,0,363.44-0.01
		c2.16,0,4.32-0.14,6.48-0.22c0-0.01,0-0.01,0-0.02c1.99,0.06,3.97,0.17,5.96,0.17C726.62,583,847.27,583,967.92,583
		c1.17,0,2.35,0.12,3.5-0.02c2.79-0.33,3.77,0.61,3.49,3.58c-1.84,19.4-3.51,38.81-5.26,58.21c-2.86,31.84-5.77,63.68-8.61,95.52
		c-2.48,27.87-4.86,55.74-7.36,83.6c-2.84,31.68-5.78,63.34-8.62,95.02c-2.5,27.86-4.87,55.74-7.37,83.6
		c-3.16,35.32-6.43,70.63-9.58,105.96c-3.17,35.49-6.2,71-9.37,106.49c-3.84,42.96-7.81,85.9-11.55,128.86
		c-0.28,3.23-1.38,4.45-4.41,5.29c-78.22,21.59-156.41,43.27-234.6,64.97c-22.75,6.32-45.46,12.76-68.19,19.15
		C580.27,1427.83,560.54,1422.51,540.85,1417.06z M600.93,1587.71c0.04,0.03,0.09,0.05,0.14,0.07
		C601.02,1587.76,600.97,1587.74,600.93,1587.71z"/>
	<path class="st0" d="M500.22,143.95c-0.01,3.81,0.78,5.04,4.87,5.02c31-0.19,62-0.1,93-0.1c8.02,0,7.78,0.01,8.11,8.03
		c0.17,4.03-0.73,5.24-5.03,5.21c-32.17-0.21-64.33-0.06-96.5-0.19c-3.43-0.01-4.47,0.8-4.44,4.36c0.17,20.17,0.18,40.34-0.01,60.5
		c-0.04,3.71,0.84,4.76,4.65,4.75c57.67-0.13,115.33-0.12,173-0.01c3.57,0.01,4.34-1.08,4.33-4.46c-0.1-47.67-0.12-95.33,0.03-143
		c0.02-4.03-1.14-4.89-4.98-4.87c-32,0.15-64,0.09-96,0.07c-1.46,0-3.76,0.69-4.24-0.5c-1.45-3.6-0.92-7.59-0.41-11.29
		c0.37-2.67,3.35-1.33,5.08-1.33c32-0.09,64-0.07,96-0.05c2.53,0,4.63,0.52,4.57-3.6c-0.29-20.83-0.2-41.66-0.24-62.49
		c-60.66,0-121.33,0-182.02-0.01c0.11,1.82,0.3,3.64,0.3,5.46C500.31,51.63,500.35,97.79,500.22,143.95z"/>
	<path class="st0" d="M819.31,162.13c-31.98-0.21-63.97-0.04-95.96-0.22c-4-0.02-4.86,1.12-4.82,4.92
		c0.19,20.16,0.15,40.32,0.02,60.48c-0.02,3.19,0.77,4.22,4.11,4.21c57.97-0.11,115.95-0.09,173.93-0.03
		c2.64,0.01,3.8-0.43,3.79-3.47c-0.09-48.31-0.09-96.63,0-144.94c0.01-3.15-1.02-3.88-4-3.85c-13.49,0.14-26.99,0.06-40.48,0.06
		c-18.99,0-37.99,0.02-56.98-0.03c-1.38,0-3.79,0.8-3.99-0.84c-0.46-3.77-0.81-7.83,0.17-11.39c0.61-2.21,4.17-0.87,6.35-0.88
		c31.48-0.09,62.97-0.04,94.46-0.11c1.77-0.01,4.5,1.38,4.46-2.6c-0.21-21.14-0.25-42.29-0.36-63.43c-60.33,0-120.66,0-181.01,0.01
		c-0.12,0.82-0.36,1.63-0.36,2.44c-0.01,47.48,0.04,94.96-0.11,142.44c-0.02,4.05,1.79,4.05,4.78,4.04
		c30.98-0.08,61.97-0.05,92.96-0.05c8.01,0,7.76,0.01,8.1,8.05C824.55,161.02,823.57,162.15,819.31,162.13z"/>
	<path class="st0" d="M282.05,223.48c0,3.59,0.66,4.75,4.55,4.74c57.66-0.15,115.31-0.15,172.97,0c3.86,0.01,4.57-1.07,4.54-4.68
		c-0.18-22.33-0.2-44.66,0.01-66.99c0.04-3.83-1.04-4.58-4.68-4.56c-32.33,0.15-64.65,0.03-96.98,0.17
		c-3.52,0.01-4.41-0.92-4.38-4.41c0.17-22.33,0.21-44.66-0.02-66.99c-0.05-4.1,1.25-4.82,5-4.8c32.16,0.14,64.32,0,96.48,0.18
		c3.8,0.02,4.6-0.97,4.57-4.64c-0.18-23.83-0.1-47.66-0.1-71.49c-60.66,0-121.33,0-182,0.02c0.04,1.83,0.12,3.66,0.12,5.49
		C282.13,78.16,282.16,150.82,282.05,223.48z"/>
</g>
</svg>
