<?xml version="1.0" encoding="utf-8"?>
<!-- Generator: Adobe Illustrator 26.5.0, SVG Export Plug-In . SVG Version: 6.00 Build 0)  -->
<svg version="1.1" id="Layer_1" xmlns="http://www.w3.org/2000/svg" xmlns:xlink="http://www.w3.org/1999/xlink" x="0px" y="0px"
	 viewBox="0 0 800.29 762.34" style="enable-background:new 0 0 800.29 762.34;" xml:space="preserve">
<style type="text/css">
	.st0{fill:#1488C5;}
	.st1{fill:#1789C6;}
	.st2{fill:#1689C6;}
	.st3{fill:#1588C5;}
	.st4{fill:#1588C6;}
</style>
<g>
	<g>
		<path class="st0" d="M407.48,762.34c-106.75-1.69-195.63-31.88-271.86-95.75C66.91,609.03,22.73,536.01,6.53,447.64
			C-12.08,346.16,9.22,252.42,68.7,168.31c58.46-82.67,138.76-133.75,236.88-157.3c33.65-8.07,67.86-11.9,102.41-10.84
			C519.05,3.6,615.14,42.9,693.52,122.38c51.47,52.2,84.55,114.75,99.3,186.67c7.16,34.91,9.57,70.24,5.48,105.75
			c-15.72,136.27-86.8,234.82-205.87,300.06c-41.59,22.79-86.53,36.4-133.45,42.9C439.41,760.48,419.57,761.31,407.48,762.34z
			 M477.85,278.17c0-2.81,0-4.8,0-6.8c0-54.49,0.01-108.98-0.01-163.48c-0.01-11.74-6.17-17.85-17.87-17.86
			c-29-0.02-57.99-0.01-86.99,0c-12.26,0-18.01,5.73-18.02,18.02c-0.03,23.5-0.01,46.99-0.01,70.49c0,1.76,0,3.53,0,5.56
			c-2.71,0-4.7,0-6.69,0c-52.66,0-105.32,0.25-157.98-0.17c-13.7-0.11-20.03,7.62-19.84,19.73c0.37,22.99,0.11,45.99,0.1,68.99
			c0,1.75-0.15,3.49-0.24,5.53c-2.38,0-4.19,0-6,0c-22.33,0-44.66,0-66.99,0c-13,0-18.86,5.88-18.87,18.95
			c-0.01,23.16,0,46.33,0,69.49c0,1.76,0,3.51,0,5.64c-5.36,0-10-0.1-14.64,0.02c-9.27,0.23-15.74,6.56-15.8,15.81
			c-0.26,36.66,3.6,72.81,14.32,108c15.43,50.64,43.35,92.26,88.71,120.92c41.16,26.01,86.87,36.42,134.9,37.68
			c45.27,1.19,89.73-4.83,133-18.3c109.59-34.12,193.2-101.25,252.28-199.4c1.27-2.1,3.85-4.36,6.13-4.76
			c43.5-7.7,77.96-29.6,103.63-65.42c6.49-9.06,4.53-18.45-4.98-24.33c-24.79-15.32-51.75-23.34-80.95-23.27
			c-3.87,0.01-5.32-1.17-6.53-4.77c-8.83-26.34-24.41-47.89-46.7-64.51c-9.08-6.77-17.7-5.34-23.92,3.95
			c-20.04,29.94-26.75,62.67-20.19,98.09c1.59,8.57-2.61,16.95-10.42,18.39c-5.54,1.02-11.42,0.2-17.34,0.2
			c0-25.07,0.03-49.89-0.01-74.72c-0.02-11.35-6.34-17.65-17.63-17.66c-22.83-0.02-45.66-0.01-68.49-0.01
			C482.01,278.17,480.21,278.17,477.85,278.17z"/>
		<path class="st1" d="M201.72,215.89c20.2,0,40.26,0,60.7,0c0,20.65,0,41.18,0,61.99c-20.2,0-40.28,0-60.7,0
			C201.72,257.3,201.72,236.76,201.72,215.89z"/>
		<path class="st1" d="M354.67,215.88c0,20.88,0,41.31,0,62.01c-20.33,0-40.41,0-60.83,0c0-20.61,0-41.15,0-62.01
			C314.1,215.88,334.17,215.88,354.67,215.88z"/>
		<path class="st1" d="M262.49,310.14c0,20.83,0,41.24,0,61.83c-20.39,0-40.48,0-60.84,0c0-20.67,0-41.08,0-61.83
			C221.92,310.14,241.99,310.14,262.49,310.14z"/>
		<path class="st1" d="M293.77,310.1c20.34,0,40.42,0,60.83,0c0,20.52,0,40.93,0,61.74c-20.21,0-40.39,0-60.83,0
			C293.77,351.24,293.77,330.81,293.77,310.1z"/>
		<path class="st2" d="M386.16,121.62c20.32,0,40.24,0,60.53,0c0,20.74,0,41.28,0,62.15c-20.05,0-40.1,0-60.53,0
			C386.16,163.23,386.16,142.69,386.16,121.62z"/>
		<path class="st0" d="M386.15,216.01c20.3,0,40.34,0,60.64,0c0,20.7,0,41.1,0,61.83c-20.19,0-40.24,0-60.64,0
			C386.15,257.4,386.15,237,386.15,216.01z"/>
		<path class="st3" d="M170.23,310.09c0,20.68,0,41.07,0,61.8c-20.18,0-40.24,0-60.64,0c0-20.53,0-41.05,0-61.8
			C129.86,310.09,149.9,310.09,170.23,310.09z"/>
		<path class="st0" d="M446.75,372.03c-20.27,0-40.2,0-60.54,0c0-20.61,0-41.11,0-61.92c20.14,0,40.19,0,60.54,0
			C446.75,330.65,446.75,351.06,446.75,372.03z"/>
		<path class="st0" d="M538.96,310.09c0,20.79,0,41.08,0,61.75c-20.18,0-40.23,0-60.7,0c0-20.4,0-40.92,0-61.75
			C498.39,310.09,518.45,310.09,538.96,310.09z"/>
		<path class="st4" d="M170.87,497.86c0-17.54,13.68-31.46,30.8-31.33c16.77,0.13,30.44,14.21,30.43,31.34
			c-0.01,17.36-13.85,31.35-30.94,31.28C184.25,529.06,170.87,515.24,170.87,497.86z"/>
	</g>
</g>
</svg>
