<?xml version="1.0" encoding="utf-8"?>
<!-- Generator: Adobe Illustrator 26.5.0, SVG Export Plug-In . SVG Version: 6.00 Build 0)  -->
<svg version="1.1" id="Layer_1" xmlns="http://www.w3.org/2000/svg" xmlns:xlink="http://www.w3.org/1999/xlink" x="0px" y="0px"
	 viewBox="0 0 409.24 401.81" style="enable-background:new 0 0 409.24 401.81;" xml:space="preserve">
<style type="text/css">
	.st0{fill:#FFFFFF;}
</style>
<g>
	<g>
		<path class="st0" d="M203.33,0c4.33,0,8.67,0,13,0c7.49,2.8,12.94,8.26,18.44,13.77c51.65,51.75,103.35,103.46,155.12,155.1
			c5.33,5.32,10.25,10.74,12.44,18.13c0,3.67,0,7.33,0,11c-3.59,8.9-10.77,14.92-17.3,21.45
			c-50.15,50.16-100.33,100.29-150.42,150.5c-5.4,5.41-10.79,10.65-18.28,13.05c-3.67,0-7.33,0-11,0c-4-2.54-8.54-4.52-11.92-7.71
			c-11.25-10.65-22.11-21.71-33.07-32.67c-40.54-40.52-81.08-81.05-121.59-121.6c-7.11-7.12-14.98-13.63-19.43-23.01
			c0-4.67,0-9.33,0-14c4.95-10.07,13.64-16.95,21.31-24.65c32.1-32.23,64.31-64.37,96.48-96.53c1.27-1.27,2.6-2.48,4.19-4
			c14.06,14.06,27.98,27.91,41.72,41.93c0.9,0.92,0.85,3.32,0.48,4.85c-3.28,13.42,1.67,26.38,13.32,33.14
			c2.92,1.69,3.74,3.44,3.73,6.61c-0.11,32-0.11,63.99,0,95.99c0.01,3.37-0.92,5.22-3.99,7.01c-11.46,6.68-16.54,19.96-13.06,32.74
			c3.2,11.72,14.41,20.71,26.27,21.08c14,0.43,25.38-7.25,29.57-19.97c4.04-12.26-0.42-25.73-11.28-32.98
			c-2.67-1.78-3.69-3.54-3.68-6.78c0.13-31.66,0.08-63.32,0.09-94.99c0-1.25,0.11-2.49,0.2-4.61c1.85,1.72,3.07,2.77,4.2,3.91
			c10.5,10.48,20.9,21.06,31.52,31.4c2.75,2.68,3.7,4.88,2.64,8.94c-4.71,17.98,10.53,36.52,28.92,35.69
			c17.5-0.79,30.3-15.71,28.32-33.05c-1.88-16.55-17.76-27.97-34.74-24.7c-3.22,0.62-5.13-0.16-7.32-2.38
			c-11.91-12.12-23.94-24.13-36.04-36.07c-2.08-2.05-2.77-3.75-2.13-6.88c3.69-18.25-9.83-36.12-28.03-34.64
			c-9.83,0.8-14.71-3.37-20.36-9.2c-9.86-10.17-19.99-20.07-30-30.1c-1.15-1.15-2.24-2.37-3.84-4.08
			C173.73,28.28,185.36,10.76,203.33,0z"/>
	</g>
</g>
</svg>
