<?xml version="1.0" encoding="utf-8"?>
<!-- Generator: Adobe Illustrator 26.5.0, SVG Export Plug-In . SVG Version: 6.00 Build 0)  -->
<svg version="1.1" id="Layer_1" xmlns="http://www.w3.org/2000/svg" xmlns:xlink="http://www.w3.org/1999/xlink" x="0px" y="0px"
	 viewBox="0 0 24 24" style="enable-background:new 0 0 24 24;" xml:space="preserve">
<style type="text/css">
	.st0{fill:#FFFFFF;}
</style>
<g id="m3yZiO_00000016771823485516069350000008677767889776950185_">
	<g>
		<path class="st0" d="M14.4,17.47c0.62-0.14,1.23-0.24,1.81-0.41c2.03-0.6,3.15-2,3.41-4.07c0.08-0.67,0.1-1.36,0.04-2.03
			c-0.07-0.84-0.44-1.59-1-2.23c-0.11-0.13-0.13-0.23-0.08-0.39c0.28-0.92,0.19-1.82-0.13-2.71c-0.06-0.16-0.15-0.19-0.29-0.19
			c-0.56,0.01-1.08,0.18-1.58,0.42c-0.43,0.21-0.84,0.47-1.27,0.7C15.23,6.6,15.1,6.63,15,6.6c-1.84-0.45-3.69-0.45-5.53,0
			C9.35,6.63,9.19,6.59,9.09,6.53C8.32,6.05,7.53,5.61,6.62,5.46c-0.02,0-0.04-0.01-0.05-0.01C6.09,5.38,6.04,5.41,5.9,5.87
			C5.65,6.71,5.61,7.55,5.87,8.4c0.02,0.08,0,0.2-0.05,0.26c-1.05,1.22-1.25,2.65-1.02,4.17C4.87,13.36,5,13.9,5.19,14.4
			c0.6,1.55,1.82,2.37,3.37,2.77c0.48,0.12,0.96,0.2,1.48,0.3c-0.39,0.42-0.6,0.91-0.7,1.46c-0.01,0.06-0.1,0.12-0.17,0.15
			c-1.32,0.56-2.49,0.19-3.26-1.02c-0.38-0.6-0.87-1.04-1.59-1.18c-0.18-0.04-0.39-0.01-0.58,0.02c-0.21,0.04-0.22,0.19-0.09,0.33
			c0.09,0.1,0.2,0.2,0.31,0.27c0.63,0.38,1.03,0.94,1.29,1.6c0.44,1.08,1.28,1.56,2.38,1.64c0.53,0.04,1.07-0.03,1.64-0.06
			c0,0.03,0.01,0.11,0.01,0.19c0.01,0.61,0.01,1.21,0.01,1.82c0,0.56-0.35,0.81-0.88,0.64c-1.35-0.45-2.58-1.11-3.67-2.03
			c-3-2.52-4.47-5.75-4.28-9.66C0.74,6.47,4.4,2.16,9.46,0.94c6-1.44,12.1,1.96,13.98,7.81c1.94,6.02-1.38,12.56-7.37,14.57
			c-0.58,0.19-0.93-0.05-0.93-0.66c0-1.03,0.01-2.05,0.01-3.08C15.15,18.8,14.98,18.07,14.4,17.47z"/>
		<path class="st0" d="M9.25,19.6c-0.11,0.05-0.22,0.12-0.33,0.13c-0.06,0-0.13-0.11-0.2-0.17c0.1-0.06,0.19-0.15,0.29-0.17
			c0.07-0.01,0.16,0.07,0.24,0.12C9.25,19.54,9.25,19.57,9.25,19.6z"/>
		<path class="st0" d="M8.36,19.72c-0.09,0.05-0.19,0.14-0.27,0.12C8,19.83,7.91,19.73,7.83,19.66c0.08-0.05,0.17-0.15,0.25-0.15
			c0.09-0.01,0.18,0.07,0.27,0.11C8.36,19.65,8.36,19.68,8.36,19.72z"/>
		<path class="st0" d="M7.15,19.77c-0.11-0.11-0.19-0.19-0.27-0.27c0.06-0.05,0.15-0.15,0.18-0.14c0.11,0.05,0.21,0.14,0.31,0.21
			C7.31,19.62,7.25,19.68,7.15,19.77z"/>
		<path class="st0" d="M6.63,19.08c-0.14,0.09-0.22,0.18-0.25,0.17C6.27,19.19,6.18,19.1,6.1,19c-0.01-0.01,0.1-0.16,0.12-0.15
			C6.34,18.9,6.45,18.98,6.63,19.08z"/>
		<path class="st0" d="M5.99,18.43c-0.11,0.08-0.2,0.16-0.22,0.15c-0.09-0.06-0.17-0.14-0.22-0.24c-0.01-0.02,0.08-0.11,0.12-0.16
			C5.76,18.25,5.85,18.32,5.99,18.43z"/>
		<path class="st0" d="M5.51,17.8c-0.12,0.07-0.2,0.14-0.22,0.13c-0.08-0.06-0.15-0.14-0.21-0.22c-0.01-0.01,0.09-0.13,0.09-0.12
			C5.28,17.63,5.37,17.69,5.51,17.8z"/>
	</g>
</g>
</svg>
