<?xml version="1.0" encoding="utf-8"?>
<!-- Generator: Adobe Illustrator 26.5.0, SVG Export Plug-In . SVG Version: 6.00 Build 0)  -->
<svg version="1.1" id="Layer_1" xmlns="http://www.w3.org/2000/svg" xmlns:xlink="http://www.w3.org/1999/xlink" x="0px" y="0px"
	 viewBox="0 0 204.99 220.29" style="enable-background:new 0 0 204.99 220.29;" xml:space="preserve">
<style type="text/css">
	.st0{fill:#E436AB;}
</style>
<g>
	<g>
		<path class="st0" d="M186.87,110.68c0,7.17,0.09,14.33-0.05,21.49c-0.05,2.61,0.56,4.17,3.19,5.33
			c7.51,3.31,11.69,9.11,11.81,17.51c0.12,8.08-3.25,14.29-10.56,17.8c-7.53,3.62-14.93,3.04-21.47-2.45
			c-1.77-1.48-2.93-1.43-4.75-0.37c-13.08,7.64-26.13,15.33-39.37,22.67c-3.2,1.77-2.17,3.98-2.05,6.32
			c0.58,10.9-6.34,19.48-17.03,21.1c-9.84,1.49-19.2-5.01-21.63-15.05c-0.19-0.8-0.56-1.71-0.36-2.44
			c1.95-7.17-2.82-9.71-7.99-12.55c-11.09-6.08-21.96-12.54-32.88-18.93c-2.32-1.36-3.96-1.83-6.58,0.09
			c-9.4,6.9-22.38,4.12-28.21-5.66c-5.89-9.86-2.29-22.6,8.28-27.61c3.33-1.58,4.19-3.34,4.15-6.72c-0.16-14-0.15-27.99-0.01-41.99
			c0.03-3.32-0.61-5.25-4.09-6.77C9.69,79.14,5.91,72.68,6.15,64.49c0.25-8.35,4.25-15.04,12.37-17.61
			c6.16-1.94,12.99-2.54,18.58,2.2c2.39,2.03,4.12,1.72,6.57,0.28c12.48-7.34,25.01-14.6,37.61-21.72c2.65-1.5,3.57-3.07,3.37-6.25
			C83.91,9.43,92.62,0.03,104.03,0c11.39-0.04,20.18,9.4,19.48,21.31c-0.18,3.07,0.48,4.76,3.23,6.31
			c12.77,7.17,25.44,14.52,38.05,21.96c2.37,1.4,3.85,1.15,6.13-0.39c9.15-6.19,22.65-4.4,28.39,5.65c5.8,10.16,2.01,22.9-8.84,27.8
			c-2.99,1.35-3.76,2.99-3.68,6.02C187,96.01,186.87,103.35,186.87,110.68z M103.73,150.71c18.31,0,36.62,0.01,54.93,0
			c6.19,0,10.9-8.35,7.78-13.75c-18.04-31.24-36.08-62.48-54.1-93.73c-3.53-6.11-12.86-6.24-16.37-0.17
			c-17.38,30.08-34.66,60.23-52.22,90.21c-2.87,4.89-4.71,8.71-0.48,13.98c1.87,2.34,3.04,3.54,6.02,3.52
			C67.45,150.65,85.59,150.71,103.73,150.71z M44.91,160.44c0.52,0.59,0.75,1.03,1.11,1.24c13.8,8,27.63,15.94,41.38,24.01
			c1.95,1.15,3.15,0.69,4.85-0.46c7.93-5.38,16.19-5.5,23.59,0c2.53,1.88,4.2,1.59,6.6,0.17c11.02-6.5,22.13-12.84,33.19-19.26
			c2.67-1.55,5.3-3.18,7.95-4.77c-0.1-0.31-0.2-0.62-0.29-0.93C123.95,160.44,84.61,160.44,44.91,160.44z M30.54,135.78
			c0.35,0.08,0.71,0.16,1.06,0.25c19.58-33.93,39.17-67.86,58.75-101.8c-15.19,7.64-29.54,15.96-43.94,24.22
			c-1.38,0.79-1.73,1.68-1.54,3.22c1.31,10.18-2.76,17.42-12.18,21.51c-1.61,0.7-2.21,1.58-2.2,3.33
			C30.56,102.93,30.54,119.36,30.54,135.78z M118.61,33.62c-0.22,0.27-0.44,0.54-0.66,0.8c19.57,33.89,39.15,67.78,58.72,101.67
			c0.98-16.92,0.94-33.51,1.02-50.09c0.01-2.38-1.75-2.48-3.15-3.17c-7.6-3.73-12.69-11.2-11.54-18.7c0.62-4.05-0.69-5.79-3.92-7.2
			c-1.52-0.66-2.9-1.62-4.34-2.45C142.7,47.53,130.66,40.58,118.61,33.62z"/>
	</g>
</g>
</svg>
