<?xml version="1.0" encoding="utf-8"?>
<!-- Generator: Adobe Illustrator 26.5.0, SVG Export Plug-In . SVG Version: 6.00 Build 0)  -->
<svg version="1.1" id="Layer_1" xmlns="http://www.w3.org/2000/svg" xmlns:xlink="http://www.w3.org/1999/xlink" x="0px" y="0px"
	 viewBox="0 0 159.32 225.01" style="enable-background:new 0 0 159.32 225.01;" xml:space="preserve">
<style type="text/css">
	.st0{fill:#FFFFFF;}
</style>
<g>
	<g>
		<path class="st0" d="M78.17,225.01c-16.02-5.4-32.53-9.1-48.73-13.89c-4.93-1.46-9.9-2.76-14.96-4.17
			C9.65,152.74,4.84,98.75,0,44.45c53.11,0,105.83,0,159.32,0c-4.8,53.99-9.6,107.91-14.45,162.41
			c-10.82,3.02-21.83,5.99-32.77,9.16c-10.31,2.99-20.88,5.12-30.93,8.99C80.17,225.01,79.17,225.01,78.17,225.01z M57.35,163.05
			c-0.46-4.49-0.97-9.57-1.5-14.79c-6.65,0-13.04,0-19.85,0c0.91,10.39,1.79,20.44,2.7,30.79c13.31,3.7,26.41,7.36,39.52,10.97
			c0.77,0.21,1.68,0.3,2.43,0.1c13.27-3.59,26.52-7.23,39.88-10.89c1.84-20.58,3.64-40.71,5.49-61.41c-24.53,0-48.59,0-72.74,0
			c-0.28-6.93-1.81-13.26-1.31-20.29c25.26,0,50.3,0,75.79,0c0.62-6.85,1.19-13.19,1.79-19.82c-33.5,0-66.52,0-99.94,0
			c1.84,20.24,3.63,40.03,5.47,60.27c23.39,0,46.15,0,69.06,0c-0.81,8.78-1.58,17.03-2.31,24.93C87,170.31,72.31,170.5,57.35,163.05
			z"/>
		<path class="st0" d="M115.17,0.01c0,9.92,0,19.84,0,29.95c-3.43,0-6.49,0-9.97,0c0-4.52,0-8.89,0-14.4
			c-2.63,3.93-4.6,6.87-6.94,10.35c-2.27-3.31-4.33-6.32-7.04-10.28c0,5.43,0,9.79,0,14.33c-3.51,0-6.57,0-10.05,0
			c0-10.1,0-20.02,0-29.94c3.67,0,7.33,0,11,0c1.44,3.8,3.74,7.04,6.49,10.82c1.5-4.28,4.89-6.78,5.51-10.82
			C107.84,0.01,111.5,0.01,115.17,0.01z"/>
		<path class="st0" d="M44.17,0.01c0,9.82,0,19.63,0,29.79c-3.15,0-6.22,0-9.62,0c-1-2.83,0.08-6.2-0.6-9.53c-2.96,0-5.7,0-8.84,0
			c0,3.27,0,6.35,0,9.65c-3.47,0-6.55,0-9.94,0c0-10.05,0-19.98,0-29.91c3.33,0,6.67,0,10,0c0,3.24,0,6.48,0,9.72c3.13,0,6,0,9,0
			c0-3.45,0-6.59,0-9.72C37.5,0.01,40.84,0.01,44.17,0.01z"/>
		<path class="st0" d="M77.17,0.01c-1.08,3.05,0.02,6.27-0.75,9.83c-2.68,0-5.41,0-8.57,0c0,6.88,0,13.29,0,20c-3.5,0-6.56,0-9.95,0
			c0-6.54,0-12.99,0-19.82c-3.08,0-5.86,0-8.5,0c-1.19-3.51,0.66-6.98-1.23-10.01C57.84,0.01,67.5,0.01,77.17,0.01z"/>
		<path class="st0" d="M131.17,0.01c-2.06,6.48-0.02,13.1-1.06,19.73c4.89,1.33,9.57,0.06,14.4,0.92c0,2.95,0,5.86,0,9.13
			c-7.84,0-15.72,0-24.34,0c0-9.92,0-19.86,0-29.79C123.84,0.01,127.5,0.01,131.17,0.01z"/>
	</g>
</g>
</svg>
