<?xml version="1.0" encoding="utf-8"?>
<!-- Generator: Adobe Illustrator 26.5.0, SVG Export Plug-In . SVG Version: 6.00 Build 0)  -->
<svg version="1.1" id="Layer_1" xmlns="http://www.w3.org/2000/svg" xmlns:xlink="http://www.w3.org/1999/xlink" x="0px" y="0px"
	 viewBox="0 0 402.07 500" style="enable-background:new 0 0 402.07 500;" xml:space="preserve">
<style type="text/css">
	.st0{fill:#FFFFFF;}
</style>
<g>
	<g>
		<path class="st0" d="M204.82,500c-18.54-5.31-37.06-10.69-55.62-15.92c-28.67-8.08-57.35-16.12-86.08-24
			c-3.01-0.83-4.13-2.42-4.34-5.13c-1.03-13.24-1.99-26.49-3.05-39.73c-0.93-11.56-1.96-23.12-2.96-34.68
			c-1.67-19.44-3.95-38.85-4.79-58.33c-0.44-10.42-1.52-20.84-2.58-31.1c-2.92-28.5-5.1-57.07-7.74-85.59
			c-1.24-13.39-2.14-26.82-3.15-40.23c-0.91-12.19-2.02-24.39-3.16-36.56c-0.8-8.49-1.07-17.15-2.67-25.58
			c-0.92-4.84,1.1-5.37,5.25-5.36c47.99,0.13,95.99,0.08,143.98,0.08c66.82,0,133.65,0.05,200.47-0.1c4.53-0.01,5.37,0.93,4.92,5.5
			c-1.14,11.63-2.43,23.25-3.45,34.89c-1.18,13.48-1.24,27.06-3.74,40.49c-1.73,9.29-1.31,18.97-2.06,28.46
			c-1.49,18.85-3.12,37.68-4.72,56.52c-1.13,13.26-1.79,26.6-3.62,39.77c-1.71,12.29-1.36,24.71-3.59,36.99
			c-1.66,9.14-0.72,18.73-2.16,27.92c-2.69,17.15-2.05,34.52-4.6,51.73c-1.64,11.04-1.97,22.5-2.39,33.8
			c-0.15,4.14-1.71,5.54-5.53,6.59c-45.08,12.45-90.1,25.11-135.12,37.76c-1.54,0.43-3.35,0.38-4.52,1.8
			C206.82,500,205.82,500,204.82,500z M219.74,248.14c0,23.66,0.11,47.32-0.1,70.97c-0.04,4.51,1.19,5.09,5.38,4.37
			c18.03-3.09,36.15-5.69,54.19-8.71c3.43-0.57,3.97,0.41,3.62,3.45c-0.72,6.22-1.99,12.33-2.2,18.66
			c-0.26,7.88-2.02,15.7-2.49,23.58c-0.21,3.58-1.54,4.76-4.71,5.6c-16.55,4.42-33.01,9.14-49.57,13.54
			c-3.13,0.83-4.26,2.12-4.2,5.42c0.21,10.66,0.29,21.33-0.02,31.98c-0.13,4.45,1.63,4.48,4.98,3.54
			c27.54-7.68,55.09-15.34,82.67-22.86c3.3-0.9,4.44-2.47,4.59-5.85c0.26-6.12,1.46-12.2,1.62-18.31c0.15-5.8,1.59-11.36,2.21-17.05
			c0.83-7.53,0.8-15.15,1.47-22.7c1.74-19.78,3.58-39.55,5.58-59.31c0.4-3.94-0.64-4.91-4.51-4.28c-18.36,2.96-36.77,5.63-55.12,8.6
			c-3.59,0.58-4.54-0.3-4.51-3.93c0.16-19.66,0.19-39.32-0.01-58.98c-0.04-3.92,0.97-5.03,4.95-4.98
			c19.99,0.21,39.98,0.09,59.98,0.1c2.2,0,4.11,0.32,4.34-3.08c0.73-10.42,1.74-20.82,2.88-31.2c0.41-3.71-0.57-4.8-4.45-4.78
			c-33.99,0.16-67.98,0.16-101.96,0c-3.77-0.02-4.72,0.99-4.69,4.71C219.82,200.49,219.74,224.32,219.74,248.14z M152.68,369.83
			c-0.96-0.2-1.93-0.34-2.87-0.59c-20.24-5.48-40.49-10.9-60.69-16.54c-3.43-0.96-4.3-0.37-4.24,3.17
			c0.19,10.66,0.26,21.32-0.04,31.97c-0.1,3.76,1.2,5.11,4.68,6.05c32.78,8.8,65.54,17.68,98.22,26.82c4.54,1.27,4.76-0.2,4.73-3.91
			c-0.14-17.82-0.06-35.64-0.06-53.46c0-62.12-0.03-124.25,0.08-186.37c0.01-3.84-0.84-5.17-4.91-5.04
			c-9.48,0.32-19,0.39-28.47-0.02c-4.82-0.21-6.04,1.11-6.03,5.97c0.18,61.96,0.12,123.92,0.1,185.87
			C153.18,365.72,153.6,367.75,152.68,369.83z"/>
		<path class="st0" d="M266.82,0c-0.08,4.48-0.41,8.97-0.17,13.44c0.18,3.44-0.76,4.53-4.36,4.46c-12.32-0.24-24.64,0.04-36.96-0.18
			c-3.32-0.06-3.71,1.15-3.75,3.99c-0.04,2.98,0.66,3.96,3.84,3.91c12.15-0.21,24.31,0.05,36.46-0.17c3.55-0.07,4.91,0.53,4.8,4.52
			c-0.32,10.81-0.22,21.64-0.04,32.46c0.05,3.16-0.59,4.3-4.06,4.26c-18.31-0.19-36.63-0.18-54.94,0c-3.3,0.03-3.94-1.12-3.75-4.02
			c0.22-3.32,0.29-6.68-0.02-9.98c-0.31-3.28,1.04-3.8,3.96-3.77c12.49,0.15,24.98-0.07,37.46,0.16c3.32,0.06,3.77-1.11,3.72-3.97
			c-0.04-2.73-0.23-4.15-3.67-4.09c-12.15,0.24-24.31-0.13-36.46,0.21c-4.34,0.12-5.13-1.26-5.05-5.27
			c0.25-11.98,0.02-23.97-0.01-35.95C224.82,0,245.82,0,266.82,0z"/>
		<path class="st0" d="M194.82,0c-1.18,1.47-0.55,3.2-0.55,4.79c-0.06,18.96-0.12,37.92,0.04,56.88c0.03,3.65-0.5,5.17-4.75,5.05
			c-12.46-0.35-24.95-0.26-37.42-0.04c-3.52,0.06-5.25-0.46-4.75-4.48c0.53-4.26-1.78-10.15,0.84-12.44
			c2.49-2.18,8.2-0.71,12.5-0.77c3.99-0.06,8-0.26,11.97,0.06c3.4,0.28,4.11-0.97,4.08-4.15c-0.12-14.97,0-29.93,0.04-44.9
			C182.82,0,188.82,0,194.82,0z"/>
	</g>
</g>
</svg>
