<?xml version="1.0" encoding="utf-8"?>
<!-- Generator: Adobe Illustrator 26.5.0, SVG Export Plug-In . SVG Version: 6.00 Build 0)  -->
<svg version="1.1" id="Layer_1" xmlns="http://www.w3.org/2000/svg" xmlns:xlink="http://www.w3.org/1999/xlink" x="0px" y="0px"
	 viewBox="0 0 2248.02 2041.97" style="enable-background:new 0 0 2248.02 2041.97;" xml:space="preserve">
<style type="text/css">
	.st0{fill:#FFFFFF;}
</style>
<g>
	<g>
		<path class="st0" d="M634.41,15.47c28,0,56,0,84,0c1.84,0.65,3.64,1.51,5.53,1.92c11.05,2.44,22.22,4.42,33.18,7.21
			c54.79,13.93,105,38.4,153.06,67.56c65.81,39.92,125.55,87.79,182.02,139.89c10.48,9.67,20.89,19.42,31.67,29.44
			c2.66-2.3,4.93-4.17,7.11-6.15c22.96-20.81,45.45-42.16,68.95-62.34c56.28-48.35,116.19-91.57,182.21-125.86
			c40.09-20.82,81.79-37.34,126.12-46.78c6.76-1.44,13.44-3.26,20.15-4.9c28,0,56,0,84,0c2.16,0.75,4.27,1.73,6.48,2.21
			c17.64,3.81,34.84,8.91,51.2,16.66c51.52,24.4,86.37,64.7,109.93,115.61c23.16,50.05,32.8,103.38,35.96,157.89
			c3.66,63.33-0.79,126.38-10.17,189.08c-6.6,44.13-15.74,87.76-26.12,131.14c-0.82,3.41-1.14,6.94-1.75,10.78
			c4.4,1.46,7.81,2.71,11.29,3.72c61.2,17.74,121.17,38.9,179.17,65.37c53.81,24.56,105.38,53,152.11,89.59
			c35.41,27.72,66.83,59.14,90.9,97.47c21.53,34.26,34.39,71.41,36.37,111.86c1.76,35.95-6.07,70.2-21.46,102.67
			c-21.55,45.47-54.13,82.13-92.4,114.06c-50.82,42.41-108.05,74.31-168.04,101.57c-57.14,25.96-116.23,46.61-176.41,64.24
			c-3.75,1.1-7.45,2.33-11.8,3.7c0.7,4.07,1.11,7.32,1.83,10.48c2.6,11.36,5.4,22.68,7.96,34.05c14.36,63.78,24.81,128.2,28.4,193.5
			c2.71,49.24,1.95,98.53-5.77,147.42c-6.69,42.38-18.13,83.36-39.02,121.15c-33.2,60.07-81.97,99.85-150.15,113.95
			c-1.57,0.32-3.03,1.2-4.54,1.82c-32,0-64,0-96,0c-3.35-1.2-6.65-2.61-10.07-3.55c-16.68-4.6-33.66-8.27-50.05-13.72
			c-53.48-17.78-102.54-44.57-149.49-75.38c-55.87-36.66-107.4-78.81-156.42-124.12c-9.99-9.23-19.93-18.51-30.35-28.18
			c-2.73,2.3-5.01,4.12-7.17,6.07c-22.46,20.35-44.49,41.21-67.43,61.01c-52.85,45.6-109.03,86.61-170.43,120.11
			c-46.46,25.34-94.95,45.32-147.16,55.43c-2.53,0.49-4.96,1.54-7.43,2.33c-31.33,0-62.67,0-94,0c-2.14-0.76-4.23-1.74-6.42-2.25
			c-20.56-4.75-40.29-11.7-58.75-22.02c-48-26.83-79.79-67.64-101.08-117.45c-23.42-54.79-31.47-112.66-33.36-171.58
			c-1.32-41.23,0.21-82.42,5.6-123.39c2.38-18.09,4.11-36.31,7.52-54.21c7.85-41.19,16.55-82.22,24.89-123.32
			c0.51-2.53,0.89-5.08,1.41-8.07c-3.69-1.26-6.77-2.45-9.92-3.35c-57.68-16.62-114.28-36.32-169.2-60.61
			c-67.33-29.78-131.29-65.2-186.96-114.09c-28.47-25-53.36-53.07-72.42-86.02c-18.13-31.34-29.34-64.83-31.35-101.16
			c-2.68-48.61,10.84-92.83,36.49-133.7c23.49-37.44,54.19-68.26,88.75-95.39c55.47-43.55,117.31-75.97,182-103.27
			c48.23-20.35,97.62-37.49,147.88-52.12c4.98-1.45,9.89-3.15,14.82-4.72c-0.37-2.58-0.44-3.91-0.75-5.18
			c-11.4-46.53-21.37-93.35-28.13-140.81c-2.3-16.12-5.25-32.19-6.72-48.38c-1.93-21.21-3.14-42.5-3.83-63.79
			c-1.25-38.66,0.04-77.22,5.23-115.64c5.47-40.52,15.09-79.86,32.63-116.92C500.97,79.82,552,34.25,627.03,17.98
			C629.57,17.44,631.96,16.32,634.41,15.47z M1456.64,1357.13c66.3-8.2,132.07-19.4,197.1-34.04
			c-1.09-19.12-60.16-178.32-70.35-189.53c-2.49,4.55-4.82,8.89-7.23,13.19c-25.74,45.88-51.2,91.93-77.36,137.57
			c-13.74,23.96-28.71,47.22-43.13,70.79C1455.98,1355.79,1456.31,1356.46,1456.64,1357.13z M1250.36,559.42
			c4.9-0.55,3.52-2.35,0.88-4.41c-37.72-51.45-116.84-144.72-128-150.9c-17.51,15.3-98.18,111.57-126.83,151.37
			c-1.38,1.31-2.98,2.62,0.11,3.79c13.98-0.52,27.95-1.33,41.94-1.53C1109.11,556.75,1179.75,556.02,1250.36,559.42z
			 M1124.08,653.57c0,0.44-0.01,0.89-0.01,1.33c-11.66,0-23.31-0.02-34.97,0c-53.66,0.13-107.22,2.62-160.75,6.3
			c-6.34,0.44-10.35,2.37-13.77,7.73c-13.46,21.05-27.56,41.7-40.99,62.77c-56.68,88.87-108.06,180.7-154.31,275.42
			c-3.07,6.29-3.32,11.5-0.05,17.78c11.72,22.44,22.81,45.22,34.47,67.69c47.64,91.78,100.64,180.36,158.03,266.38
			c5.48,8.21,11.55,11.83,20.86,12.21c45.92,1.9,91.83,5.02,137.77,5.75c48.29,0.77,96.62-0.22,144.92-1.3
			c33.96-0.76,67.88-3.03,101.82-4.5c7.49-0.32,12.68-2.96,17.17-9.64c72.14-107.14,136.41-218.8,193.46-334.67
			c3.73-7.58,4.02-13.49,0.19-21.27c-43.83-89.2-91.95-176.01-144.94-260.08c-16.34-25.93-33.5-51.34-50.21-77.04
			c-2.66-4.09-5.44-6.89-10.98-7.14c-17.96-0.83-35.87-2.77-53.84-3.4C1219.99,656.22,1172.03,654.99,1124.08,653.57z
			 M1055.66,331.85c-9.79-9.21-18.67-17.67-27.68-26.01c-45.79-42.43-93.92-81.93-146.25-116.09
			c-42.84-27.96-87.54-52.26-136.82-67.16c-25.34-7.66-51.14-12.41-77.76-11.09c-31.9,1.59-59.75,12.63-82.01,36.13
			c-20.21,21.33-32.08,47.24-40.53,74.92c-10.08,33.04-14.41,67.07-15.82,101.41c-1.54,37.6-0.3,75.19,3.97,112.61
			c1.76,15.46,3.25,31,6.12,46.27c7.51,39.91,15.7,79.69,23.7,119.5c0.76,3.8,2.06,7.49,3.19,11.51c3.58-0.34,6.22-0.39,8.78-0.87
			c46.44-8.61,92.83-17.48,139.32-25.78c15.36-2.74,30.99-4.02,46.5-5.96c31.67-3.96,63.31-8.18,95.04-11.68
			c6.93-0.77,11.47-2.98,15.54-8.71c49.83-70.15,102.93-137.71,160.36-201.84C1039.08,350.35,1046.85,341.69,1055.66,331.85z
			 M1750.73,732.48c-2.78,8.52-5.04,15.39-7.28,22.28c-27.78,85.65-60.71,169.29-98.26,251.11c-3.19,6.95-3.37,12.69-0.15,19.78
			c12,26.38,23.67,52.91,34.81,79.66c24.97,59.99,47.49,120.9,67.09,182.88c1.05,3.33,2.61,6.51,4.03,10.02
			c4.97-1.22,8.87-2.01,12.67-3.13c60.14-17.76,119.13-38.63,175.89-65.46c47.44-22.43,92.85-48.25,133.09-82.3
			c23.78-20.12,45.19-42.44,60.44-69.97c21.21-38.29,23.08-77.14,3.22-116.63c-9.83-19.55-22.98-36.67-38.11-52.31
			c-28.26-29.21-61.05-52.52-95.93-73.05c-53.33-31.4-109.91-55.65-168.3-75.79C1806.91,750.24,1779.54,741.82,1750.73,732.48z
			 M1055.73,1700.67c-2.98-3.51-5.03-6-7.16-8.42c-16.94-19.28-34.13-38.33-50.79-57.85c-45.25-53.01-87.8-108.14-128.09-165.01
			c-2.69-3.79-5.56-5.79-10.44-6.33c-32.43-3.55-64.85-7.29-97.22-11.36c-58.15-7.32-115.85-17.33-173.14-29.71
			c-7.41-1.6-14.86-3.03-23.07-4.69c-1.14,4.21-2.23,7.64-3.01,11.14c-5.22,23.71-10.59,47.38-15.47,71.16
			c-3.93,19.16-8.2,38.34-10.59,57.72c-3.17,25.75-4.93,51.68-6.82,77.57c-3.73,51.08-2.1,101.91,8.9,152.11
			c6.54,29.83,16.67,58.3,34.76,83.38c18.35,25.44,42.64,41.56,73.65,47.59c29.54,5.75,58.4,1.86,86.96-5.63
			c48.55-12.73,92.57-35.53,134.79-62.02c62.65-39.31,119.24-86.32,172.83-137.09C1046.14,1709.1,1050.68,1705.21,1055.73,1700.67z
			 M1193.04,332.5c2.5,2.86,4.67,5.33,6.82,7.82c26.3,30.54,53.53,60.33,78.66,91.8c33.44,41.9,65.37,85.01,97.6,127.85
			c4.62,6.14,9.38,9.37,17.2,9.63c10.57,0.35,21.12,1.78,31.63,3.11c21.69,2.76,43.35,5.79,65.03,8.67
			c18.13,2.41,36.39,4.07,54.36,7.3c42.91,7.7,85.68,16.16,128.51,24.24c2.83,0.53,5.77,0.49,8.91,0.73
			c1.04-3.18,2.06-5.62,2.64-8.16c4.7-20.75,9.54-41.46,13.9-62.28c9.14-43.65,15.08-87.77,18.67-132.22
			c4.04-49.96,3.88-99.78-4.65-149.32c-5.12-29.7-13.42-58.43-28.27-84.89c-18.56-33.06-45.32-55.47-83.25-62.88
			c-24.95-4.87-49.74-2.79-74.35,2.57c-46.77,10.2-89.42,30.43-130.29,54.62c-72.67,43-137.07,96.65-197.73,155.01
			C1196.57,327.91,1195.07,330.08,1193.04,332.5z M1192.46,1699.67c2.64,2.79,4.76,5.26,7.12,7.49c6.77,6.42,13.6,12.78,20.45,19.11
			c41.88,38.76,85.77,75.04,133.01,107.14c40.36,27.43,82.4,51.79,128.38,68.66c34.98,12.83,70.71,21.61,108.47,17.53
			c26.73-2.88,50.09-13.09,69.46-31.95c21.64-21.08,34.07-47.42,42.99-75.69c14.1-44.68,17.54-90.85,17.23-137.25
			c-0.21-32.28-2.72-64.5-6.7-96.62c-6.48-52.31-16.81-103.84-29.23-155c-0.45-1.84-1.64-3.49-2.67-5.61
			c-6.48,1.37-12.61,2.84-18.79,3.95c-51.44,9.23-102.78,19.15-154.39,27.33c-38.38,6.08-77.08,10.27-115.74,14.34
			c-7.64,0.8-11.86,3.43-16.01,9.25c-49.96,70.05-103.11,137.59-160.52,201.72C1208,1682.46,1200.43,1690.81,1192.46,1699.67z
			 M497.23,733.67c-2.89,0.64-5.15,1.02-7.34,1.65c-57.71,16.57-114.28,36.33-168.97,61.21c-47.43,21.58-93.08,46.32-134.19,78.7
			c-26.32,20.73-50.29,43.76-67.98,72.58c-26.78,43.63-28.29,87.77-2.33,132.37c13.56,23.3,31.31,43.06,51.39,60.82
			c32.4,28.65,68.65,51.62,106.78,71.74c68.08,35.92,140.06,61.9,213.74,83.48c2.76,0.81,5.66,1.1,8.82,1.7
			c1.18-2.87,2.21-4.93,2.89-7.1c28.38-90.4,63.06-178.36,102.39-264.51c3.34-7.31,3.54-13.16,0.14-20.55
			c-39.33-85.43-73.39-172.92-101.95-262.54C499.64,740.09,498.44,737.05,497.23,733.67z M791.56,676.18
			c-34.12,2.36-67.23,7.79-100.27,13.49c-32.92,5.68-65.85,11.41-98.76,19.92c20.57,65.08,43.72,127.7,70.71,191.45
			C703.75,823.23,746.48,749.33,791.56,676.18z M663.21,1130.89c-26.96,63.75-50.25,126.63-70.64,191.78
			c66.25,15.05,132.25,26.01,201.33,34.76C746.79,1282.9,703.74,1208.81,663.21,1130.89z M1457.38,675.06
			c-0.39,0.86-0.78,1.72-1.17,2.57c14.86,24.37,29.95,48.6,44.5,73.15c14.43,24.33,28.54,48.85,42.38,73.52
			c13.87,24.71,27.23,49.7,41.25,75.36c16.49-30.05,69.54-177.15,68.87-191C1588.57,694.34,1523.26,682.96,1457.38,675.06z
			 M1252.36,1475.42c-0.41-0.75-0.82-1.49-1.22-2.24c-3.29,0-6.58-0.06-9.87,0.01c-32.61,0.7-65.22,2.07-97.83,1.99
			c-45.59-0.11-91.18-1.32-136.78-1.99c-3.4-0.05-7.19-1.34-11,2.48c40.25,53.08,82.36,104.21,128.27,153.72
			C1170.07,1579.49,1212.26,1528.33,1252.36,1475.42z"/>
		<path class="st0" d="M1250.36,559.42c0.29-1.47,0.58-2.94,0.87-4.41C1253.88,557.07,1255.26,558.87,1250.36,559.42z"/>
		<path class="st0" d="M996.41,555.48c0.04,1.27,0.07,2.53,0.11,3.8C993.44,558.1,995.04,556.78,996.41,555.48z"/>
		<path class="st0" d="M1455.66,1355.12c0.32,0.67,0.65,1.34,0.97,2.01C1456.31,1356.46,1455.98,1355.79,1455.66,1355.12z"/>
		<path class="st0" d="M1122.75,1215.95c-109.14,0.71-199.67-90.91-199.14-201.19c0.5-104.43,85.49-199.45,201.5-199.15
			c110.7,0.28,200.2,90.99,199.06,202.51C1322.99,1133.04,1227.52,1218.09,1122.75,1215.95z"/>
	</g>
</g>
</svg>
