<?xml version="1.0" encoding="utf-8"?>
<!-- Generator: Adobe Illustrator 26.5.0, SVG Export Plug-In . SVG Version: 6.00 Build 0)  -->
<svg version="1.1" id="Layer_1" xmlns="http://www.w3.org/2000/svg" xmlns:xlink="http://www.w3.org/1999/xlink" x="0px" y="0px"
	 viewBox="0 0 1200 1200" style="enable-background:new 0 0 1200 1200;" xml:space="preserve">
<style type="text/css">
	.st0{fill:#3178C5;}
</style>
<g>
	<g>
		<path class="st0" d="M1,1097c0-330.67,0-661.33,0-992c1.34-0.68,0.9-2.01,1.09-3.09c7.15-42.57,30.26-73,69.42-91.19
			C83.4,5.2,96.15,2.88,109,1c328,0,656,0,984,0c1.46,0.29,2.92,0.69,4.39,0.86c49.99,5.97,89.73,41.95,100.88,91.21
			c0.97,4.3,0.85,8.83,2.73,12.93c0,329,0,658,0,987c-0.32,1.76-0.74,3.51-0.95,5.28c-5.65,48.23-42.33,88.97-89.65,99.72
			c-4.79,1.09-9.81,1.01-14.41,3c-330.33,0-660.67,0-991,0c-0.67-1.34-2-0.93-3.08-1.09c-49.7-7.65-87.52-43-98.46-91.98
			C2.65,1104.29,2.92,1100.39,1,1097z M744.35,959.88c-0.2,1.31-0.34,1.79-0.34,2.26c-0.01,35.49,0.02,70.99-0.1,106.48
			c-0.01,2.87,1.15,4.08,3.49,5.21c17.34,8.36,35.55,14.12,54.31,18.14c48.51,10.39,97.42,12.09,146.57,5.83
			c31.3-3.99,61.4-12.07,88.59-28.77c22.43-13.78,39.68-32,49.72-56.87c11.01-27.26,15.68-55.36,13.2-84.55
			c-2.8-32.99-14.65-61.74-39.22-85.01c-16.52-15.64-35.02-27.99-54.91-38.7c-25.98-14-53.52-24.53-80.24-36.89
			c-17.02-7.87-33.14-17.22-46.44-30.67c-21.63-21.88-18.71-51,6.5-68.55c10.78-7.51,22.92-11.54,35.59-13.69
			c45.79-7.77,89.41,0.59,131.56,18.72c8.82,3.79,16.94,8.92,25.34,14.51c0.18-1.51,0.35-2.3,0.35-3.09
			c0.02-34.33-0.03-68.65,0.1-102.98c0.01-3.23-1.53-4.25-4.1-5.17c-24.93-8.84-50.62-14.04-76.94-16.36
			c-45.9-4.04-91.52-3.29-136.46,8.33c-29.86,7.72-56.93,20.99-78.98,42.83c-24.72,24.49-38.2,54.39-40.62,89.32
			c-3.21,46.37,9.62,86.54,44.49,118.52c23.53,21.57,51.47,36.01,80.22,48.96c19.41,8.74,39.33,16.43,58.06,26.58
			c16.46,8.92,32.16,19.01,42.85,35.11c14.38,21.68,8.88,49.32-12.79,63.62c-11.9,7.85-25.24,11.99-39.19,13.98
			c-44.5,6.38-86.85-1.3-127.35-20.25C772.39,979.56,758.22,970.6,744.35,959.88z M547.05,881.33c0-69.66,0.05-139.33-0.11-208.99
			c-0.01-4.6,1.21-5.79,5.76-5.77c46.33,0.16,92.66,0.03,138.99,0.21c4.5,0.02,5.48-1.26,5.45-5.58c-0.2-28.5-0.19-57,0-85.49
			c0.03-4.17-1.08-5.24-5.24-5.24c-136.33,0.11-272.65,0.12-408.98-0.01c-4.62,0-5.43,1.51-5.41,5.69
			c0.17,28.16,0.2,56.33-0.02,84.49c-0.04,4.76,1.12,6.16,6.03,6.14c45.16-0.2,90.33-0.12,135.49-0.11c8.59,0,8.59,0,8.59,8.34
			c0,138.16,0.02,276.32-0.1,414.48c0,4.69,1,6.22,5.97,6.19c36-0.22,72-0.21,107.99,0c4.73,0.03,5.68-1.43,5.67-5.86
			C547.01,1020.32,547.05,950.83,547.05,881.33z"/>
	</g>
</g>
</svg>
