<?xml version="1.0" encoding="utf-8"?>
<!-- Generator: Adobe Illustrator 26.5.0, SVG Export Plug-In . SVG Version: 6.00 Build 0)  -->
<svg version="1.1" id="Layer_1" xmlns="http://www.w3.org/2000/svg" xmlns:xlink="http://www.w3.org/1999/xlink" x="0px" y="0px"
	 viewBox="0 0 72 72" style="enable-background:new 0 0 72 72;" xml:space="preserve">
<style type="text/css">
	.st0{fill:#FFFFFF;}
	.st1{fill:#E5E5E5;}
	.st2{fill:#854CC6;}
</style>
<g>
	<g>
		<path class="st0" d="M51.7,71.82c-0.43-0.25-0.85-0.5-1.28-0.75c0.68-0.11,1.42,0.26,2.05-0.27c1.31-0.49,1.52-1.58,1.52-2.78
			c0-5.65,0-11.29,0.01-16.94c0-10.05,0-20.09,0.01-30.14c0-5.5-0.05-11.01,0.04-16.51c0.03-2.22-0.55-3.49-3.4-3.65
			c1.3-0.81,2.67-0.75,3.98-0.13c4.93,2.33,9.82,4.73,14.74,7.08c1.17,0.56,1.82,1.57,2.52,2.57c0,17.11,0,34.21,0,51.32
			c-0.67,1.14-1.47,2.17-2.71,2.74c-5.34,2.43-10.49,5.26-15.93,7.47C52.72,71.82,52.21,71.82,51.7,71.82z"/>
		<path class="st0" d="M52.46,70.8c-0.62,0.53-1.37,0.16-2.05,0.27c-2.22-1.68-3.85-3.94-5.71-5.97
			c-6.11-6.68-12.15-13.42-18.22-20.12c-0.3-0.33-0.51-0.82-1.09-0.77c-0.05-0.24-0.03-0.57-0.17-0.72c-2.4-2.39-4.4-5.16-6.95-7.41
			c-0.67-1.2-1.72-2.08-2.62-3.07c-2.16-2.37-4.19-4.87-6.54-7.07c-1.5-2.12-3.37-3.9-5.1-5.82c-1.72-1.9-1.68-1.95-3.76-0.97
			c0.24-0.99,0.91-1.6,1.81-1.98c1.71-0.72,3.43-1.41,5.14-2.15c1.32-0.57,2.44-0.3,3.51,0.59c4.97,4.11,9.95,8.19,14.93,12.29
			c1.9,1.61,3.76,3.28,5.73,4.8c1.39,1.07,2.53,2.5,4.24,3.15c0.08,0.48,0.5,0.66,0.82,0.92c1.66,1.39,3.33,2.75,5,4.12
			c3.7,3.06,7.4,6.13,11.1,9.19c-0.46,0.35-0.31,0.85-0.31,1.3c-0.01,2.25-0.02,4.51,0,6.76c0.02,2.88-0.09,5.74-0.44,8.62
			C51.61,68.05,51.09,69.65,52.46,70.8z"/>
		<path class="st1" d="M35.61,35.83c-1.71-0.65-2.85-2.07-4.24-3.15c-1.97-1.52-3.83-3.19-5.73-4.8
			C33.42,19.3,41.2,10.71,48.98,2.13c0.48-0.54,0.96-1.08,1.66-1.36c2.84,0.17,3.43,1.43,3.4,3.65c-0.08,5.5-0.03,11.01-0.04,16.51
			c-1.66,1.08-3.12,2.41-4.64,3.65C44.76,28.32,40.19,32.08,35.61,35.83z"/>
		<path class="st1" d="M18.27,36.07c2.55,2.25,4.55,5.02,6.95,7.41c0.15,0.15,0.12,0.47,0.17,0.72c-4.27,3.51-8.6,6.94-12.78,10.54
			c-3.95,3.4-3.63,2.89-7.94,1.14c-0.94-0.38-1.88-0.76-2.8-1.19c-1.08-0.51-1.75-1.36-1.75-2.59c0-10.8,0.02-21.6,0.03-32.39
			c0.18-0.16,0.22-0.34,0.1-0.56v-0.03c2.09-0.98,2.04-0.93,3.76,0.97c1.73,1.91,3.61,3.7,5.1,5.82c0,6.64,0,13.28,0,20.27
			C12.32,42.65,15.3,39.36,18.27,36.07z"/>
		<path class="st2" d="M0.25,19.16c0.12,0.21,0.09,0.4-0.1,0.56C0.18,19.53,0.21,19.35,0.25,19.16z"/>
		<path class="st0" d="M52.63,50.06c0.7,0.47,1.7,0.72,2.61,1.01c0,5.65,0,11.29-0.02,16.94c0,1.2-0.38,2.29-2.72,2.78
			c-2.47-1.15-1.52-2.74-1.23-4.06c0.61-2.87,0.81-5.74,0.79-8.62c-0.02-2.25-0.02-4.51,0-6.76C52.09,50.92,51.81,50.41,52.63,50.06
			z"/>
	</g>
</g>
</svg>
