<?xml version="1.0" encoding="utf-8"?>
<!-- Generator: Adobe Illustrator 26.5.0, SVG Export Plug-In . SVG Version: 6.00 Build 0)  -->
<svg version="1.1" id="Layer_1" xmlns="http://www.w3.org/2000/svg" xmlns:xlink="http://www.w3.org/1999/xlink" x="0px" y="0px"
	 viewBox="0 0 1179.5 1024.8" style="enable-background:new 0 0 1179.5 1024.8;" xml:space="preserve">
<style type="text/css">
	.st0{fill:#FFFFFF;}
	.st1{fill:#EDEDED;}
</style>
<g>
	<path class="st0" d="M1179.5,0.94c-8.11,12.17-14.94,25.1-22.24,37.74C1031.7,256.07,906.2,473.48,780.69,690.89
		c-63,109.14-125.98,218.29-188.97,327.44c-1.24,2.14-2.5,4.27-3.79,6.46c-2.16-0.83-2.57-2.78-3.42-4.26
		c-114.71-198.66-229.39-397.33-344.07-596C159.54,284.4,78.63,144.27-2.29,4.15C-2.93,3.02-3.76,2-4.5,0.94C-3.39-1.15-1.46,0,0,0
		c77.5-0.07,155-0.06,232.5-0.06c0.21,0.63,90.33,1.31,90.65,1.87c13.53,23.51,27.06,47.02,40.64,70.5
		c35.31,61.09,70.67,122.14,105.95,183.25c30.7,53.18,1.28,106.43,31.97,159.62c33.02,57.22,36.12,114.39,69.19,171.59
		c5.38,9.31,10.76,18.61,16.27,28.15c0.75-0.71,1.18-0.97,1.4-1.36c12.59-21.75-14.83-43.5-2.27-65.26
		c20.71-35.89,41.38-71.8,62.09-107.69c19.3-33.44,38.63-66.86,57.93-100.3c19.38-33.58,38.74-67.18,58.12-100.76
		c19.3-33.44,38.62-66.86,57.92-100.3c19.38-33.58,38.77-67.16,58.12-100.76c7.38-12.82,24.68-25.7,32.01-38.55
		c77.5,0,185-0.01,262.5,0.06C1176.46,0,1178.39-1.15,1179.5,0.94z"/>
	<path class="st1" d="M947.89-0.06c-7.44,12.85-14.84,25.73-22.33,38.55c-19.63,33.6-39.3,67.18-58.97,100.76
		c-19.58,33.44-39.19,66.86-58.77,100.3c-19.66,33.58-39.31,67.18-58.97,100.76c-19.58,33.44-39.2,66.86-58.78,100.3
		c-21.01,35.89-42,71.8-63,107.69c-12.74,21.77-25.51,43.52-38.28,65.26c-0.22,0.38-0.67,0.65-1.42,1.36
		c-5.59-9.53-11.05-18.84-16.51-28.15c-33.55-57.19-67.13-114.37-100.64-171.59C439.07,362,408.05,308.74,376.9,255.56
		c-35.81-61.1-71.68-122.16-107.51-183.25c-13.77-23.48-27.5-46.99-41.23-70.5c-0.32-0.56-0.45-1.25-0.66-1.87
		c74.07,0,148.14,0,222.2,0c-0.39,1.89,1.11,3.05,1.91,4.42c44.46,76.01,88.95,151.99,133.47,227.96c0.72,1.22,1.09,2.78,2.89,3.64
		c0.78-1.25,1.58-2.45,2.31-3.7c44.66-76.24,89.34-152.48,133.97-228.74c0.64-1.09,1.84-2.05,1.42-3.58
		C799.75-0.06,873.82-0.06,947.89-0.06z"/>
</g>
</svg>
