<?xml version="1.0" encoding="utf-8"?>
<!-- Generator: Adobe Illustrator 26.5.0, SVG Export Plug-In . SVG Version: 6.00 Build 0)  -->
<svg version="1.1" id="Layer_1" xmlns="http://www.w3.org/2000/svg" xmlns:xlink="http://www.w3.org/1999/xlink" x="0px" y="0px"
	 viewBox="0 0 1588.79 1009.05" style="enable-background:new 0 0 1588.79 1009.05;" xml:space="preserve">
<style type="text/css">
	.st0{fill:#A6A6A6;}
	.st1{fill:#273140;}
	.st2{fill:#FE9903;}
</style>
<g>
	<g>
		<path class="st0" d="M745.15,1008.92c-149.23,0-298.46,0.03-447.7-0.05c-11.12-0.01-22.03-2.51-32.96-4.31
			c-17.33-2.86-34.46-6.65-51.18-12.24c-14.52-4.86-28.66-10.57-42.32-17.41c-18.72-9.37-36.21-20.69-52.6-33.73
			c-18.52-14.74-35.14-31.38-50.04-49.76c-11.72-14.46-21.9-29.98-30.7-46.36c-8.7-16.2-16.07-32.96-21.71-50.54
			c-3.19-9.93-5.98-19.95-8.36-30.06c-2.54-10.78-4.14-21.78-5.38-32.81c-1.7-15.05-2.79-30.15-1.86-45.26
			c0.9-14.53,2.35-29.02,4.93-43.41c2.66-14.89,6.4-29.47,11.15-43.77c5.64-16.98,12.67-33.42,21.36-49.1
			c6.49-11.71,13.48-23.11,21.34-33.98c20.42-28.21,44.95-52.32,73.26-72.46c20.6-14.66,42.95-26.27,66.6-35.29
			c2.89-1.1,4.45-2.95,4.99-5.65c2.55-12.68,5.58-25.26,9.23-37.65c5-17.01,10.54-33.88,17.52-50.2
			c5.06-11.84,9.94-23.8,15.79-35.24c7.55-14.75,15.5-29.29,24.5-43.28c8.8-13.67,17.89-27.12,27.91-39.9
			c17.23-21.96,35.8-42.66,56.46-61.56c14.48-13.24,29.38-25.91,45.12-37.53c13.45-9.92,27.53-19.03,41.98-27.5
			c13.64-7.99,27.69-15.23,42.01-21.92c18.2-8.5,36.86-15.8,55.99-22.04c18.63-6.08,37.5-11.11,56.69-14.93
			c12-2.39,24.03-4.64,36.25-5.87c11.67-1.17,23.25-3.23,34.92-4.53c5.27-0.59,10.63-0.35,15.95-0.41
			c16.13-0.17,32.29-0.56,48.36,1.08c10.36,1.06,20.67,2.72,31,4.11c14.28,1.93,28.45,4.44,42.5,7.66
			c18.42,4.22,36.62,9.11,54.47,15.42c12.81,4.53,25.56,9.22,37.98,14.67c12.69,5.56,25.1,11.7,37.29,18.36
			c10.2,5.57,20.29,11.31,30.07,17.5c18.34,11.61,35.82,24.44,52.53,38.37c15.87,13.23,30.65,27.56,45.02,42.35
			c11.46,11.79,21.8,24.57,31.89,37.52c3.19,4.09,6.05,5.26,11.37,3.99c9.78-2.34,19.82-4.02,29.84-4.82
			c15.55-1.24,31.2-2.4,46.77-1.97c18.52,0.52,37.02,1.72,55.49,4.31c32.08,4.5,62.88,13.27,92.95,24.83
			c15.32,5.89,29.94,13.4,44.34,21.37c26.8,14.83,51.51,32.43,74.41,52.77c30.53,27.12,56.18,58.25,77.42,93.03
			c10.45,17.12,19.66,34.96,27.24,53.55c5.55,13.62,10.39,27.5,14.65,41.63c5.18,17.19,8.97,34.66,11.99,52.25
			c4.77,27.8,8.51,55.82,6.24,84.16c-0.62,7.71-2.61,15.3-3.86,22.96c-2.04,12.58-3.57,25.26-6.07,37.74
			c-3.59,17.86-8.5,35.38-14.56,52.61c-5.22,14.87-11.15,29.42-18.05,43.55c-11.66,23.88-25.65,46.36-41.58,67.66
			c-14.88,19.9-31.73,38.02-49.98,54.74c-17.97,16.46-37.3,31.3-58.07,44.21c-20.01,12.43-40.79,23.3-62.6,32.16
			c-19.66,7.99-39.91,14.12-60.55,19.17c-18.38,4.5-37.1,6.66-55.7,9.59c-11.95,1.89-24.08,2.35-36.24,2.35
			c-145.24-0.09-290.47-0.06-435.71-0.06C745.15,1008.98,745.15,1008.95,745.15,1008.92z M746.93,899.25
			c150.42,0,300.84,0.01,451.26-0.04c6.63,0,13.22-0.59,19.69-2.42c8.02-2.27,16.46-1.68,24.68-4.01
			c6.65-1.88,13.81-3.04,20.44-5.07c8.07-2.46,16.23-4.85,24.17-8.01c6.98-2.77,13.87-5.84,20.7-8.85
			c9.48-4.18,18.32-9.76,27.32-14.99c17.82-10.36,33.94-22.83,48.92-36.82c15.19-14.18,28.78-29.85,40.75-46.85
			c7.79-11.06,14.62-22.73,20.74-34.81c5.17-10.22,9.59-20.75,13.8-31.42c3.37-8.54,5.85-17.34,8.78-25.98
			c3.14-9.27,4.24-19.22,6.13-28.86c2.03-10.35,2.99-21.02,3.92-31.52c1.89-21.22,0.29-42.55-3.32-63.52
			c-2.22-12.88-4.39-25.82-8.76-38.41c-3.47-9.99-6.15-20.24-10.31-30.07c-4.24-10-8.57-19.89-13.83-29.43
			c-7.02-12.73-14.55-25.05-23.42-36.6c-15.54-20.25-32.99-38.52-53.02-54.43c-9.32-7.4-18.93-14.41-29.03-20.51
			c-11.05-6.67-22.57-12.63-34.59-17.69c-8.14-3.43-16.17-7-24.55-9.87c-4.22-1.44-8.86-1.95-12.65-4.05
			c-5.5-3.06-11.71-3.22-17.44-4.75c-7.81-2.08-15.94-4-24.3-4.31c-6.57-0.24-13.07-2.86-19.61-2.88
			c-17.79-0.05-35.63-1.33-53.37,0.81c-7.88,0.95-16.04,1.62-23.48,3.62c-7.13,1.91-14.54,2.33-21.68,4.67
			c-5.43,1.78-11.46,3.22-16.86,5.14c-4.19,1.49-8.71,2.34-12.88,4.34c-5.83,2.8-11.94,5.12-17.9,7.75
			c-3.35,1.47-7.03,0.12-8.27-4.14c-0.38-1.31-1.06-2.39-1.63-3.57c-4.22-8.75-9.67-16.78-14.48-25.18
			c-11.07-19.35-24.91-36.73-39.51-53.39c-15.94-18.19-33.43-34.87-52.76-49.57c-11.31-8.6-22.65-17.08-34.75-24.59
			c-6.45-4-13.24-7.31-19.68-11.23c-11.42-6.95-23.49-12.61-35.79-17.6c-7.11-2.88-14.54-5.43-21.74-8.13
			c-7.79-2.92-15.72-5.79-23.63-7.86c-11.71-3.07-23.58-5.84-35.52-8.22c-12.55-2.5-25.28-3.03-37.8-5.29
			c-7.79-1.41-15.63,0.19-23.29-0.33c-9.91-0.67-19.75,0.69-29.66-0.33c-9.2-0.95-18.41,1.33-27.59,2.22
			c-10.07,0.98-19.84,3.23-29.8,4.46c-2.13,0.26-4.51-0.09-6.38,0.74c-6.89,3.04-14.47,3.08-21.52,5.41
			c-8.42,2.78-17.13,4.72-25.5,7.63c-8.5,2.96-16.85,6.4-25.17,9.79c-12.02,4.89-23.73,10.68-35.17,16.82
			c-14.78,7.94-28.62,17.49-42.43,27.01c-15.02,10.36-28.69,22.51-41.89,35.03c-16.76,15.89-31.65,33.52-45.37,52.15
			c-9.4,12.77-17.83,26.1-25.56,39.94c-3.43,6.16-6.44,12.54-9.82,18.64c-3.18,5.73-6.13,11.71-8.34,17.62
			c-2.7,7.24-6.39,14.13-8.27,21.85c-1.63,6.7-5.13,12.97-6.57,20.01c-0.83,4.07-1.83,8.42-3.39,12.21
			c-3.04,7.37-4.12,15.17-5.84,22.75c-1.88,8.29-2.73,16.97-4.23,25.33c-2.29,12.72-2.58,25.39-3.04,38.12
			c-0.27,7.61-1.33,9.33-9.06,8.88c-9.14-0.54-17.72,2.63-26.5,3.91c-6.45,0.94-13.32,3.26-19.87,5.52
			c-7.07,2.44-14.42,4.65-20.96,7.93c-11.28,5.64-22.5,11.52-32.81,19.16c-18.67,13.86-34.93,29.81-48.48,48.73
			c-11.17,15.59-19.41,32.49-25.75,50.51c-1.38,3.94-1.89,8.07-3.38,11.82c-2.92,7.33-3.71,15.1-5.11,22.68
			c-2.41,12.99-1.02,26.24-1.13,39.38c-0.06,7.47-1.12,15.18,1.14,22.36c2.39,7.58,2.49,15.52,5.08,23.15
			c1.73,5.09,3.15,10.65,4.97,15.78c3.57,10.08,7.92,19.95,13.54,29.15c4.44,7.27,8.16,15.12,13.44,21.72
			c14.78,18.44,31.5,34.99,51.42,47.98c5.77,3.77,12,6.83,17.97,10.25c6.14,3.51,12.78,5.64,19.04,8.72
			c4.76,2.35,9.92,3.54,15.03,4.93c6.9,1.88,13.38,5.3,20.8,5.15c1.3-0.03,2.67,0.27,3.89,0.74c6.49,2.46,13.27,3.01,20.08,3.01
			C446.42,899.26,596.67,899.25,746.93,899.25z"/>
		<path class="st1" d="M506.16,438.07c0-1.67,0-3.34,0-5.01c1.34-5.11,4.45-8.38,9.32-10.68c23.17-10.91,47.56-14.53,72.87-12.58
			c14.61,1.13,28.71,4.5,40.32,14.09c14.49,11.96,20,28.41,20.53,46.41c0.67,22.8,0.44,45.64,0.27,68.46
			c-0.12,16.53,1.74,32.56,10.39,47.05c2.64,4.43,0.83,7.35-2.34,9.86c-3.9,3.08-8.12,5.77-12.25,8.56
			c-6.09,4.11-10.56,3.5-15.24-2.16c-4.14-5.01-7.63-10.44-10.35-16.36c-1.72-3.73-3.88-4.03-6.61-0.93
			c-1.53,1.74-2.95,3.62-4.65,5.18c-17.86,16.3-39.07,22.71-62.9,20.66c-21.88-1.88-38.87-11.63-47.15-32.76
			c-7.14-18.22-6.56-36.6,3.43-53.83c11.54-19.91,30.52-28.02,52.21-30.28c18.49-1.93,36.86,0.2,54.92,4.7
			c4.56,1.14,6.32-0.19,6.37-4.79c0.08-7.65,0.24-15.32-1-22.91c-1.52-9.26-3.34-18.37-12.13-23.95c-0.28-0.2-0.57-0.39-0.85-0.59
			c-1.08-1.78-2.86-2.64-4.64-3.48c-9.92-4.67-20.55-4.67-31.14-4.58c-17.41,0.15-33.51,5.93-49.34,12.34
			c-4.96,2.01-7.79,0.95-10.02-3.44c-0.01-2-0.01-4-0.02-6C507.31,440.07,507.31,439.07,506.16,438.07z M577.13,518.52
			c-7.5-0.07-15.08-0.27-22.24,2.21c-19.35,6.7-26.68,20.36-22.37,41.24c1.65,7.96,6.34,13.67,13.42,17.6
			c8.25,4.58,17.15,4.1,25.86,2.83c16.91-2.46,31.2-9.7,39.16-25.74c4.3-8.67,4.17-18.36,4.5-27.86c0.13-3.88-1.38-5.64-5.16-6.51
			C599.36,519.77,588.32,518.56,577.13,518.52z"/>
		<path class="st1" d="M1016.21,612.57c-16.72,1.37-32.12-2.94-47.43-7.2c-4.76-1.32-9.62-3.42-13.62-6.85
			c-3.6-3.1-6.07-6.48-5.58-11.57c0.3-3.14,0.04-6.33,0.06-9.49c0.04-7.35,3.73-9.97,10.59-7.32c6.29,2.42,12.42,5.14,19.01,6.91
			c18.17,4.87,36.3,7.83,54.92,2.77c7.86-2.14,15.04-5.31,19.26-12.77c5.93-10.49,4.03-23.43-6.63-30.12
			c-8.65-5.43-18.45-8-28.06-11.01c-16.06-5.03-32.97-8.24-46.43-19.24c-15.13-12.37-22.31-28.29-19.95-48.17
			c2.49-20.93,15.08-33.91,33.02-42.67c17.11-8.35,35.13-9.47,53.83-7c10.62,1.4,20.78,3.93,30.85,7.34
			c8.71,2.96,12.98,8.51,13.05,17.7c0.02,2.83,0.16,5.68-0.15,8.48c-0.7,6.44-5,8.83-10.83,5.86c-18.61-9.48-38.46-11.08-58.73-8.96
			c-7.61,0.8-14.93,3.79-20.01,10.05c-8.31,10.23-5.19,26.52,8.3,33.23c12.47,6.21,25.92,9.56,39.02,13.97
			c12.6,4.24,25.67,7.63,36.03,16.8c14.24,12.61,19.26,28.38,16.48,46.97c-3.3,22.15-16.81,36.43-36.34,45
			C1044.01,610.91,1030.15,614.24,1016.21,612.57z"/>
		<path class="st2" d="M1075.17,650.69c11.47,1.05,23.78,0.84,35.59,5.07c6.14,2.19,10.28,6.18,10.66,12.79
			c0.63,11.19-1.43,22.11-4.16,32.91c-2.72,10.77-6.28,21.24-11.26,31.17c-7.26,14.44-15.92,27.84-28.83,38.03
			c-2.58,2.04-5.1,3.34-8.04,1.05c-2.77-2.15-1.96-4.57-0.78-7.49c4.7-11.63,9.79-23.19,13.3-35.19c3.33-11.38,7.28-22.72,7.8-34.85
			c0.37-8.58-3.34-13.43-13.46-14.61c-22.49-2.63-45.02-1.43-67.38,2.27c-0.66,0.11-1.32,0.18-1.97,0.3
			c-3.91,0.72-7.89,0.17-9.34-3.68c-1.24-3.3,2.02-5.77,4.5-7.5c10.12-7.1,21.3-11.89,33.25-15.08
			C1047.95,652.4,1061.15,651.46,1075.17,650.69z"/>
		<path class="st0" d="M747.53,555.09c2.27-11.58,5.5-22.61,8.18-33.74c1.49-6.17,2.76-12.75,4.49-18.95
			c1.89-6.8,4.18-13.8,5.06-21.05c0.8-6.62,2.71-13.16,4.73-19.55c0.88-2.8,0.28-5.89,1.43-8.22c3.43-6.9,2.48-14.92,6.11-21.7
			c0.58-1.09,0.51-2.59,0.55-3.91c0.37-10.64,6.31-16.49,16.78-16.5c5.5,0,11.07,0.58,16.47-0.13c9.39-1.23,14.75,8.27,16.03,15.51
			c1.34,7.53,2.7,15.09,5.21,22.36c1.94,5.61,2.86,11.55,4.15,17.24c2.21,9.74,4.99,19.39,6.67,29.21
			c1.14,6.65,3.2,13.07,4.39,19.71c1.8,9.94,4.47,19.84,7.01,29.67c1.14,4.42,2.42,8.77,2.69,13.69c2.37-0.79,3.19-2.78,3.16-4.22
			c-0.15-7.47,3.23-14.18,4.93-21.14c1.39-5.71,2.41-11.74,4.56-17.47c2.03-5.4,3.27-11.36,4.71-17.11c1.85-7.4,3.82-14.8,5.52-22.2
			c1.51-6.55,4.58-12.74,4.77-19.66c0.12-4.43,2.19-8.66,3.43-12.79c1.87-6.26,2.53-12.86,5.26-18.98
			c1.94-4.34,2.68-8.96,7.29-11.73c1.95-1.17,3.65-2,5.91-1.98c6.83,0.06,13.7,0.47,20.47-0.14c7.43-0.67,12.05,7.28,8.77,14.7
			c-2.64,5.98-4.55,12.24-6.15,18.64c-2.06,8.22-4.91,16.25-7.62,24.3c-1.98,5.88-3.83,11.79-5.42,17.79
			c-1.22,4.58-2.73,9.15-4.34,13.58c-2.3,6.31-3.52,12.94-5.87,19.11c-1.81,4.76-2.9,9.72-4.82,14.44
			c-2.14,5.27-3.18,10.98-4.86,16.44c-1.45,4.7-2.83,9.45-4.47,14.06c-2.19,6.16-3.8,12.44-5.63,18.69
			c-1.98,6.75-4.12,13.58-7.3,19.82c-2.08,4.09-6.67,6.46-11.53,6.65c-6.82,0.28-13.66,0.26-20.48,0.03
			c-6.37-0.22-11.01-4.66-13.04-10.8c-3.1-9.4-4.43-19.25-7.18-28.63c-3.27-11.17-5.43-22.61-8.63-33.79
			c-1.7-5.94-3.43-12.27-4.18-18.72c-0.8-6.91-3.48-13.59-5.32-20.38c-0.47-1.75-0.88-3.52-1.26-5.3
			c-1.6-7.52-3.17-15.04-4.79-22.56c-0.17-0.79-0.31-1.68-1.52-2.04c-0.35,0.61-1.14,1.34-1.08,1.98c0.71,6.83-2.65,12.94-4.02,19.3
			c-1.42,6.61-1.85,13.74-5.2,19.96c-0.46,0.86-0.75,1.88-0.85,2.86c-1.22,12.13-5.03,23.75-7.9,35.47
			c-1.44,5.89-2.39,12.12-4.49,18.05c-1.89,5.32-3.29,11.31-3.93,17.1c-0.7,6.34-3.54,11.99-4.69,18.2
			c-1.09,5.89-7.21,8.62-12.41,8.92c-8.32,0.48-16.71,1.32-25.19-1.13c-7.36-2.13-8.73-7.9-10.69-13.41
			c-2.01-5.65-3.01-11.63-5.4-17.21c-1.61-3.74-2.29-7.88-3.41-11.75c-2.62-9.07-5.83-17.99-8.02-27.24
			c-1.19-5.05-2.54-10.5-5.19-15.32c-2.14-3.88-2.79-8.53-3.71-12.63c-2.13-9.44-5.62-18.47-8.1-27.76
			c-2.35-8.82-5.14-17.74-8.33-26.44c-1.69-4.6-3.18-9.57-4.3-14.53c-1.33-5.87-3.16-11.73-5.57-17.24
			c-2.81-6.44,0.62-12.95,7.63-13.07c5.66-0.1,11.37,0.47,16.98-0.1c15.21-1.54,16.49,6.17,20.27,17.51
			c2.23,6.68,3.41,13.64,5.13,20.41c1.57,6.16,3.28,12.35,4.91,18.51c1.82,6.9,3.36,13.9,5.16,20.8c1.57,6.01,3.13,12.11,4.79,18.13
			c1.93,7.03,3.63,14.19,5.24,21.21c1.56,6.84,4.48,13.48,4.78,20.63C744.38,551.07,744.62,553.52,747.53,555.09z M688.67,414.97
			c0,0.01,0,0.03,0,0.04c-1.5,0-3,0.01-4.5,0c-1.67-0.01-3.33-0.07-5-0.07c-6.4-0.03-8.19,1.68-6.45,7.75
			c5.96,20.78,12.22,41.48,18.5,62.17c6.07,20.02,12.33,39.99,18.47,59.99c5.37,17.5,10.62,35.04,16.08,52.52
			c2.05,6.57,4.84,8.41,11.8,8.5c5,0.06,9.99-0.03,14.99,0c11.05,0.06,13.69-2.36,16.12-13.28c3.71-16.71,7.71-33.37,11.72-50.02
			c6.3-26.19,13.09-52.26,18.61-78.64c0.41-1.94,0.22-4.95,3.3-4.71c2.63,0.21,3.08,2.81,3.29,4.96c0.86,8.83,3.69,17.23,5.66,25.8
			c4.63,20.09,9.67,40.09,14.49,60.14c3.77,15.68,7.36,31.4,11.23,47.05c1.57,6.33,5.08,8.8,11.5,8.83
			c6.33,0.03,12.66,0.05,18.99-0.03c6.57-0.08,9.44-2.1,11.41-8.32c7.72-24.39,15.38-48.81,23.02-73.22
			c7.55-24.11,15.06-48.23,22.56-72.35c3.01-9.68,6.14-19.32,8.82-29.09c1.61-5.85-0.42-8.01-6.49-8.01c-5.83,0-11.66,0-17.49,0.03
			c-7.67,0.04-10.63,2.35-12.46,9.57c-5.94,23.36-11.87,46.72-17.85,70.07c-4.25,16.59-8.56,33.17-12.91,49.73
			c-1.65,6.28-3.4,12.52-4.4,18.94c-0.3,1.97-1.44,3.68-3.48,3.64c-2.09-0.04-2.18-2.2-2.5-3.79c-0.5-2.44-0.76-4.94-1.34-7.36
			c-5.94-25.07-11.93-50.14-17.89-75.21c-4.57-19.25-9.13-38.5-13.66-57.76c-1.14-4.85-4.23-7.61-9.09-7.76
			c-7.32-0.23-14.66-0.17-21.98,0.05c-4.78,0.15-8.17,2.35-9.18,7.5c-0.73,3.75-1.92,7.41-2.79,11.13
			c-3.84,16.35-7.59,32.72-11.46,49.07c-3.79,16.02-7.76,31.99-11.53,48.01c-2.48,10.52-4.77,21.08-7.12,31.63
			c-0.31,1.4-0.82,2.66-2.42,2.73c-1.33,0.06-2.09-0.98-2.51-2.1c-0.47-1.23-0.78-2.52-1.09-3.81c-2.09-8.56-4.12-17.14-6.27-25.68
			c-4.91-19.51-9.84-39.02-14.82-58.51c-4.48-17.56-8.94-35.12-13.6-52.63c-1.51-5.66-4.32-7.42-10.29-7.46
			C695.34,414.95,692.01,414.97,688.67,414.97z"/>
		<path class="st0" d="M791.74,799.69c-22.53,1.74-44.8-1.35-67.01-4.17c-8.79-1.11-17.65-2.49-26.41-4.45
			c-11.1-2.48-22.34-4.43-33.28-7.55c-13.29-3.79-26.54-7.69-39.5-12.64c-9.24-3.53-18.54-6.88-27.57-10.92
			c-16.99-7.6-33.62-15.86-49.74-25.22c-18.34-10.65-35.8-22.58-52.69-35.33c-9.5-7.17-18.42-15.13-27.32-23.06
			c-4.53-4.04-4.07-8.15,0.13-11.89c2.45-2.19,4.79-1.89,7.28-0.54c12.63,6.84,25.11,13.97,37.9,20.51
			c8.06,4.12,16.67,7.18,24.85,11.1c8.94,4.29,18.18,7.78,27.43,11.25c8.32,3.13,16.68,6.2,25.13,9.05
			c9.04,3.05,18.14,5.98,27.28,8.54c10.3,2.89,20.66,5.71,31.09,8.23c7.38,1.79,14.89,3,22.27,4.89c8.27,2.12,16.85,3.41,25.34,4.7
			c15.03,2.29,30.17,3.9,45.26,5.84c6.11,0.78,12.3,0.92,18.38,1.02c16.93,0.28,33.86,2.33,50.76,1.13
			c19.99-1.42,40.02-1.62,60.02-4.23c17.23-2.25,34.43-4.74,51.47-7.89c15.87-2.93,31.6-6.9,47.18-11.44
			c12.68-3.69,25.36-7.4,37.92-11.46c10.35-3.35,20.27-8,30.55-11.58c5.46-1.9,10.33-6.14,16.87-4.53c4.33,1.06,6.9,3.67,8.3,7.66
			c1.44,4.1,0.18,7.56-2.98,10.29c-8.54,7.38-18.2,13.14-27.74,19.08c-11.78,7.34-24.14,13.65-36.64,19.59
			c-9.06,4.3-18.56,7.79-27.9,11.54c-11.06,4.44-22.3,8.38-33.66,11.67c-10.28,2.97-20.61,5.95-31.15,8.2
			c-10.51,2.24-21.08,4.17-31.6,6.36c-13.15,2.73-26.6,3.21-39.86,5.22C818.7,800.68,805.19,799.52,791.74,799.69z M795.19,796.67
			c20.74,0.55,43.91-1.28,66.91-4.49c9.28-1.3,18.58-3.03,27.78-5.24c6.41-1.54,12.87-3.02,19.34-4.29
			c10.25-2.01,20.1-5.43,30.15-8.1c8.56-2.28,16.76-5.92,25.14-8.93c12.13-4.36,24.03-9.27,35.61-14.91
			c13.79-6.72,27.26-14.05,40.19-22.33c6.14-3.93,12.43-7.69,17.8-12.68c2.56-2.37,5.5-5.18,3.02-9.02
			c-2.36-3.65-5.67-5.61-10.6-4.45c-7.15,1.69-13.59,5.11-20.39,7.62c-10.22,3.77-20.41,7.61-30.84,10.81
			c-9.18,2.82-18.15,6.42-27.45,8.67c-10.91,2.64-21.71,5.73-32.71,8.1c-13.59,2.93-27.18,5.9-40.9,7.93
			c-12.6,1.87-25.23,3.6-37.96,4.82c-16.04,1.54-32.08,2.84-48.15,3.17c-21.76,0.44-43.46-0.53-65.19-2.48
			c-20.99-1.88-41.86-4.26-62.54-8.06c-15.27-2.81-30.46-6.15-45.54-9.84c-12.99-3.18-25.85-6.95-38.63-10.91
			c-10.11-3.13-20.1-6.68-29.97-10.5c-11.88-4.6-23.67-9.43-35.34-14.6c-12.99-5.75-25.74-11.95-38.34-18.47
			c-6.57-3.4-12.92-7.25-19.42-10.8c-2.95-1.61-6.18-2.3-8.67,0.61c-2.82,3.31,0.54,5.22,2.41,6.95
			c12.26,11.38,25.41,21.69,39.01,31.4c8.61,6.14,17.26,12.27,26.25,17.82c10.65,6.58,20.97,13.77,32.44,18.97
			c9.62,4.36,19.36,8.47,28.84,13.11c15.61,7.65,32,13.3,48.5,18.41c14.8,4.58,29.82,8.52,45.05,11.75
			c16.39,3.48,32.91,5.91,49.48,7.77C757.77,796.44,775.22,796.94,795.19,796.67z"/>
		<path class="st0" d="M602.17,446.8c8.79,5.58,10.61,14.68,12.13,23.95c1.25,7.6,1.08,15.26,1,22.91c-0.05,4.6-1.81,5.93-6.37,4.79
			c-18.06-4.5-36.43-6.63-54.92-4.7c-21.69,2.26-40.67,10.37-52.21,30.28c-9.98,17.23-10.57,35.61-3.43,53.83
			c8.28,21.13,25.27,30.89,47.15,32.76c23.82,2.05,45.03-4.36,62.9-20.66c1.71-1.56,3.12-3.44,4.65-5.18
			c2.73-3.1,4.89-2.8,6.61,0.93c2.72,5.91,6.21,11.35,10.35,16.36c4.68,5.66,9.15,6.27,15.24,2.16c4.13-2.79,8.35-5.47,12.25-8.56
			c3.17-2.51,4.98-5.43,2.34-9.86c-8.65-14.48-10.51-30.51-10.39-47.05c0.17-22.82,0.4-45.66-0.27-68.46
			c-0.53-18-6.04-34.45-20.53-46.41c-11.62-9.59-25.71-12.96-40.32-14.09c-25.31-1.95-49.7,1.67-72.87,12.58
			c-4.87,2.29-7.99,5.57-9.32,10.68c-1.94-4.6,0.25-9,5.67-11.56c9.53-4.5,19.34-7.9,29.64-10.55c12.67-3.26,25.39-4.88,38.23-4.33
			c11.64,0.5,23.59,1.29,34.48,5.95c13.16,5.63,23.72,14.16,30.15,27.76c5.77,12.2,7.66,24.94,8.05,37.98
			c0.51,16.98,0.35,33.99,0.04,50.97c-0.21,11.67,0.54,23.29,1.43,34.86c0.55,7.14,4.47,13.72,8.09,19.97
			c2.43,4.2,2.57,8.15-0.76,11.33c-6,5.72-13.06,10.17-20.39,13.95c-4.13,2.13-7.65-0.93-10.54-3.76
			c-5.04-4.92-8.62-10.95-11.77-17.15c-1.55-3.06-2.47-3.49-4.82-0.85c-7.93,8.91-17.67,15.04-28.67,19.74
			c-13.17,5.63-26.85,7.83-40.74,6.09c-17.36-2.18-32.24-9.2-42.86-24.44c-10.55-15.14-11.55-32.02-8.65-48.58
			c2.89-16.53,12.83-29.86,28-38.58c11.4-6.55,23.42-9.98,36.63-10.76c12.36-0.73,24.51,0.44,36.72,1.38
			c4.56,0.35,8.76,2.82,13.54,2.93c3.67,0.09,4.63-1.15,4.5-4.58c-0.24-6.66,0.16-13.34-0.27-19.98c-0.5-7.73-3.16-14.81-8.41-20.66
			C602.52,449.12,601.67,448.31,602.17,446.8z"/>
		<path class="st0" d="M506.18,447.07c2.23,4.39,5.06,5.45,10.02,3.44c15.83-6.41,31.93-12.19,49.34-12.34
			c10.59-0.09,21.23-0.1,31.14,4.58c1.78,0.84,3.56,1.69,4.64,3.48c-1.03,0.8-2.36,0.95-3.31,0.37
			c-12.24-7.37-25.82-6.47-39.09-5.63c-7.24,0.46-14.48,2.52-21.58,4.79c-7.38,2.36-14.69,4.8-21.86,7.75
			c-1.85,0.76-4.38,0.58-6.39,0.05C505.84,452.69,503.88,450.7,506.18,447.07z"/>
		<path class="st0" d="M506.16,438.07c1.14,1,1.15,2,0,3C504.45,440.07,504.45,439.07,506.16,438.07z"/>
		<path class="st1" d="M688.67,414.97c3.33,0,6.66-0.02,9.99,0c5.97,0.04,8.78,1.8,10.29,7.46c4.66,17.51,9.12,35.07,13.6,52.63
			c4.98,19.5,9.91,39,14.82,58.51c2.15,8.55,4.17,17.12,6.27,25.68c0.31,1.28,0.63,2.58,1.09,3.81c0.42,1.12,1.18,2.17,2.51,2.1
			c1.6-0.08,2.11-1.33,2.42-2.73c2.35-10.55,4.64-21.11,7.12-31.63c3.78-16.02,7.74-31.99,11.53-48.01
			c3.87-16.34,7.62-32.72,11.46-49.07c0.87-3.72,2.06-7.38,2.79-11.13c1.01-5.15,4.39-7.35,9.18-7.5
			c7.32-0.22,14.66-0.28,21.98-0.05c4.86,0.15,7.95,2.91,9.09,7.76c4.53,19.26,9.09,38.51,13.66,57.76
			c5.96,25.07,11.95,50.13,17.89,75.21c0.57,2.42,0.84,4.92,1.34,7.36c0.32,1.59,0.42,3.74,2.5,3.79c2.05,0.04,3.18-1.67,3.48-3.64
			c1-6.43,2.75-12.67,4.4-18.94c4.35-16.57,8.65-33.14,12.91-49.73c5.98-23.35,11.91-46.71,17.85-70.07
			c1.83-7.22,4.8-9.53,12.46-9.57c5.83-0.03,11.66-0.03,17.49-0.03c6.07,0,8.09,2.16,6.49,8.01c-2.68,9.77-5.81,19.41-8.82,29.09
			c-7.5,24.12-15.02,48.24-22.56,72.35c-7.64,24.42-15.3,48.83-23.02,73.22c-1.97,6.23-4.84,8.24-11.41,8.32
			c-6.33,0.08-12.66,0.05-18.99,0.03c-6.42-0.03-9.93-2.5-11.5-8.83c-3.87-15.65-7.46-31.37-11.23-47.05
			c-4.82-20.05-9.85-40.05-14.49-60.14c-1.98-8.57-4.8-16.97-5.66-25.8c-0.21-2.15-0.65-4.75-3.29-4.96
			c-3.09-0.24-2.9,2.77-3.3,4.71c-5.52,26.38-12.31,52.45-18.61,78.64c-4,16.65-8,33.3-11.72,50.02
			c-2.43,10.92-5.07,13.34-16.12,13.28c-5-0.03-9.99,0.07-14.99,0c-6.96-0.09-9.74-1.92-11.8-8.5
			c-5.46-17.47-10.71-35.01-16.08-52.52c-6.14-20-12.39-39.97-18.47-59.99c-6.28-20.69-12.54-41.38-18.5-62.17
			c-1.74-6.07,0.05-7.78,6.45-7.75c1.67,0.01,3.33,0.06,5,0.07C685.67,414.98,687.17,414.97,688.67,414.97
			C688.67,414.99,688.67,414.98,688.67,414.97z"/>
		<path class="st2" d="M795.19,796.67c-19.97,0.27-37.42-0.23-54.72-2.18c-16.57-1.87-33.1-4.29-49.48-7.77
			c-15.22-3.23-30.25-7.17-45.05-11.75c-16.5-5.11-32.9-10.76-48.5-18.41c-9.48-4.65-19.22-8.75-28.84-13.11
			c-11.46-5.2-21.79-12.39-32.44-18.97c-8.99-5.55-17.64-11.68-26.25-17.82c-13.6-9.71-26.75-20.02-39.01-31.4
			c-1.87-1.73-5.23-3.64-2.41-6.95c2.48-2.92,5.71-2.22,8.67-0.61c6.5,3.55,12.84,7.4,19.42,10.8c12.6,6.52,25.35,12.72,38.34,18.47
			c11.67,5.17,23.46,10,35.34,14.6c9.87,3.82,19.86,7.37,29.97,10.5c12.78,3.96,25.64,7.73,38.63,10.91
			c15.08,3.69,30.27,7.04,45.54,9.84c20.69,3.8,41.56,6.18,62.54,8.06c21.73,1.94,43.44,2.92,65.19,2.48
			c16.07-0.33,32.11-1.63,48.15-3.17c12.72-1.22,25.36-2.96,37.96-4.82c13.72-2.03,27.31-5,40.9-7.93c11-2.37,21.8-5.46,32.71-8.1
			c9.3-2.25,18.28-5.85,27.45-8.67c10.43-3.2,20.61-7.04,30.84-10.81c6.8-2.51,13.23-5.93,20.39-7.62c4.93-1.16,8.24,0.8,10.6,4.45
			c2.48,3.83-0.46,6.64-3.02,9.02c-5.37,4.99-11.67,8.75-17.8,12.68c-12.93,8.28-26.4,15.61-40.19,22.33
			c-11.58,5.65-23.48,10.56-35.61,14.91c-8.37,3.01-16.57,6.65-25.14,8.93c-10.05,2.67-19.9,6.09-30.15,8.1
			c-6.47,1.27-12.94,2.75-19.34,4.29c-9.19,2.21-18.49,3.95-27.78,5.24C839.1,795.39,815.94,797.22,795.19,796.67z"/>
	</g>
</g>
</svg>
