<?xml version="1.0" encoding="utf-8"?>
<!-- Generator: Adobe Illustrator 26.5.0, SVG Export Plug-In . SVG Version: 6.00 Build 0)  -->
<svg version="1.1" id="Layer_1" xmlns="http://www.w3.org/2000/svg" xmlns:xlink="http://www.w3.org/1999/xlink" x="0px" y="0px"
	 viewBox="0 0 1588.79 1009.05" style="enable-background:new 0 0 1588.79 1009.05;" xml:space="preserve">
<style type="text/css">
	.st0{fill:#273140;}
	.st1{fill:#FE9903;}
</style>
<g>
	<g>
		<g>
			<path class="st0" d="M1179.59,480.94c9.49,8.14,21.02,13.12,32.31,16.25c36.32,10.11,72.85,20.33,112.51,17.08
				c33.07,3.96,65.94-3.94,96.45-17.29c46.33-20.33,78.37-54.2,86.2-106.74c6.59-44.1-5.31-81.5-39.09-111.42
				c-24.57-21.75-55.58-29.79-85.47-39.85c-31.07-10.46-62.98-18.41-92.56-33.14c-32-15.92-39.4-54.56-19.69-78.82
				c12.05-14.85,29.41-21.94,47.47-23.84c48.08-5.03,95.17-1.23,139.31,21.25c13.83,7.04,24.03,1.38,25.69-13.9
				c0.74-6.64,0.4-13.4,0.36-20.12c-0.17-21.8-10.29-34.96-30.96-41.99c-23.89-8.09-47.99-14.09-73.18-17.41
				c-44.36-5.86-87.1-3.2-127.69,16.6c-42.55,20.78-72.42,51.57-78.33,101.22c-5.6,47.16,11.43,84.92,47.32,114.26
				c31.93,26.09,72.04,33.71,110.14,45.64c22.8,7.14,46.04,13.24,66.56,26.12c25.29,15.87,29.79,46.56,15.73,71.45
				c-10.01,17.7-27.04,25.22-45.69,30.29c-44.17,12-87.17,4.98-130.27-6.57c-15.63-4.2-30.17-10.65-45.09-16.39
				c-16.27-6.29-25.03-0.07-25.12,17.36c-0.05,7.5,0.57,15.06-0.14,22.51C1165.19,465.57,1171.05,473.58,1179.59,480.94z"/>
			<path class="st1" d="M1573.97,647.05c-0.9-15.68-10.72-25.14-25.29-30.34c-28.01-10.03-57.21-9.54-84.42-12.03
				c-33.26,1.83-64.57,4.06-95.17,12.31c-28.35,7.57-54.87,18.93-78.87,35.77c-5.88,4.1-13.62,9.96-10.67,17.79
				c3.44,9.13,12.88,10.44,22.16,8.73c1.54-0.28,3.11-0.45,4.67-0.71c53.04-8.78,106.48-11.62,159.83-5.38
				c24.01,2.8,32.81,14.3,31.93,34.66c-1.23,28.77-10.6,55.67-18.5,82.67c-8.33,28.46-20.4,55.89-31.55,83.47
				c-2.8,6.93-4.72,12.67,1.85,17.77c6.97,5.43,12.95,2.35,19.07-2.49c30.62-24.17,51.17-55.96,68.39-90.21
				c11.81-23.55,20.26-48.39,26.71-73.94C1570.58,699.5,1575.46,673.6,1573.97,647.05z"/>
			<path class="st0" d="M514.89,109.09c2.66,11.77,6.19,23.55,10.2,34.47c7.57,20.64,14.19,41.8,19.76,62.72
				c5.88,22.04,14.16,43.46,19.21,65.85c2.18,9.73,3.72,20.76,8.8,29.96c6.29,11.43,9.49,24.36,12.31,36.34
				c5.19,21.94,12.81,43.1,19.02,64.62c2.66,9.18,4.27,19,8.09,27.87c5.67,13.24,8.04,27.42,12.81,40.82
				c4.65,13.07,7.9,26.76,25.36,31.81c20.12,5.81,40.02,3.82,59.75,2.68c12.33-0.71,26.85-7.19,29.44-21.16
				c2.73-14.73,9.46-28.13,11.12-43.17c1.52-13.73,4.84-27.94,9.32-40.56c4.98-14.07,7.23-28.84,10.65-42.82
				c6.81-27.8,15.85-55.36,18.74-84.14c0.24-2.32,0.93-4.74,2.02-6.78c7.95-14.75,8.97-31.67,12.33-47.35
				c3.25-15.09,11.22-29.58,9.54-45.78c-0.14-1.52,1.73-3.25,2.56-4.7c2.87,0.85,3.2,2.97,3.61,4.84
				c3.84,17.84,7.57,35.68,11.36,53.51c0.9,4.22,1.87,8.42,2.99,12.57c4.36,16.11,10.72,31.95,12.62,48.34
				c1.78,15.3,5.88,30.32,9.92,44.41c7.59,26.52,12.71,53.66,20.47,80.15c6.52,22.25,9.68,45.61,17.03,67.91
				c4.82,14.56,15.82,25.1,30.93,25.62c16.18,0.55,32.4,0.59,48.58-0.07c11.53-0.45,22.42-6.07,27.35-15.77
				c7.54-14.8,12.62-31,17.32-47.01c4.34-14.83,8.16-29.72,13.35-44.33c3.89-10.94,7.16-22.2,10.6-33.35
				c3.98-12.95,6.45-26.5,11.53-39c4.55-11.2,7.14-22.96,11.43-34.25c5.57-14.64,8.47-30.36,13.92-45.33
				c3.82-10.51,7.4-21.35,10.29-32.21c3.77-14.23,8.16-28.25,12.86-42.2c6.43-19.1,13.19-38.14,18.08-57.64
				c3.8-15.18,8.33-30.03,14.59-44.22c7.78-17.6-3.18-36.46-20.8-34.87c-16.06,1.45-32.35,0.47-48.56,0.33
				c-5.36-0.05-9.39,1.92-14.02,4.7c-10.94,6.57-12.69,17.53-17.29,27.82c-6.48,14.52-8.04,30.17-12.48,45.02
				c-2.94,9.8-7.85,19.83-8.14,30.34c-0.45,16.41-7.73,31.1-11.31,46.64c-4.03,17.55-8.71,35.11-13.09,52.66
				c-3.42,13.64-6.36,27.78-11.17,40.59c-5.1,13.59-7.52,27.9-10.82,41.44c-4.03,16.51-12.05,32.43-11.69,50.15
				c0.07,3.42-1.87,8.14-7.5,10.01c-0.64-11.67-3.68-21.99-6.38-32.47c-6.03-23.32-12.36-46.8-16.63-70.38
				c-2.82-15.75-7.71-30.98-10.41-46.75c-3.99-23.29-10.58-46.18-15.82-69.29c-3.06-13.5-5.24-27.59-9.84-40.89
				c-5.95-17.25-9.18-35.18-12.36-53.04c-3.04-17.17-15.75-39.71-38.02-36.79c-12.81,1.68-26.02,0.31-39.07,0.31
				c-24.84,0.02-38.93,13.9-39.8,39.14c-0.09,3.13,0.07,6.69-1.3,9.27c-8.61,16.08-6.36,35.11-14.49,51.47
				c-2.73,5.53-1.3,12.86-3.39,19.5c-4.79,15.16-9.32,30.67-11.22,46.37c-2.09,17.2-7.52,33.8-12,49.93
				c-4.1,14.71-7.12,30.32-10.65,44.95c-6.36,26.4-14.02,52.57-19.4,80.03c-6.9-3.72-7.47-9.54-7.76-15.51
				c-0.71-16.96-7.64-32.71-11.34-48.94c-3.82-16.65-7.85-33.64-12.43-50.31c-3.94-14.28-7.64-28.75-11.36-43.01
				c-4.27-16.37-7.92-32.97-12.24-49.34c-3.87-14.61-7.92-29.3-11.65-43.91c-4.08-16.06-6.88-32.57-12.17-48.41
				c-8.97-26.9-12-45.19-48.08-41.53c-13.31,1.35-26.85,0-40.28,0.24c-16.63,0.28-24.76,15.73-18.1,31
				C507.39,81.27,511.73,95.17,514.89,109.09z M508.14,54.87c-0.04,2.39,0.46,5.32,1.48,8.89c14.14,49.32,28.99,98.39,43.88,147.47
				c14.42,47.49,29.25,94.86,43.81,142.3c12.74,41.54,25.19,83.14,38.14,124.58c4.89,15.61,11.48,19.95,27.99,20.16
				c11.86,0.17,23.7-0.07,35.56,0c26.21,0.14,32.47-5.6,38.24-31.5c8.82-39.66,18.31-79.16,27.8-118.65
				c14.94-62.12,31.05-123.96,44.14-186.54c0.95-4.6,0.5-11.74,7.83-11.17c6.26,0.5,7.31,6.67,7.8,11.77
				c2.04,20.95,8.73,40.87,13.43,61.2c11.01,47.65,22.94,95.1,34.37,142.66c8.94,37.19,17.46,74.48,26.64,111.61
				c3.72,15.02,12.05,20.87,27.28,20.95c15.02,0.05,30.03,0.12,45.05-0.07c15.58-0.19,22.39-4.96,27.07-19.74
				c18.31-57.85,36.48-115.76,54.61-173.68c17.89-57.19,35.72-114.41,53.51-171.62c7.14-22.96,14.56-45.83,20.92-69
				c0.95-3.46,1.36-6.38,1.22-8.81c0.15,2.45-0.26,5.39-1.22,8.9c-6.36,23.18-13.78,46.04-20.92,69
				c-17.79,57.21-35.6,114.43-53.51,171.62c-18.12,57.9-36.29,115.83-54.61,173.68c-4.67,14.75-11.48,19.55-27.07,19.74
				c-15.02,0.19-30.03,0.14-45.05,0.07c-15.23-0.07-23.55-5.93-27.28-20.95c-9.18-37.12-17.7-74.41-26.64-111.61
				c-11.43-47.56-23.39-95-34.37-142.66c-4.67-20.33-11.39-40.25-13.43-61.2c-0.5-5.1-1.57-11.27-7.8-11.77
				c-7.31-0.57-6.86,6.57-7.83,11.17c-13.09,62.58-29.2,124.42-44.14,186.54c-9.51,39.5-19,79.01-27.8,118.65
				c-5.76,25.9-12.03,31.64-38.24,31.5c-11.86-0.07-23.7,0.14-35.56,0c-16.51-0.21-23.13-4.58-27.99-20.16
				c-12.95-41.46-25.4-83.07-38.14-124.58c-14.56-47.44-29.41-94.81-43.81-142.3c-14.9-49.08-29.75-98.18-43.88-147.47
				C508.59,60.24,508.08,57.28,508.14,54.87z"/>
			<path class="st1" d="M1417.2,719.4c-15.51-3.82-27.07,6.24-40.02,10.75c-24.38,8.49-47.92,19.52-72.47,27.47
				c-29.79,9.63-59.87,18.43-89.95,27.18c-36.96,10.77-74.27,20.19-111.91,27.14c-40.42,7.47-81.22,13.38-122.09,18.72
				c-47.44,6.19-94.95,6.67-142.37,10.03c-40.09,2.85-80.25-2.02-120.41-2.68c-14.42-0.24-29.11-0.57-43.6-2.42
				c-35.79-4.6-71.71-8.42-107.36-13.85c-20.14-3.06-40.49-6.12-60.11-11.15c-17.51-4.48-35.32-7.35-52.83-11.6
				c-24.74-5.98-49.32-12.67-73.75-19.52c-21.68-6.07-43.27-13.02-64.71-20.26c-20.04-6.76-39.87-14.04-59.61-21.47
				c-21.94-8.23-43.86-16.51-65.07-26.69c-19.4-9.3-39.83-16.56-58.95-26.33c-30.34-15.51-59.94-32.43-89.9-48.65
				c-5.91-3.2-11.46-3.91-17.27,1.28c-9.96,8.87-11.05,18.62-0.31,28.2c21.11,18.81,42.27,37.69,64.8,54.7
				c40.06,30.24,81.48,58.54,124.98,83.81c38.24,22.2,77.69,41.8,117.99,59.82c21.42,9.58,43.48,17.53,65.4,25.9
				c30.74,11.74,62.17,20.99,93.7,29.98c25.95,7.4,52.61,12.03,78.94,17.91c20.78,4.65,41.8,7.92,62.65,10.56
				c52.68,6.69,105.51,14.02,158.95,9.89c31.9-0.4,63.95,2.35,95.74-2.44c31.45-4.77,63.36-5.91,94.55-12.38
				c24.95-5.19,50.03-9.77,74.96-15.09c25-5.34,49.51-12.41,73.89-19.45c26.95-7.8,53.61-17.15,79.84-27.68
				c22.16-8.9,44.69-17.17,66.18-27.37c29.65-14.09,58.97-29.06,86.91-46.47c22.63-14.09,45.54-27.75,65.8-45.26
				c7.5-6.48,10.48-14.68,7.07-24.41C1433.57,728.11,1427.47,721.92,1417.2,719.4z M800.13,950.96c6.15,0.16,12.38,0.24,18.7,0.23
				C812.51,951.2,806.28,951.13,800.13,950.96z M838.16,950.92c6.32-0.17,12.7-0.41,19.13-0.73
				C850.85,950.5,844.47,950.75,838.16,950.92z M818.87,951.19c6.28-0.01,12.63-0.1,19.04-0.27
				C831.5,951.09,825.15,951.18,818.87,951.19z M878.28,948.92c5.99-0.42,12.01-0.91,18.06-1.44
				C890.29,948.01,884.27,948.5,878.28,948.92z M857.96,950.15c6.24-0.31,12.52-0.69,18.84-1.13
				C870.48,949.47,864.19,949.84,857.96,950.15z M899.12,947.23c5.52-0.5,11.05-1.05,16.6-1.63
				C910.17,946.19,904.64,946.73,899.12,947.23z M920.61,945.08c4.71-0.51,9.43-1.06,14.15-1.63
				C930.04,944.01,925.32,944.56,920.61,945.08z M942.89,942.43c3.49-0.44,6.98-0.9,10.46-1.38
				C949.87,941.53,946.38,941.99,942.89,942.43z M1433.13,745.37c0.01-0.14,0.01-0.29,0.01-0.43
				C1433.13,745.08,1433.14,745.22,1433.13,745.37z M1433.17,743.91c-0.08-1.99-0.75-4.11-2.22-6.38
				c-5.6-8.66-13.45-13.31-25.14-10.56c-16.98,4.01-32.24,12.12-48.37,18.08c-24.27,8.94-48.41,18.05-73.15,25.64
				c-21.75,6.69-43.05,15.23-65.11,20.57c-25.88,6.26-51.5,13.59-77.59,19.21c-32.24,6.95-64.47,14-97.02,18.81
				c-29.89,4.41-59.87,8.54-90.04,11.43c-38.05,3.65-76.1,6.74-114.22,7.52c-51.59,1.04-103.09-1.28-154.64-5.88
				c-49.77-4.46-99.27-10.11-148.35-19.12c-36.22-6.64-72.25-14.59-108.02-23.34c-30.81-7.54-61.32-16.49-91.63-25.88
				c-23.98-7.42-47.68-15.85-71.09-24.91c-28.18-10.91-56.15-22.37-83.83-34.63c-30.81-13.64-61.06-28.35-90.95-43.81
				c-15.61-8.07-30.65-17.2-46.07-25.62c-7.02-3.82-14.68-5.48-20.57,1.45c-1.67,1.96-2.43,3.72-2.55,5.31
				c0.12-1.6,0.87-3.36,2.55-5.33c5.91-6.9,13.57-5.27,20.57-1.45c15.42,8.42,30.48,17.55,46.07,25.62
				c29.89,15.47,60.13,30.17,90.95,43.81c27.68,12.26,55.65,23.72,83.83,34.63c23.41,9.06,47.11,17.48,71.09,24.91
				c30.32,9.39,60.82,18.34,91.63,25.88c35.77,8.75,71.8,16.68,108.02,23.34c49.05,9.01,98.56,14.66,148.35,19.12
				c51.55,4.63,103.02,6.93,154.64,5.88c38.12-0.78,76.17-3.87,114.22-7.52c30.2-2.89,60.16-7,90.04-11.43
				c32.54-4.82,64.78-11.86,97.02-18.81c26.09-5.62,51.71-12.95,77.59-19.21c22.06-5.34,43.34-13.88,65.11-20.57
				c24.74-7.59,48.91-16.7,73.15-25.64c16.13-5.95,31.41-14.07,48.37-18.08c11.69-2.75,19.55,1.9,25.14,10.56
				C1432.43,739.78,1433.1,741.91,1433.17,743.91z"/>
			<path class="st0" d="M204.88,516.38c32.95,4.13,65.4-1.09,96.64-14.45c26.09-11.15,49.2-25.69,68.01-46.82
				c5.57-6.26,7.76-5.24,11.43,2.02c7.47,14.71,15.96,29.01,27.92,40.68c6.86,6.71,15.21,13.97,25,8.92
				c17.39-8.97,34.13-19.52,48.37-33.09c7.9-7.54,7.57-16.91,1.8-26.88c-8.59-14.83-17.89-30.43-19.19-47.37
				c-2.11-27.44-3.89-55.01-3.39-82.69c0.74-40.28,1.12-80.63-0.09-120.9c-0.93-30.93-5.41-61.15-19.1-90.09
				c-15.25-32.26-40.3-52.49-71.52-65.85c-25.83-11.05-54.18-12.93-81.79-14.11c-30.46-1.3-60.63,2.54-90.68,10.27
				c-24.43,6.29-47.7,14.35-70.31,25.03c-12.86,6.07-18.05,16.51-13.45,27.42c0,3.96,0,7.92,0,11.88c1.77,1.54,2.37,3.08,1.84,4.61
				c0.52-1.54-0.09-3.07-1.84-4.61c-4.06,2.37-4.06,4.74,0,7.12l0,0c0.02,4.73,0.02,9.46,0.05,14.18c5.29,10.41,12,12.93,23.77,8.16
				c37.55-15.2,75.74-28.92,117.04-29.27c25.12-0.21,50.34-0.21,73.87,10.86c4.22,1.99,8.44,4.03,11.01,8.25
				c0.66,0.47,1.35,0.93,2.02,1.4c0.65,0.41,1.24,0.86,1.86,1.29c-0.62-0.43-1.21-0.88-1.86-1.29c-1.19,3.58,0.83,5.5,3.04,8.04
				c12.45,13.88,18.76,30.67,19.95,49.01c1.02,15.75,0.07,31.6,0.64,47.39c0.31,8.14-1.97,11.08-10.67,10.86
				c-11.34-0.26-21.3-6.12-32.12-6.95c-28.96-2.23-57.78-5.01-87.1-3.27c-31.33,1.85-59.85,9.99-86.89,25.52
				c-35.98,20.68-59.56,52.3-66.42,91.51c-6.88,39.28-4.51,79.32,20.52,115.24C128.41,494.55,163.7,511.21,204.88,516.38z
				 M368.13,448.35c-3.63,4.13-6.97,8.59-11.03,12.29c-0.1,0.09-0.2,0.18-0.3,0.27c0.1-0.09,0.2-0.18,0.3-0.27
				C361.13,456.93,364.5,452.47,368.13,448.35c6.48-7.35,11.6-6.64,15.68,2.21c0.02,0.04,0.04,0.07,0.05,0.11
				c-0.02-0.04-0.04-0.07-0.05-0.11C379.73,441.7,374.6,440.99,368.13,448.35z M230.12,296.41c16.98-5.88,34.96-5.41,52.75-5.24
				c26.54,0.09,52.73,2.97,78.68,8.94c8.97,2.06,12.55,6.24,12.24,15.44c-0.78,22.53-0.47,45.52-10.67,66.09
				c-18.88,38.05-52.78,55.22-92.89,61.06c-20.66,3.01-41.77,4.15-61.34-6.71c-16.79-9.32-27.92-22.87-31.83-41.75
				C166.83,344.71,184.22,312.31,230.12,296.41z M454.47,339.18L454.47,339.18c0.2-27.07,0.44-54.14,0.43-81.21
				C454.91,285.04,454.67,312.12,454.47,339.18z M371.05,177.88c0-0.01,0-0.02,0-0.02c-0.01-0.05-0.02-0.1-0.03-0.15
				c0.01,0.05,0.02,0.1,0.03,0.15C371.05,177.87,371.05,177.87,371.05,177.88z M473.57,474.18c-9.25,7.33-19.26,13.69-29.06,20.3
				c-14.45,9.75-25.05,8.3-36.15-5.12c-0.18-0.21-0.34-0.43-0.52-0.64c0.17,0.21,0.34,0.43,0.52,0.64
				c11.1,13.43,21.7,14.87,36.15,5.12C454.3,487.86,464.32,481.48,473.57,474.18c2.24-1.77,4.18-3.64,5.65-5.65
				C477.75,470.54,475.8,472.4,473.57,474.18z M421.69,83.07c0.56,0.67,1.1,1.34,1.65,2.02C422.79,84.41,422.25,83.73,421.69,83.07z
				 M430.04,94.21c1.02,1.52,2,3.07,2.94,4.63C432.03,97.28,431.05,95.73,430.04,94.21z M437.13,106.24
				c1.2,2.32,2.33,4.66,3.39,7.04C439.46,110.9,438.33,108.55,437.13,106.24z M114.54,88.43c3.15-12.07,10.52-19.84,22.02-25.26
				C125.06,68.61,117.71,76.35,114.54,88.43z M95.51,430.45c0.19,0.49,0.35,0.99,0.54,1.48c19.64,50.12,59.94,73.25,111.84,77.71
				c8.76,0.75,17.37,1.02,25.82,0.8c-8.46,0.22-17.07-0.05-25.82-0.8c-51.9-4.44-92.2-27.59-111.84-77.71
				C95.86,431.44,95.7,430.94,95.51,430.45z"/>
			<path class="st0" d="M136.64,136.96c17.01-7,34.35-12.79,51.85-18.38c16.84-5.38,34.02-10.27,51.19-11.36
				c31.48-1.99,63.69-4.13,92.72,13.35c2.25,1.38,5.41,1.02,7.85-0.88c-2.56-4.25-6.78-6.26-11.01-8.25
				c-23.51-11.1-48.75-11.08-73.87-10.86c-41.3,0.36-79.49,14.07-117.04,29.27c-11.77,4.77-18.48,2.25-23.77-8.16
				c-5.46,8.61-0.81,13.33,6.9,15.39C126.25,138.34,132.25,138.77,136.64,136.96z"/>
		</g>
	</g>
</g>
</svg>
