<?xml version="1.0" encoding="utf-8"?>
<!-- Generator: Adobe Illustrator 26.5.0, SVG Export Plug-In . SVG Version: 6.00 Build 0)  -->
<svg version="1.1" id="Layer_1" xmlns="http://www.w3.org/2000/svg" xmlns:xlink="http://www.w3.org/1999/xlink" x="0px" y="0px"
	 viewBox="0 0 305.76 479.9" style="enable-background:new 0 0 305.76 479.9;" xml:space="preserve">
<style type="text/css">
	.st0{fill:#FFFFFF;}
	.st1{fill:#E5E5E5;}
</style>
<g>
	<g>
		<path class="st0" d="M153.04,21.42c6.16-0.09,12.32-0.23,18.48-0.24c18.16-0.03,36.32,0.13,54.47-0.05
			c18.51-0.18,35.39,4.57,50.1,16.01c13.93,10.83,23.35,24.77,27.43,42c1.21,5.1,1.6,10.43,1.93,15.69
			c1.19,18.88-4.53,35.63-16.17,50.39c-11.19,14.19-25.88,22.95-43.32,27.21c-3.24,0.79-6.6,1.12-9.9,1.65
			c-4.37,0.09-8.74,0.19-13.11,0.28c-1.65-0.08-3.3-0.17-4.95-0.25c-1.08-0.02-2.16-0.07-3.24-0.07
			c-20.57-0.02-41.14-0.03-61.71-0.04c-0.01-9.24-0.04-18.48-0.04-27.72C153.02,104.65,153.03,63.03,153.04,21.42z"/>
		<path class="st1" d="M153.04,21.42c-0.01,41.62-0.03,83.23-0.03,124.85c0,9.24,0.02,18.48,0.04,27.72l-0.01,0.08
			c-0.18,0.01-0.36,0.02-0.54,0.04c-12.3-0.02-24.59-0.07-36.89-0.07c-13.54,0-27.08,0.05-40.63,0.07
			c-0.68,0.12-1.37,0.24-2.05,0.36c-1-0.13-2-0.26-3-0.38c-4.36-0.86-8.82-1.38-13.07-2.63c-26.79-7.86-44.57-25.12-53.36-51.63
			c-2.53-7.64-3.76-15.52-3.45-23.52c0.7-18.5,6.85-35.01,19.16-48.99c11.72-13.31,26.35-21.68,43.85-24.79
			c4.29-0.76,8.69-1.24,13.04-1.26c25.07-0.12,50.15-0.06,75.22-0.05C151.9,21.22,152.47,21.35,153.04,21.42z"/>
		<path class="st0" d="M69.94,174.07c1,0.13,2,0.26,3,0.38c0.68-0.12,1.37-0.24,2.05-0.36c13.54-0.03,27.08-0.07,40.63-0.07
			c12.3,0,24.59,0.04,36.89,0.07c0.15,0.13,0.3,0.26,0.45,0.39c0.03,1.33,0.07,2.66,0.07,4c0.03,20.16,0.05,40.32,0.08,60.49
			c-0.01,1.48-0.02,2.97-0.03,4.45c0,4.7,0.01,9.4,0.01,14.1c0.01,1.49,0.02,2.98,0.03,4.48c-0.03,20.26-0.05,40.51-0.08,60.77
			c0,1.24-0.05,2.49-0.08,3.73c-0.15,0.13-0.29,0.26-0.44,0.38c-11.63,0.02-23.26,0.07-34.89,0.07c-14.04,0-28.08-0.05-42.12-0.07
			c-0.83,0.01-1.65,0.02-2.48,0.03c-0.81,0.05-1.62,0.1-2.43,0.14c-3.64-0.69-7.33-1.15-10.9-2.09
			c-30.87-8.15-50.3-27.69-57.68-58.81c-1.28-5.41-2.04-11.13-1.88-16.66c0.56-18.83,6.82-35.64,19.47-49.79
			c11.03-12.34,24.72-20.32,40.91-23.91C63.62,175.1,66.79,174.64,69.94,174.07z"/>
		<path class="st1" d="M70.58,327.06c0.81-0.05,1.62-0.1,2.43-0.14c0.83-0.01,1.65-0.02,2.48-0.03c14.04,0.03,28.08,0.07,42.12,0.07
			c11.63,0,23.26-0.04,34.89-0.07c0.14,0.08,0.29,0.11,0.44,0.11c0.03,8.41,0.08,16.83,0.09,25.24c0.01,17.16,0.07,34.33-0.01,51.49
			c-0.17,35.55-24.45,66.08-59.47,74.08c-6.51,1.49-13.41,2.36-20.05,2.01c-17.72-0.93-33.63-7.11-47.08-18.94
			c-13.25-11.66-21.68-26.19-24.83-43.57c-1.04-5.72-1.85-11.67-1.46-17.43c1.42-21.13,9.73-39.21,25.61-53.5
			c11.55-10.4,25.13-16.54,40.48-18.81C67.68,327.36,69.13,327.23,70.58,327.06z"/>
		<path class="st1" d="M153.08,257.52c0-4.7-0.01-9.4-0.01-14.1c0.27-1.48,0.54-2.96,0.81-4.44c2.87-17.21,10.44-31.97,23.15-43.98
			c11.69-11.05,25.53-17.75,41.44-20.13c1.49-0.17,2.98-0.35,4.47-0.52c4.37-0.09,8.74-0.19,13.11-0.28
			c3.86,0.8,7.73,1.6,11.59,2.39c11.77,2.42,22.03,7.94,31.09,15.62c13.11,11.11,21.86,25.06,25.32,41.95
			c8.96,43.83-18.24,81.21-56.07,90.54c-7.7,1.9-15.47,2.99-23.33,2.35c-35.73-2.92-62.61-27.79-69.73-59.85
			c-0.37-1.69-0.69-3.39-1.04-5.08C153.62,260.51,153.35,259.02,153.08,257.52z"/>
		<path class="st0" d="M153.08,257.52c0.27,1.49,0.54,2.99,0.81,4.48c-0.26,0-0.52,0-0.78,0
			C153.1,260.51,153.09,259.01,153.08,257.52z"/>
		<path class="st0" d="M152.94,327c-0.16,0-0.3-0.04-0.44-0.11c0.15-0.13,0.3-0.26,0.44-0.38
			C152.94,326.66,152.94,326.83,152.94,327z"/>
		<path class="st0" d="M218.48,174.87c-0.16-0.26-0.32-0.52-0.47-0.77c1.65,0.08,3.3,0.17,4.95,0.25
			C221.46,174.52,219.97,174.7,218.48,174.87z"/>
		<path class="st0" d="M74.99,174.1c-0.68,0.12-1.37,0.24-2.05,0.36C73.62,174.34,74.3,174.22,74.99,174.1z"/>
		<path class="st0" d="M153.04,174.06c0.01,0.15-0.02,0.3-0.09,0.43c-0.15-0.13-0.3-0.26-0.45-0.39
			C152.68,174.08,152.86,174.07,153.04,174.06z"/>
		<path class="st0" d="M153.1,238.97c0.26,0,0.52,0.01,0.78,0.01c-0.27,1.48-0.54,2.96-0.81,4.44
			C153.08,241.94,153.09,240.46,153.1,238.97z"/>
		<path class="st0" d="M75.49,326.88c-0.83,0.01-1.65,0.02-2.48,0.03C73.83,326.9,74.66,326.89,75.49,326.88z"/>
	</g>
</g>
</svg>
