<?xml version="1.0" encoding="utf-8"?>
<!-- Generator: Adobe Illustrator 26.5.0, SVG Export Plug-In . SVG Version: 6.00 Build 0)  -->
<svg version="1.1" id="Layer_1" xmlns="http://www.w3.org/2000/svg" xmlns:xlink="http://www.w3.org/1999/xlink" x="0px" y="0px"
	 viewBox="0 0 258.33 320.83" style="enable-background:new 0 0 258.33 320.83;" xml:space="preserve">
<style type="text/css">
	.st0{fill:#FFFFFF;}
	.st1{fill:#E5E5E5;}
</style>
<g id="v3vcAU.tif">
	<g>
		<path class="st0" d="M164.45,107.21c1.98-0.35,2.91-2.08,4.16-3.32c10.59-10.5,21.15-21.03,31.66-31.61
			c2.47-2.49,5.21-4.21,8.72-2.95c3.23,1.16,4.34,3.94,4.87,7.26c4.19,25.97,8.52,51.91,12.76,77.88
			c4.94,30.26,9.73,60.55,14.77,90.79c1.71,10.3,1.96,10.26-7.01,15.22c-30.79,17.02-61.64,33.95-92.35,51.11
			c-8.72,4.87-16.9,5.06-25.69,0.11c-32.08-18.06-64.29-35.89-96.47-53.77c-2.71-1.51-5.31-2.87-2.96-6.58
			c2.07,3.51,3.06-0.04,3.89-0.85c23.56-22.97,46.29-46.77,70.2-69.4c14.39-13.62,28.14-27.93,42.11-42
			C143.62,128.53,154.01,117.85,164.45,107.21z"/>
		<path class="st1" d="M164.45,107.21c-10.44,10.63-20.83,21.31-31.33,31.89c-13.97,14.07-27.72,28.38-42.11,42
			c-23.91,22.63-46.64,46.43-70.2,69.4c-0.83,0.81-1.82,4.36-3.89,0.85c2.75-18.29,5.43-36.59,8.27-54.87
			c4.16-26.69,8.45-53.37,12.66-80.05c4.61-29.19,9.21-58.38,13.82-87.57c0.82-5.19,1.79-10.37,2.44-15.58
			c0.47-3.78,1.84-6.76,5.8-7.59c4.3-0.9,6.65,1.68,8.53,5.17c12.03,22.38,24.12,44.72,36.2,67.06c0.76,1.41,1.64,2.75,2.92,4.87
			c4.99-9.48,9.69-18.42,14.42-27.35c1.01-1.91,1.93-3.92,3.86-5.18c3.99-2.61,7.89-1.07,10.86,4.52
			C145.99,72.24,155.21,89.73,164.45,107.21z"/>
	</g>
</g>
</svg>
