<?xml version="1.0" encoding="utf-8"?>
<!-- Generator: Adobe Illustrator 16.0.0, SVG Export Plug-In . SVG Version: 6.00 Build 0)  -->
<!DOCTYPE svg PUBLIC "-//W3C//DTD SVG 1.1//EN" "http://www.w3.org/Graphics/SVG/1.1/DTD/svg11.dtd">
<svg version="1.1" id="Layer_1" xmlns="http://www.w3.org/2000/svg" xmlns:xlink="http://www.w3.org/1999/xlink" x="0px" y="0px"
	 width="24px" height="24px" viewBox="0 0 24 24" enable-background="new 0 0 24 24" xml:space="preserve">
<path fill="#FFFFFF" d="M19,0H5C2.239,0,0,2.239,0,5v14c0,2.761,2.239,5,5,5h14c2.762,0,5-2.239,5-5V5C24,2.239,21.762,0,19,0z
	 M14.534,19.59C14.129,19.668,14,19.419,14,19.206v-2.195c0-0.747-0.262-1.233-0.55-1.48c1.782-0.198,3.653-0.875,3.653-3.947
	c0-0.874-0.312-1.588-0.822-2.147c0.082-0.202,0.355-1.016-0.079-2.117c0,0-0.671-0.215-2.198,0.82
	C13.363,7.959,12.68,7.872,12,7.868c-0.68,0.003-1.364,0.091-2.003,0.269c-1.528-1.035-2.2-0.82-2.2-0.82
	C7.363,8.419,7.637,9.232,7.72,9.435c-0.512,0.56-0.824,1.273-0.824,2.147c0,3.064,1.867,3.751,3.645,3.954
	c-0.229,0.2-0.436,0.552-0.508,1.069c-0.457,0.205-1.614,0.558-2.328-0.666c0,0-0.423-0.768-1.227-0.824c0,0-0.78-0.01-0.055,0.486
	c0,0,0.525,0.246,0.889,1.17c0,0,0.463,1.429,2.688,0.944v1.489c0,0.211-0.129,0.459-0.528,0.385C6.292,18.533,4,15.534,4,12
	c0-4.419,3.582-8,8-8s8,3.581,8,8C20,15.533,17.711,18.531,14.534,19.59z"/>
</svg>
