<?xml version="1.0" encoding="utf-8"?>
<!-- Generator: Adobe Illustrator 26.5.0, SVG Export Plug-In . SVG Version: 6.00 Build 0)  -->
<svg version="1.1" id="Layer_1" xmlns="http://www.w3.org/2000/svg" xmlns:xlink="http://www.w3.org/1999/xlink" x="0px" y="0px"
	 viewBox="0 0 1200 1170" style="enable-background:new 0 0 1200 1170;" xml:space="preserve">
<style type="text/css">
	.st0{fill:#AA5D00;}
</style>
<g>
	<path class="st0" d="M0,975c0-260,0-520,0-780c1.86-4.64,1.55-9.63,2.32-14.45c6.61-41.26,23.35-77.83,51.21-109.02
		C85.6,35.62,125.37,13.05,172.7,3.77C180.11,2.32,187.75,2.32,195,0c269.33,0,538.67,0,808,0c0.26,0.76,0.87,0.84,1.56,0.89
		c29.47,1.98,57.3,9.96,83.07,24.22c58.73,32.5,95.08,81.71,108.49,147.61c1.57,7.71,2.6,15.52,3.88,23.28c0,259.67,0,519.33,0,779
		c-1.02,0.35-0.89,1.24-0.96,2.04c-1.12,12.96-3.15,25.8-7.09,38.18c-26.76,84.11-83.38,134.88-170.09,151.96
		c-5.93,1.17-12.08,0.79-17.85,2.82c-269.67,0-539.33,0-809,0c-0.35-1.02-1.24-0.89-2.04-0.96c-35.27-3.26-67.89-14.35-97.28-34.09
		c-49.44-33.21-80.13-79.14-91.93-137.64C2.26,989.89,2.3,982.25,0,975z M680.54,824.62c11.5,0,22.99,0.01,34.49,0
		c6,0,12,0.14,17.99-0.11c5.5-0.23,6.95-2.54,5.46-7.9c-0.31-1.12-0.77-2.2-1.16-3.3c-10.15-28.69-20.28-57.39-30.44-86.08
		c-50.04-141.24-100.1-282.47-150.05-423.75c-1.54-4.36-4-6.03-8.4-6.03c-41.99,0.05-83.98,0.04-125.97,0.01
		c-4.6,0-6.59,2.03-6.51,6.71c0.3,18.03-3.54,35.28-9.45,52.26C353.69,508.16,301,659.92,248.3,811.68
		c-0.71,2.03-1.31,4.14-1.64,6.26c-0.59,3.76,0.89,6.17,4.96,6.44c1.83,0.12,3.66,0.23,5.49,0.23c28.83,0.01,57.65,0.01,86.48,0.01
		c8.85,0,10.57-1.27,13.28-9.66c11.8-36.56,23.66-73.1,35.31-109.7c1.24-3.9,2.81-5.38,7.16-5.37
		c58.49,0.17,116.97,0.17,175.46,0.01c4.04-0.01,5.72,1.18,7.01,4.96c12.58,37,25.37,73.93,38.1,110.89
		c2.75,7.97,3.95,8.88,12.15,8.88C648.21,824.62,664.37,824.62,680.54,824.62z M906,627.08c0-63.47,0-126.94,0-190.41
		c0-8.25-1.38-9.66-9.46-9.66c-30.65-0.01-61.31,0-91.96,0c-9.77,0-10.58,0.8-10.58,10.44c0,125.94,0,251.88,0,377.83
		c0,1.5-0.07,3.01,0.05,4.5c0.36,4.46,2.66,7.19,7.29,7.2c32.65,0.05,65.3,0.03,97.95,0.04c4.05,0,6.15-2.16,6.58-6.01
		c0.2-1.81,0.12-3.66,0.12-5.49C906,752.69,906,689.88,906,627.08z M852.52,259.56c-34.79-1.33-62.92,24.55-64.04,59.35
		c-1.25,38.81,23.48,63.53,56.44,66.01c46.08,3.47,66.86-30.7,68-57.88C914.63,286.33,891.9,261.07,852.52,259.56z"/>
	<path class="st0" d="M486.13,390.4c-0.37-0.03-0.73-0.06-1.1-0.09c-1.54,6.62-2.87,13.29-4.65,19.84
		c-16.77,61.78-36.45,122.68-55.84,183.67c-1.28,4.03-0.78,4.9,3.48,4.88c29.31-0.16,58.63-0.09,87.95-0.09
		c10.16,0,20.32-0.07,30.48,0.04c2.71,0.03,3.59-0.55,2.61-3.38c-1.74-5.02-3.11-10.17-4.76-15.23
		c-15.85-48.51-31.07-97.22-45.87-146.06C494.06,419.54,490.21,404.93,486.13,390.4z"/>
	<path class="st0" d="M486.13,390.4c4.09,14.54,7.93,29.15,12.31,43.59c14.8,48.84,30.02,97.55,45.87,146.06
		c1.65,5.06,3.02,10.2,4.76,15.23c0.98,2.83,0.1,3.41-2.61,3.38c-10.16-0.11-20.32-0.04-30.48-0.04c-29.32,0-58.63-0.08-87.95,0.09
		c-4.27,0.02-4.76-0.85-3.48-4.88c19.39-60.99,39.06-121.89,55.84-183.67c1.78-6.55,3.11-13.23,4.65-19.84
		C485.39,390.34,485.76,390.37,486.13,390.4z"/>
</g>
</svg>
