<?xml version="1.0" encoding="utf-8"?>
<!-- Generator: Adobe Illustrator 26.5.0, SVG Export Plug-In . SVG Version: 6.00 Build 0)  -->
<svg version="1.1" id="Layer_1" xmlns="http://www.w3.org/2000/svg" xmlns:xlink="http://www.w3.org/1999/xlink" x="0px" y="0px"
	 viewBox="0 0 449.97 504.23" style="enable-background:new 0 0 449.97 504.23;" xml:space="preserve">
<style type="text/css">
	.st0{fill:#3FB34A;}
	.st1{fill:#1A8C44;}
	.st2{fill:#249547;}
	.st3{fill:#2BA049;}
</style>
<g id="Tce6EO.tif">
	<g>
		<path class="st0" d="M230.98,503.94c-1,0-2,0-3,0c-0.38-2.86-2.1-5.15-3.45-7.57c-15.55-27.84-31.19-55.64-46.73-83.49
			c-23.4-41.93-46.72-83.9-70.14-125.83c-7.45-13.34-15.08-26.59-22.63-39.87c-1.73-3.36-3.37-6.77-5.21-10.07
			c-22.29-40-44.6-79.99-66.91-119.99c0.86-1.57,2.56-2.01,3.97-2.81c13.51-7.7,27.05-15.35,40.57-23.03
			c51.05-28.97,102.11-57.95,153.16-86.93c6.36-3.61,12.99-5.66,20.34-3.18c0.81,1.62,1.46,3.33,2.46,4.83
			c6.05,9.11,7.67,19.1,7.66,29.88c-0.16,151.03-0.11,302.06-0.1,453.09c0,2.76-0.41,5.59,1.03,8.19
			C239.53,501.32,234.5,501.44,230.98,503.94z"/>
		<path class="st1" d="M85.04,247.18c7.55,13.29,15.18,26.53,22.63,39.87c23.41,41.92,46.73,83.9,70.14,125.83
			c15.54,27.85,31.18,55.65,46.73,83.49c1.35,2.42,3.07,4.71,3.45,7.57c-3,0-6,0-9,0c-2.27-1.15-4.6-2.21-6.81-3.47
			c-66.62-37.75-133.22-75.52-199.82-113.29c-3.05-1.73-5.88-3.7-7.24-7.11c1.13-1.61,2.36-3.17,3.36-4.85
			c12.66-21.34,25.35-42.67,37.89-64.08c8.62-14.73,17.97-29.06,25.7-44.29c1.43-0.71,1.89-2.15,2.71-3.33
			C78.48,258.24,80.52,251.96,85.04,247.18z"/>
		<path class="st1" d="M443.59,122.23c2.77,3.14,5.02,6.53,5.32,10.84c-0.01,76.98-0.03,153.96-0.03,230.94c0,1.76-0.42,3.64,1,5.15
			c0,0.98,0,1.97,0,2.95c-3.61,9.86-11.71,15.02-20.52,19.83c-19.94,10.89-39.64,22.2-59.44,33.34c-0.39-3.07-1.07-6.08-1.06-9.24
			c0.07-55.88-0.06-170.27,0.13-171.55c0.41-2.64,1.68-4.16,4.3-2.01c1.29,1.06,2.15,1.55,3.05-0.18
			c5.12-9.89,11.73-19.02,15.57-29.55c1.26-0.64,1.85-1.82,2.49-2.98c12.32-22.26,24.6-44.55,36.99-66.77
			C435.31,136,439.52,129.15,443.59,122.23z"/>
		<path class="st2" d="M85.04,247.18c-4.51,4.78-6.56,11.06-10.26,16.34c-0.83,1.18-1.29,2.63-2.71,3.33
			c-3.17-3.12-7.47-4.18-11.33-6.04c-18.23-8.83-36.39-17.79-54.77-26.31c-3.85-1.78-4.98-3.81-4.96-7.75
			c0.13-29.35,0.07-58.7,0.04-88.05c0-1.92,0.54-3.97-0.96-5.66c0-0.33,0-0.66,0-0.98c3.48-5.65,6.12-11.99,12.84-14.94
			c22.31,39.99,44.63,79.98,66.91,119.99C81.67,240.41,83.3,243.82,85.04,247.18z"/>
		<path class="st3" d="M0.08,133.05c1.5,1.69,0.96,3.74,0.96,5.66c0.03,29.35,0.1,58.7-0.04,88.05c-0.02,3.94,1.11,5.96,4.96,7.75
			c18.38,8.52,36.55,17.47,54.77,26.31c3.85,1.87,8.16,2.93,11.33,6.04c-7.74,15.23-17.08,29.56-25.7,44.29
			c-12.54,21.41-25.23,42.74-37.89,64.08c-1,1.69-2.24,3.24-3.36,4.85c-2.72-2.02-2.42-5.88-5.03-7.96c0-1.31,0-2.62,0-3.94
			c1.52-1.68,1-3.73,1-5.65c0.01-33.93-0.02-67.87-0.06-101.8c0-1.93,0.46-3.97-0.94-5.69C0.08,214.38,0.08,173.71,0.08,133.05z"/>
		<path class="st2" d="M449.89,369.16c-1.42-1.51-1-3.39-1-5.15c0-76.98,0.01-153.96,0.03-230.94c0.33-0.01,0.65-0.01,0.98-0.02
			C449.89,211.75,449.89,290.46,449.89,369.16z"/>
		<path class="st0" d="M0.08,255.04c1.4,1.72,0.93,3.76,0.94,5.69c0.05,33.93,0.07,67.87,0.06,101.8c0,1.92,0.52,3.97-1,5.65
			C0.08,330.47,0.08,292.75,0.08,255.04z"/>
		<path class="st3" d="M314.08,457.04c-23.07,13.21-46.13,26.42-69.23,39.58c-0.79,0.45-1.89,0.38-2.84,0.56
			c-1.44-2.59-1.03-5.43-1.03-8.19c-0.01-151.03-0.06-302.06,0.1-453.09c0.01-10.78-1.61-20.77-7.66-29.88
			c-0.99-1.5-1.65-3.21-2.46-4.83c3.33,0.05,5.93,1.95,8.62,3.48c65.36,37.04,130.7,74.12,196.02,111.23
			c2.97,1.69,6.31,3.03,7.99,6.34c-4.07,6.92-8.28,13.77-12.18,20.77c-12.39,22.22-24.68,44.5-36.99,66.77
			c-0.64,1.16-1.23,2.33-2.49,2.98c-2.05-0.23-3.06-1.69-4.17-3.18c-15.15-20.3-30.32-40.6-45.54-60.85
			c-27.58-36.69-55.17-73.37-82.84-109.98c-5.5-7.28-10.27-15.18-17.4-21.25c-1,1.26-0.13,2.08,0.32,2.85
			c4.4,7.49,8.89,14.94,13.29,22.43c15.58,26.48,31.14,52.98,46.72,79.46c5.77,9.8,10.82,19.5,10.79,31.56
			c-0.28,98.36-0.16,196.72-0.15,295.08C312.95,451.63,312.62,454.46,314.08,457.04z"/>
		<path class="st3" d="M314.08,457.04c-1.46-2.58-1.13-5.41-1.13-8.18c-0.01-98.36-0.13-196.72,0.15-295.08
			c0.03-12.06-5.02-21.76-10.79-31.56c-15.59-26.48-31.14-52.98-46.72-79.46c-4.41-7.49-8.89-14.94-13.29-22.43
			c-0.45-0.77-1.33-1.6-0.32-2.85c7.13,6.07,11.9,13.98,17.4,21.25c27.67,36.62,55.26,73.3,82.84,109.98
			c15.22,20.25,30.39,40.54,45.54,60.85c1.11,1.49,2.12,2.95,4.17,3.18c-3.84,10.54-10.45,19.67-15.57,29.55
			c-0.9,1.73-7.43,4.81-7.43,6.12c0,55.88,0.02,111.75-0.05,167.63c0,3.15,0.68,6.16,1.06,9.24
			C351.66,436.46,332.72,446.5,314.08,457.04z"/>
	</g>
</g>
</svg>
