<?xml version="1.0" encoding="utf-8"?>
<!-- Generator: Adobe Illustrator 26.5.0, SVG Export Plug-In . SVG Version: 6.00 Build 0)  -->
<svg version="1.1" id="Layer_1" xmlns="http://www.w3.org/2000/svg" xmlns:xlink="http://www.w3.org/1999/xlink" x="0px" y="0px"
	 viewBox="0 0 437.08 318.92" style="enable-background:new 0 0 437.08 318.92;" xml:space="preserve">
<style type="text/css">
	.st0{fill:#FFFFFF;}
</style>
<g>
	<g>
		<path class="st0" d="M340.07,318.73c-15.83,0.06-31.65,0.15-47.48,0.16c-45.65,0.02-91.3,0.01-136.95,0
			c-2.5,0-4.99-0.14-7.49-0.21c-13.95-4.83-17.73-10.24-17.07-24.42c1.64-4.15,2.81-8.56,4.99-12.4
			c30.77-54.11,61.68-108.13,92.51-162.2c0.8-1.4,1.12-3.07,1.66-4.62c4.7-8.06,9.4-16.11,14.09-24.17
			c0.21-0.04,0.42-0.05,0.63-0.01c4.63,8.04,9.26,16.09,13.89,24.13c2.61,5.3,4.97,10.74,7.85,15.88
			c30.72,54.72,61.53,109.38,92.31,164.07c-0.07,11.69-4.98,18.64-15.81,22.44C342.14,317.76,341.12,318.27,340.07,318.73z
			 M244.44,140.54c-29.63,51.86-58.57,102.51-87.78,153.63c58.86,0,116.84,0,175.58,0C302.97,242.95,274.08,192.39,244.44,140.54z"
			/>
		<path class="st0" d="M131.08,294.26c-0.66,14.18,3.12,19.59,17.07,24.42c-13.99,0.07-27.99,0.19-41.98,0.21
			c-25.33,0.03-50.66,0.06-76-0.05c-3.28-0.01-6.66-0.45-9.81-1.34C8.34,314.11,2.7,302.68,6.67,289.82
			c0.97-3.13,2.4-6.18,4.01-9.04c49.75-88.34,99.54-176.66,149.34-264.98c0.98-1.73,1.97-3.47,3.1-5.1
			c9.63-13.96,26.07-14.38,36.07-0.59c3.97,5.48,6.99,11.66,10.29,17.6c11.66,21.04,23.25,42.11,34.86,63.18
			c-4.7,8.06-9.4,16.11-14.09,24.17c-16.15-28.97-32.3-57.95-48.79-87.54c-50.07,88.9-99.85,177.28-150.07,266.45
			c2.74,0,4.51,0,6.29,0c23.15,0,46.3-0.03,69.45,0.01C115.12,293.98,123.1,294.16,131.08,294.26z"/>
		<path class="st0" d="M258.86,114.99c-4.63-8.04-9.26-16.09-13.89-24.13c5.56-9.06,11-18.19,16.7-27.16
			c10.51-16.56,28.08-16.53,38.18,0.51c10.83,18.28,20.89,37.01,31.26,55.57c29.96,53.63,59.94,107.26,89.83,160.92
			c3.62,6.5,7.42,13.06,5.48,21.08c-2.43,10.06-11,16.87-22.9,17.01c-21.15,0.25-42.3-0.02-63.45-0.07
			c1.05-0.45,2.07-0.97,3.14-1.35c10.83-3.8,15.74-10.75,15.81-22.44c13.9,0,27.81,0,42.85,0
			c-40.72-72.66-80.86-144.31-121.32-216.5C273.05,91.08,265.95,103.04,258.86,114.99z"/>
	</g>
</g>
</svg>
