<?xml version="1.0" encoding="utf-8"?>
<!-- Generator: Adobe Illustrator 26.5.0, SVG Export Plug-In . SVG Version: 6.00 Build 0)  -->
<svg version="1.1" id="Layer_1" xmlns="http://www.w3.org/2000/svg" xmlns:xlink="http://www.w3.org/1999/xlink" x="0px" y="0px"
	 viewBox="0 0 1199.99 1170" style="enable-background:new 0 0 1199.99 1170;" xml:space="preserve">
<style type="text/css">
	.st0{fill:#FFFFFF;}
</style>
<g>
	<path class="st0" d="M0,974.99c0-260,0-520,0-780c0.78-4.82,1.56-9.63,2.33-14.45c6.59-41.26,23.34-77.83,51.2-109.02
		C85.6,35.61,125.34,12.94,172.72,3.87C180.12,2.45,187.57,1.28,195,0c269.67,0,539.33,0,809,0c0.69,0.31,1.36,0.83,2.06,0.88
		c29.23,2.4,56.9,10.37,82.45,24.68c58.38,32.69,94.5,81.89,107.69,147.64c1.52,7.55,2.54,15.2,3.79,22.8c0,259.67,0,519.33,0,779
		c-0.32,0.68-0.81,1.33-0.94,2.05c-2.38,12.72-3.41,25.86-7.26,38.12c-26.45,84.19-83.19,134.94-169.91,151.92
		c-6.25,1.22-12.59,1.95-18.89,2.91c-269,0-538,0-807,0c-0.7-0.31-1.38-0.83-2.1-0.89c-31.81-2.7-61.65-11.91-88.94-28.39
		c-54.59-32.96-88.49-80.77-101.1-143.44C2.37,989.88,1.28,982.42,0,974.99z M378.57,659.6c2.63,0,4.43-0.02,6.24,0
		c17.49,0.2,34.98,0.73,52.46,0.55c32.8-0.34,65.17-4.22,96.22-15.31c47.73-17.04,83.2-47.74,102.05-95.49
		c12.22-30.95,14.84-63.44,10.96-96.33c-3.51-29.75-13.32-57.3-31.45-81.5c-24.71-32.99-58.35-52.38-97.3-63.53
		c-29.08-8.33-58.94-10.79-88.99-10.43c-50.48,0.6-100.95,1.83-151.42,2.82c-6.27,0.12-7.34,1.3-7.34,7.86
		c-0.01,169.96-0.01,339.93,0,509.89c0,7.7,1.19,8.84,9.07,8.85c29.99,0,59.99,0.01,89.98,0c7.99,0,9.52-1.57,9.52-9.75
		c0-50.16,0-100.31,0-150.47C378.57,664.64,378.57,662.51,378.57,659.6z M701.42,762.68c0,13.83,0.12,27.67-0.06,41.5
		c-0.07,5.76,2.31,9.62,7.54,11.67c8.05,3.15,16.01,6.65,24.28,9.1c30.73,9.11,62.27,12.63,94.23,12.51
		c25.26-0.1,50.27-2.53,74.39-10.52c50.25-16.65,83.2-48.83,89.51-103.25c4.02-34.71-4.95-65.69-30.75-90.71
		c-14.22-13.79-31.15-23.49-48.78-31.75c-20.91-9.8-42.58-17.98-63.71-27.32c-11.99-5.3-24.27-10.31-33.8-19.9
		c-13.25-13.33-8.47-33.52,9.55-38.77c7.3-2.13,15-3.85,22.55-3.99c38.92-0.75,76.67,4.89,111.99,22.42
		c8.56,4.25,13.2,1.38,13.21-8.02c0.02-24.83,0.01-49.67-0.01-74.5c0-1.83-0.24-3.65-0.35-5.48c-0.24-4.33-2.49-7.16-6.54-8.51
		c-7.25-2.42-14.4-5.33-21.82-7.06c-35-8.15-70.54-9.9-106.27-7.63c-25.53,1.62-49.74,8.16-72.45,20.47
		c-68.76,37.28-84.66,132.81-24.55,185.96c18.04,15.96,38.98,27.27,60.81,36.94c17.64,7.81,35.87,14.28,53.39,22.34
		c8.32,3.83,16.51,9,23.1,15.3c12.05,11.51,8.48,29.64-6.94,36.01c-8.16,3.37-17.23,5.66-26.02,6.21
		c-47.16,2.96-91.66-6.84-133.15-29.68c-7.34-4.04-9.29-2.92-9.32,5.66C701.4,735.35,701.43,749.02,701.42,762.68z"/>
	<path class="st0" d="M379.19,565.96c16.64,0,32.78,0.13,48.92-0.03c20.47-0.21,40.52-3.47,59.62-10.81
		c24.61-9.45,43.21-25.3,48.66-52.41c2.08-10.33,3.04-21.25,2.25-31.73c-2.35-31.27-17.76-53.79-47.5-65.5
		c-16.29-6.42-33.27-9.37-50.74-9.45c-16.99-0.07-33.98,0.08-50.96,0.24c-3.42,0.03-6.83,0.51-10.25,0.78
		C379.19,453.26,379.19,508.85,379.19,565.96z"/>
	<path class="st0" d="M379.19,565.96c0-57.11,0-112.7,0-168.91c3.42-0.27,6.83-0.75,10.25-0.78c16.99-0.16,33.98-0.31,50.96-0.24
		c17.46,0.07,34.45,3.03,50.74,9.45c29.74,11.71,45.15,34.23,47.5,65.5c0.79,10.48-0.17,21.4-2.25,31.73
		c-5.44,27.11-24.05,42.96-48.66,52.41c-19.1,7.33-39.15,10.6-59.62,10.81C411.97,566.09,395.83,565.96,379.19,565.96z"/>
</g>
</svg>
