<?xml version="1.0" encoding="utf-8"?>
<!-- Generator: Adobe Illustrator 26.5.0, SVG Export Plug-In . SVG Version: 6.00 Build 0)  -->
<svg version="1.1" id="Layer_1" xmlns="http://www.w3.org/2000/svg" xmlns:xlink="http://www.w3.org/1999/xlink" x="0px" y="0px"
	 viewBox="0 0 1179.5 1024.8" style="enable-background:new 0 0 1179.5 1024.8;" xml:space="preserve">
<style type="text/css">
	.st0{fill:#41B783;}
	.st1{fill:#34495E;}
</style>
<g>
	<path class="st0" d="M1179.5,0.94c-8.11,12.17-14.94,25.1-22.24,37.74C1031.7,256.07,906.2,473.48,780.69,690.89
		c-63,109.14-125.98,218.29-188.97,327.44c-1.24,2.14-2.5,4.27-3.79,6.46c-2.16-0.83-2.57-2.78-3.42-4.26
		c-114.71-198.66-229.39-397.33-344.07-596C159.54,284.4,78.63,144.27-2.29,4.15C-2.93,3.02-3.76,2-4.5,0.94C-3.39-1.15-1.46,0,0,0
		c77.5-0.07,155-0.06,232.5-0.06c0.21,0.63,0.33,1.31,0.65,1.87c13.53,23.51,27.06,47.02,40.64,70.5
		c35.31,61.09,70.67,122.14,105.95,183.25c30.7,53.18,61.28,106.43,91.97,159.62c33.02,57.22,66.12,114.39,99.19,171.59
		c5.38,9.31,10.76,18.61,16.27,28.15c0.75-0.71,1.18-0.97,1.4-1.36c12.59-21.75,25.17-43.5,37.73-65.26
		c20.71-35.89,41.38-71.8,62.09-107.69c19.3-33.44,38.63-66.86,57.93-100.3c19.38-33.58,38.74-67.18,58.12-100.76
		c19.3-33.44,38.62-66.86,57.92-100.3c19.38-33.58,38.77-67.16,58.12-100.76c7.38-12.82,14.68-25.7,22.01-38.55
		c77.5,0,155-0.01,232.5,0.06C1176.46,0,1178.39-1.15,1179.5,0.94z"/>
	<path class="st1" d="M942.5-0.06c-7.33,12.85-14.63,25.73-22.01,38.55c-19.35,33.6-38.73,67.18-58.12,100.76
		c-19.3,33.44-38.62,66.86-57.92,100.3c-19.38,33.58-38.74,67.18-58.12,100.76c-19.3,33.44-38.63,66.86-57.93,100.3
		c-20.71,35.89-41.39,71.8-62.09,107.69c-12.56,21.77-25.14,43.52-37.73,65.26c-0.22,0.38-0.66,0.65-1.4,1.36
		c-5.51-9.53-10.89-18.84-16.27-28.15c-33.07-57.19-66.16-114.37-99.19-171.59c-30.7-53.18-61.27-106.44-91.97-159.62
		C344.46,194.46,309.1,133.4,273.79,72.31c-13.57-23.48-27.1-46.99-40.64-70.5c-0.32-0.56-0.44-1.25-0.65-1.87c73,0,146,0,219,0
		c-0.38,1.89,1.09,3.05,1.88,4.42c43.82,76.01,87.67,151.99,131.55,227.96c0.71,1.22,1.07,2.78,2.85,3.64
		c0.77-1.25,1.56-2.45,2.28-3.7C634.08,156.02,678.11,79.78,722.1,3.52c0.63-1.09,1.81-2.05,1.4-3.58
		C796.5-0.06,869.5-0.06,942.5-0.06z"/>
</g>
</svg>
